# This file uses centimeters as units for non-parametric coordinates.

mtllib e.g.,StaplerV003.mtl
g default
v -0.452081 2.428519 -1.189970
v -0.452081 2.295000 -1.189970
v 0.103474 2.295000 -1.189970
v 0.103474 2.428519 -1.189970
v -0.452081 2.428519 -0.866370
v -0.452081 2.295000 -0.866370
v 0.103474 2.295000 -0.901333
v 0.103474 2.428519 -0.866370
v -0.395911 2.295000 1.377778
v -0.395911 2.428519 1.377778
v -0.420724 2.428519 -0.848161
v -0.420724 2.428519 -1.208178
v -0.395911 2.428519 -1.377778
v -0.395911 2.295000 -1.377778
v -0.395911 2.295000 -1.189970
v -0.395911 2.295000 -0.866370
v 0.069898 2.428519 -1.208178
v 0.069898 2.428519 -0.848161
v 0.045084 2.428519 1.377778
v 0.045084 2.295000 1.377952
v 0.045084 2.295000 -0.901333
v 0.045084 2.295000 -1.189970
v 0.045084 2.295000 -1.377778
v 0.045084 2.428519 -1.377778
v -0.420724 2.447944 -0.848161
v -0.420724 2.447944 -1.208178
v 0.069898 2.447944 -0.848161
v 0.069898 2.447944 -1.208178
v -0.346878 2.429631 1.363552
v 0.006094 2.429631 1.363552
v -0.346878 2.804837 1.138433
v 0.006094 2.804837 1.138433
v -0.346878 2.429631 0.351432
v 0.006094 2.429631 0.351432
v -0.304010 2.598143 0.901671
v -0.036027 2.598143 0.901671
v -0.345853 2.818760 -1.239870
v -0.001607 2.818760 -1.239870
v -0.364712 2.743154 0.156699
v 0.024989 2.743154 0.156699
v -0.386240 2.748123 -0.474276
v 0.038780 2.748123 -0.474276
v -0.316949 2.611789 0.839469
v -0.031658 2.611789 0.839469
v -0.316949 2.848557 0.839469
v -0.031658 2.848557 0.839469
v -0.316949 2.848557 -1.164950
v -0.031658 2.848557 -1.164950
v -0.316949 2.611789 -1.164950
v -0.031658 2.611789 -1.164950
v -0.316949 2.848557 -1.088877
v -0.316949 2.611789 -1.088876
v -0.031658 2.611789 -1.088876
v -0.031658 2.848557 -1.088877
v -0.316949 2.587909 -1.164950
v -0.031658 2.587909 -1.164950
v -0.031658 2.587909 -1.088876
v -0.316949 2.587909 -1.088876
v -0.132972 2.611789 0.839469
v -0.132972 2.848557 0.839469
v -0.132972 2.848557 -1.164950
v -0.132972 2.611789 -1.164950
v -0.132972 2.587909 -1.164950
v -0.132972 2.587909 -1.088876
v -0.132972 2.611789 -1.088876
v -0.209345 2.611789 0.837609
v -0.209345 2.848557 0.839469
v -0.209345 2.848557 -1.164950
v -0.209345 2.611789 -1.164950
v -0.209345 2.587909 -1.164950
v -0.209345 2.587909 -1.088876
v -0.209345 2.611789 -1.089372
v -0.209345 2.848557 -1.155699
v -0.209345 2.611789 -1.155699
v -0.132972 2.848557 -1.155699
v -0.132972 2.611789 -1.155699
v -0.209345 2.587909 -1.155699
v -0.132972 2.587909 -1.155699
v -0.209345 2.587909 -1.088891
v -0.132972 2.587909 -1.088891
v -0.345853 3.121841 -1.239870
v -0.001607 3.121841 -1.239870
v 0.053374 2.428519 -1.208035
v -0.404200 2.428519 -1.208035
v -0.404200 2.447944 -1.208035
v 0.053374 2.447944 -1.208035
v 0.053374 2.428519 -1.341549
v -0.404200 2.428519 -1.341549
v -0.404200 2.447944 -1.207873
v 0.053374 2.447944 -1.207873
v -0.452081 2.428519 -1.349695
v -0.423999 2.428519 -1.377778
v -0.452081 2.295000 -1.349695
v -0.423999 2.295000 -1.377778
v 0.075392 2.428519 -1.377778
v 0.103474 2.428519 -1.349695
v 0.075392 2.295000 -1.377778
v 0.103474 2.295000 -1.349695
v -0.316949 2.848557 -0.964666
v -0.316949 2.611789 -0.964665
v -0.031658 2.611789 -0.964665
v -0.031658 2.848557 -0.964666
v -0.316949 2.848557 -0.886672
v -0.316949 2.611789 -0.886671
v -0.031658 2.611789 -0.886671
v -0.031658 2.848557 -0.886672
v -0.316949 2.690848 0.839469
v -0.316949 2.690848 -1.088877
v -0.316949 2.690848 -1.164950
v -0.209345 2.690848 -1.164950
v -0.209345 2.690848 -1.155699
v -0.132972 2.690848 -1.155699
v -0.132972 2.690848 -1.164950
v -0.031658 2.690848 -1.164950
v -0.031658 2.690848 -1.088877
v -0.031658 2.690848 0.839469
v -0.316949 2.635770 0.839469
v -0.316949 2.635770 -1.088876
v -0.316949 2.635770 -1.164950
v -0.209345 2.635770 -1.164950
v -0.209345 2.635770 -1.155699
v -0.132972 2.635770 -1.155699
v -0.132972 2.635770 -1.164950
v -0.031658 2.635770 -1.164950
v -0.031658 2.635770 -1.088876
v -0.031658 2.635770 0.839469
v -0.316949 2.679834 -0.886671
v -0.316949 2.690848 -0.877270
v -0.316949 2.700249 -0.886671
v -0.316949 2.690848 -0.897686
v -0.310818 2.679834 -0.886671
v -0.310818 2.690848 -0.897686
v -0.316949 2.690848 -0.953651
v -0.316949 2.700250 -0.964666
v -0.316949 2.690848 -0.974067
v -0.316949 2.679834 -0.964665
v -0.310818 2.679834 -0.964665
v -0.310818 2.690848 -0.953651
v -0.316949 2.646784 -0.964665
v -0.316949 2.635770 -0.974067
v -0.316949 2.626369 -0.964665
v -0.316949 2.635770 -0.953651
v -0.310818 2.635770 -0.953651
v -0.310818 2.646784 -0.964665
v -0.316949 2.635770 -0.897685
v -0.316949 2.626368 -0.886671
v -0.316949 2.635770 -0.877269
v -0.316949 2.646784 -0.886671
v -0.310818 2.646784 -0.886671
v -0.310818 2.635770 -0.897685
v -0.031658 2.679834 -0.964665
v -0.031658 2.690848 -0.974067
v -0.031658 2.700250 -0.964666
v -0.031658 2.690848 -0.953651
v -0.037755 2.679834 -0.964665
v -0.037755 2.690848 -0.953651
v -0.031658 2.690848 -0.897686
v -0.031658 2.700249 -0.886671
v -0.031658 2.690848 -0.877270
v -0.031658 2.679834 -0.886671
v -0.037755 2.679834 -0.886671
v -0.037755 2.690848 -0.897686
v -0.031658 2.646784 -0.886671
v -0.031658 2.635770 -0.877269
v -0.031658 2.626368 -0.886671
v -0.031658 2.635770 -0.897685
v -0.037755 2.635770 -0.897685
v -0.037755 2.646784 -0.886671
v -0.031658 2.635770 -0.953651
v -0.031658 2.626369 -0.964665
v -0.031658 2.635770 -0.974067
v -0.031658 2.646784 -0.964665
v -0.037755 2.646784 -0.964665
v -0.037755 2.635770 -0.953651
v -0.452081 2.295000 1.349695
v -0.423999 2.295000 1.377778
v -0.452081 2.428519 1.349695
v -0.423999 2.428519 1.377778
v 0.075392 2.295000 1.377952
v 0.103474 2.295000 1.349869
v 0.075392 2.428519 1.377778
v 0.103474 2.428519 1.349695
v -0.304161 2.827889 0.899765
v -0.297031 2.847409 0.902975
v -0.379176 3.091666 0.190222
v -0.371628 3.102432 0.191258
v -0.042920 2.847409 0.902975
v -0.035785 2.827886 0.899764
v 0.039595 3.091664 0.190222
v 0.032051 3.102432 0.191258
v -0.386240 3.133843 -0.454094
v -0.375471 3.144599 -0.453532
v 0.028011 3.144599 -0.453532
v 0.038780 3.133843 -0.454094
v -0.361387 3.150609 -1.212298
v -0.366049 3.136227 -1.226082
v 0.013926 3.150609 -1.212298
v 0.018589 3.136227 -1.226082
v -0.346878 2.892396 0.619138
v -0.346878 2.869325 0.573573
v -0.346878 2.829111 0.542089
v -0.346878 2.893970 0.670187
v 0.006094 2.869325 0.573573
v 0.006094 2.892396 0.619138
v 0.006094 2.893970 0.670187
v 0.006094 2.829111 0.542089
v -0.312459 2.429631 1.363552
v -0.312459 2.804837 1.138433
v -0.312459 2.893970 0.670187
v -0.312459 2.892396 0.619138
v -0.312459 2.869325 0.573573
v -0.312459 2.829111 0.542089
v -0.312459 2.429631 0.351432
v -0.030389 2.893970 0.670187
v -0.030389 2.804837 1.138433
v -0.030389 2.429631 1.363552
v -0.030389 2.429631 0.351432
v -0.030389 2.829111 0.542089
v -0.030389 2.869325 0.573573
v -0.030389 2.892396 0.619138
v -0.312459 2.890188 0.675870
v -0.030389 2.890188 0.675870
v -0.036027 2.599193 1.114630
v -0.035785 2.738933 1.112723
v -0.042920 2.782991 1.115934
v -0.297031 2.782991 1.115934
v -0.304161 2.738935 1.112723
v -0.304010 2.599193 1.114630
v -0.395911 2.295000 1.250965
v 0.045084 2.295000 1.249154
v -0.395911 2.295000 1.215775
v 0.045084 2.295000 1.213413
v -0.395911 2.295000 1.184541
v 0.045084 2.295000 1.181690
v -0.395911 2.295000 1.152282
v 0.045084 2.295000 1.148926
v -0.395911 2.295000 1.121451
v 0.045084 2.295000 1.117612
v -0.395911 2.295000 1.086651
v 0.045084 2.295000 1.082405
v -0.452081 2.295000 -1.130078
v -0.452081 2.428519 -1.130077
v -0.420724 2.428519 -1.141546
v -0.420724 2.447944 -1.141546
v 0.069898 2.447944 -1.141546
v 0.069898 2.428519 -1.141546
v 0.103474 2.428519 -1.130077
v 0.103474 2.295000 -1.136549
v 0.045084 2.295000 -1.131497
v -0.395911 2.295000 -1.137445
v -0.452081 2.428519 -1.097767
v -0.452081 2.295000 -1.097768
v -0.395911 2.295000 -1.097768
v 0.045084 2.295000 -1.095311
v 0.103474 2.295000 -1.107730
v 0.103474 2.428519 -1.097767
v 0.069898 2.428519 -1.105600
v 0.069898 2.447944 -1.105600
v -0.420724 2.447944 -1.105600
v -0.420724 2.428519 -1.105600
v -0.452081 2.428519 -1.059563
v -0.452081 2.295000 -1.059564
v -0.395911 2.295000 -1.059564
v 0.045084 2.295000 -1.058756
v 0.103474 2.295000 -1.073653
v 0.103474 2.428519 -1.059563
v 0.069898 2.428519 -1.063097
v 0.069898 2.447944 -1.063096
v -0.420724 2.447944 -1.063096
v -0.420724 2.428519 -1.063096
v -0.452081 2.428519 -1.021063
v -0.452081 2.295000 -1.021063
v -0.395911 2.295000 -1.021063
v 0.045084 2.295000 -1.024416
v 0.103474 2.295000 -1.039313
v 0.103474 2.428519 -1.021063
v 0.069898 2.428519 -1.020263
v 0.069898 2.447944 -1.020263
v -0.420724 2.447944 -1.020263
v -0.420724 2.428519 -1.020263
v -0.452081 2.428519 -0.989210
v -0.452081 2.295000 -0.989211
v -0.395911 2.295000 -0.989211
v 0.045084 2.295000 -0.991637
v 0.103474 2.295000 -1.010902
v 0.103474 2.428519 -0.989210
v 0.069898 2.428519 -0.984826
v 0.069898 2.447944 -0.984826
v -0.420724 2.447944 -0.984826
v -0.420724 2.428519 -0.984826
v -0.452081 2.428519 -0.947112
v -0.452081 2.295000 -0.947113
v -0.395911 2.295000 -0.947113
v 0.045084 2.295000 -0.954088
v 0.103474 2.295000 -0.973352
v 0.103474 2.428519 -0.947112
v 0.069898 2.428519 -0.937990
v 0.069898 2.447944 -0.937990
v -0.420724 2.447944 -0.937990
v -0.420724 2.428519 -0.937990
v -0.395911 2.282754 1.250965
v 0.045084 2.282754 1.249154
v -0.395911 2.282754 1.215775
v 0.045084 2.282754 1.213413
v -0.395911 2.282754 1.184541
v 0.045084 2.282754 1.181690
v -0.395911 2.282754 1.152282
v 0.045084 2.282754 1.148926
v -0.395911 2.282754 1.121451
v 0.045084 2.282754 1.117612
v -0.395911 2.282754 1.086651
v 0.045084 2.282754 1.082405
v -0.395911 2.282754 -1.097768
v 0.045084 2.282754 -1.095311
v -0.395911 2.282754 -1.137445
v 0.045084 2.282754 -1.131497
v -0.395911 2.282754 -1.021063
v 0.045084 2.282754 -1.024416
v -0.395911 2.282754 -1.059564
v 0.045084 2.282754 -1.058756
v -0.395911 2.282754 -0.947113
v 0.045084 2.282754 -0.954088
v -0.395911 2.282754 -0.989211
v 0.045084 2.282754 -0.991637
vt 0.597139 0.557972
vt 0.594713 0.558195
vt 0.569626 0.468532
vt 0.570958 0.468499
vt 0.606198 0.584911
vt 0.600759 0.584919
vt 0.570100 0.388957
vt 0.571426 0.388982
vt 0.615631 0.467627
vt 0.624817 0.559906
vt 0.623989 0.586095
vt 0.576014 0.295698
vt 0.577903 0.294131
vt 0.616930 0.389993
vt 0.619428 0.295533
vt 0.579790 0.292563
vt 0.686920 0.558484
vt 0.684495 0.558250
vt 0.711070 0.468894
vt 0.712402 0.468933
vt 0.680756 0.585181
vt 0.675315 0.585149
vt 0.656785 0.560053
vt 0.666581 0.467831
vt 0.710953 0.389376
vt 0.712280 0.389356
vt 0.657444 0.586244
vt 0.665304 0.390195
vt 0.704896 0.294497
vt 0.706777 0.296072
vt 0.663412 0.295713
vt 0.703015 0.292922
vt 0.615276 0.722568
vt 0.624856 0.634960
vt 0.656150 0.635101
vt 0.664990 0.722791
vt 0.624975 0.608734
vt 0.656269 0.608874
vt 0.664136 0.802195
vt 0.614447 0.801972
vt 0.661982 0.895628
vt 0.615761 0.895422
vt 0.617660 0.898826
vt 0.615180 0.897116
vt 0.662548 0.897328
vt 0.660054 0.899017
vt 0.620375 0.258211
vt 0.662769 0.258385
vt 0.657170 0.603452
vt 0.624120 0.603305
vt 0.135275 0.477284
vt 0.135275 0.483773
vt 0.135275 0.487273
vt 0.135275 0.491413
vt 0.135275 0.495584
vt 0.135275 0.499035
vt 0.135275 0.503596
vt 0.135275 0.512344
vt 0.135275 0.752439
vt 0.120810 0.752457
vt 0.120809 0.508555
vt 0.120809 0.500753
vt 0.120809 0.496685
vt 0.120809 0.493607
vt 0.120809 0.489886
vt 0.120809 0.486194
vt 0.120809 0.483072
vt 0.120809 0.477284
vt 0.120809 0.459979
vt 0.135275 0.459979
vt 0.120810 0.755500
vt 0.135275 0.755480
vt 0.135275 0.456936
vt 0.120809 0.456936
vt 0.060619 0.503596
vt 0.060620 0.512344
vt 0.060620 0.752439
vt 0.046153 0.752439
vt 0.046153 0.512343
vt 0.046153 0.503596
vt 0.046153 0.499035
vt 0.046153 0.495584
vt 0.046153 0.491413
vt 0.046153 0.487273
vt 0.046153 0.483773
vt 0.046153 0.477284
vt 0.046153 0.459979
vt 0.060619 0.459979
vt 0.060619 0.477284
vt 0.060619 0.483773
vt 0.060619 0.487273
vt 0.060619 0.491413
vt 0.060619 0.495584
vt 0.060619 0.499035
vt 0.060619 0.755480
vt 0.046153 0.755481
vt 0.046153 0.456936
vt 0.060619 0.456936
vt 0.142031 0.397298
vt 0.142031 0.397282
vt 0.139928 0.397297
vt 0.139928 0.397313
vt 0.141774 0.382834
vt 0.142928 0.397309
vt 0.142237 0.426554
vt 0.142305 0.436287
vt 0.140202 0.436302
vt 0.140133 0.426569
vt 0.140098 0.421495
vt 0.140071 0.417656
vt 0.140039 0.413015
vt 0.140005 0.408410
vt 0.139978 0.404516
vt 0.142082 0.404501
vt 0.142110 0.408396
vt 0.142141 0.413001
vt 0.142176 0.417641
vt 0.142201 0.421480
vt 0.195186 0.396928
vt 0.194291 0.396952
vt 0.195241 0.382462
vt 0.197290 0.396913
vt 0.197290 0.396898
vt 0.195188 0.396912
vt 0.197495 0.426169
vt 0.197563 0.435902
vt 0.195460 0.435916
vt 0.195390 0.426184
vt 0.195356 0.421110
vt 0.195328 0.417271
vt 0.195296 0.412631
vt 0.195264 0.408026
vt 0.195237 0.404131
vt 0.197341 0.404117
vt 0.197369 0.408011
vt 0.197401 0.412616
vt 0.197433 0.417256
vt 0.197460 0.421095
vt 0.198125 0.661769
vt 0.198097 0.665582
vt 0.196767 0.665572
vt 0.196804 0.661760
vt 0.147669 0.665240
vt 0.147692 0.661368
vt 0.149025 0.661374
vt 0.148991 0.665247
vt 0.197025 0.638376
vt 0.197001 0.641871
vt 0.195668 0.641862
vt 0.195706 0.638368
vt 0.146577 0.641533
vt 0.146585 0.637983
vt 0.147921 0.637986
vt 0.147893 0.641535
vt 0.198941 0.614494
vt 0.198854 0.618264
vt 0.197533 0.618233
vt 0.197608 0.614464
vt 0.148422 0.617875
vt 0.148511 0.614061
vt 0.149830 0.614092
vt 0.149755 0.617906
vt 0.150078 0.549010
vt 0.149951 0.544713
vt 0.151274 0.544674
vt 0.151408 0.548970
vt 0.200375 0.543720
vt 0.200493 0.547638
vt 0.199168 0.547678
vt 0.199046 0.543759
vt 0.149848 0.569905
vt 0.149696 0.565736
vt 0.151025 0.565688
vt 0.151170 0.569857
vt 0.200120 0.564181
vt 0.200224 0.567901
vt 0.198902 0.567937
vt 0.198790 0.564219
vt 0.199828 0.588605
vt 0.199784 0.593166
vt 0.198454 0.593153
vt 0.198504 0.588591
vt 0.149345 0.592810
vt 0.149400 0.588742
vt 0.150727 0.588760
vt 0.150672 0.592828
vt 0.066705 0.503596
vt 0.066705 0.512344
vt 0.066705 0.723940
vt 0.066705 0.727710
vt 0.066705 0.731050
vt 0.066705 0.734544
vt 0.066705 0.737930
vt 0.066705 0.741743
vt 0.066705 0.755481
vt 0.063662 0.755480
vt 0.060619 0.503596
vt 0.060619 0.499035
vt 0.060619 0.495584
vt 0.060619 0.491413
vt 0.060619 0.487273
vt 0.060619 0.483773
vt 0.060619 0.477284
vt 0.060619 0.459979
vt 0.063662 0.456936
vt 0.066705 0.456936
vt 0.066705 0.477284
vt 0.066705 0.482975
vt 0.066705 0.487273
vt 0.066705 0.491413
vt 0.066705 0.495584
vt 0.066705 0.499035
vt 0.114483 0.508555
vt 0.114483 0.723480
vt 0.114483 0.502840
vt 0.114483 0.730687
vt 0.114483 0.727294
vt 0.114483 0.737674
vt 0.114483 0.734237
vt 0.114483 0.741546
vt 0.114483 0.755500
vt 0.114483 0.477284
vt 0.114483 0.483619
vt 0.114483 0.456937
vt 0.114483 0.491500
vt 0.114483 0.487540
vt 0.114483 0.498772
vt 0.114483 0.495221
vt 0.120810 0.500753
vt 0.117768 0.755500
vt 0.117768 0.456936
vt 0.120810 0.459979
vt 0.120810 0.477284
vt 0.120810 0.483072
vt 0.120810 0.486194
vt 0.120810 0.489886
vt 0.120810 0.493607
vt 0.120810 0.496685
vt 0.117173 0.424097
vt 0.117173 0.416878
vt 0.117173 0.412983
vt 0.117173 0.408378
vt 0.117175 0.403738
vt 0.117175 0.399898
vt 0.117175 0.394824
vt 0.117173 0.385092
vt 0.114494 0.143928
vt 0.117779 0.143928
vt 0.120821 0.146971
vt 0.120812 0.387065
vt 0.120811 0.395813
vt 0.120811 0.400373
vt 0.120811 0.403825
vt 0.120811 0.407996
vt 0.120811 0.412135
vt 0.120811 0.415636
vt 0.120811 0.422124
vt 0.120810 0.439429
vt 0.117768 0.442472
vt 0.114484 0.442472
vt 0.064019 0.385090
vt 0.066716 0.143926
vt 0.066706 0.442470
vt 0.064018 0.424095
vt 0.060622 0.395810
vt 0.060622 0.387063
vt 0.060631 0.146969
vt 0.063673 0.143926
vt 0.064019 0.394822
vt 0.064018 0.399896
vt 0.064018 0.403735
vt 0.064018 0.408376
vt 0.064018 0.412981
vt 0.064018 0.416876
vt 0.063662 0.442470
vt 0.060621 0.439427
vt 0.060621 0.422122
vt 0.060622 0.415633
vt 0.060622 0.412133
vt 0.060622 0.407994
vt 0.060622 0.403822
vt 0.060622 0.400372
vt 0.065808 0.424079
vt 0.115383 0.424082
vt 0.063657 0.769946
vt 0.063662 0.755480
vt 0.066700 0.769947
vt 0.114477 0.769965
vt 0.117767 0.755500
vt 0.117762 0.769966
vt 0.063662 0.456936
vt 0.063662 0.442470
vt 0.117768 0.442472
vt 0.117767 0.456937
vt 0.195473 0.438021
vt 0.142319 0.438391
vt 0.149042 0.660049
vt 0.196819 0.660432
vt 0.196753 0.666899
vt 0.148975 0.666573
vt 0.147941 0.636659
vt 0.195718 0.637041
vt 0.195652 0.643188
vt 0.147873 0.642863
vt 0.149840 0.612765
vt 0.197619 0.613138
vt 0.197530 0.619559
vt 0.149753 0.619234
vt 0.199208 0.549004
vt 0.151447 0.550297
vt 0.151248 0.543348
vt 0.199017 0.542433
vt 0.198960 0.569263
vt 0.151219 0.571182
vt 0.150989 0.564361
vt 0.198744 0.562893
vt 0.150722 0.587435
vt 0.198501 0.587263
vt 0.198443 0.594479
vt 0.150666 0.594154
vt 0.293826 0.506138
vt 0.297221 0.499444
vt 0.303135 0.494822
vt 0.361863 0.466851
vt 0.361745 0.615588
vt 0.306632 0.582461
vt 0.293588 0.513639
vt 0.478324 0.499588
vt 0.481709 0.506287
vt 0.481933 0.513789
vt 0.468780 0.582590
vt 0.413617 0.615628
vt 0.413735 0.466892
vt 0.472418 0.494957
vt 0.299280 0.419120
vt 0.298723 0.419954
vt 0.311878 0.351154
vt 0.308239 0.438787
vt 0.367045 0.318117
vt 0.366921 0.466854
vt 0.463607 0.351280
vt 0.476648 0.420103
vt 0.476093 0.419267
vt 0.467101 0.438919
vt 0.408496 0.318152
vt 0.408373 0.466889
vt 0.361745 0.648709
vt 0.366803 0.648709
vt 0.366803 0.717521
vt 0.361745 0.717521
vt 0.361745 0.615626
vt 0.366803 0.615626
vt 0.366803 0.725023
vt 0.366803 0.731719
vt 0.366803 0.736346
vt 0.361745 0.736345
vt 0.361745 0.731719
vt 0.361745 0.725023
vt 0.408255 0.731719
vt 0.408255 0.736344
vt 0.408255 0.717521
vt 0.408255 0.725023
vt 0.413617 0.725023
vt 0.413617 0.731719
vt 0.413617 0.736347
vt 0.413617 0.717521
vt 0.366803 0.716686
vt 0.408255 0.716686
vt 0.408255 0.648709
vt 0.413617 0.648709
vt 0.408255 0.615625
vt 0.366803 0.615592
vt 0.366792 0.795052
vt 0.361733 0.795051
vt 0.408215 0.795050
vt 0.413577 0.795053
vt 0.937219 0.377293
vt 0.940791 0.377279
vt 0.944348 0.377265
vt 0.944390 0.388597
vt 0.940833 0.388610
vt 0.937261 0.388624
vt 0.929058 0.388654
vt 0.905567 0.388742
vt 0.905524 0.377412
vt 0.929015 0.377323
vt 0.938347 0.675853
vt 0.930143 0.675884
vt 0.906652 0.675973
vt 0.905681 0.418863
vt 0.905637 0.407244
vt 0.940904 0.407111
vt 0.940947 0.418729
vt 0.941919 0.675840
vt 0.929177 0.420174
vt 0.930812 0.418767
vt 0.935735 0.418749
vt 0.937381 0.420143
vt 0.938776 0.418737
vt 0.937368 0.417102
vt 0.937339 0.408766
vt 0.938732 0.407120
vt 0.937326 0.405725
vt 0.935691 0.407131
vt 0.930768 0.407150
vt 0.929122 0.405756
vt 0.927727 0.407161
vt 0.929134 0.408796
vt 0.929165 0.417133
vt 0.927771 0.418779
vt 0.831377 0.389024
vt 0.827806 0.389037
vt 0.824248 0.389050
vt 0.824206 0.377719
vt 0.827763 0.377707
vt 0.831335 0.377692
vt 0.839539 0.377662
vt 0.863029 0.377573
vt 0.863072 0.388904
vt 0.839581 0.388993
vt 0.840667 0.676222
vt 0.832463 0.676253
vt 0.828891 0.676267
vt 0.827919 0.419156
vt 0.827875 0.407539
vt 0.863142 0.407406
vt 0.863186 0.419023
vt 0.864158 0.676133
vt 0.831496 0.420543
vt 0.833132 0.419137
vt 0.838055 0.419118
vt 0.839700 0.420511
vt 0.841095 0.419107
vt 0.839689 0.417470
vt 0.839657 0.409135
vt 0.841052 0.407489
vt 0.839646 0.406095
vt 0.838011 0.407501
vt 0.833088 0.407519
vt 0.831442 0.406125
vt 0.830047 0.407531
vt 0.831454 0.409166
vt 0.831484 0.417501
vt 0.830091 0.419148
vt 0.877993 0.343596
vt 0.877981 0.340023
vt 0.877968 0.336467
vt 0.879346 0.336463
vt 0.879358 0.340019
vt 0.879371 0.343592
vt 0.879399 0.351796
vt 0.879479 0.375287
vt 0.878101 0.375292
vt 0.878021 0.351800
vt 0.887993 0.343558
vt 0.887980 0.339984
vt 0.887967 0.336429
vt 0.889345 0.336423
vt 0.889358 0.339980
vt 0.889371 0.343552
vt 0.889401 0.351756
vt 0.889488 0.375247
vt 0.888111 0.375253
vt 0.888024 0.351761
vt 0.929896 0.418767
vt 0.928250 0.417133
vt 0.928222 0.408796
vt 0.929857 0.407149
vt 0.934780 0.407135
vt 0.936426 0.408770
vt 0.936454 0.417105
vt 0.934819 0.418751
vt 0.838923 0.407501
vt 0.840568 0.409138
vt 0.840595 0.417474
vt 0.838958 0.419120
vt 0.834036 0.419133
vt 0.832391 0.417499
vt 0.832364 0.409163
vt 0.834000 0.407518
vt 0.894092 0.377457
vt 0.890625 0.676033
vt 0.879249 0.676076
vt 0.873524 0.377532
vt 0.813800 0.676324
vt 0.802423 0.676090
vt 0.786396 0.676427
vt 0.785425 0.419317
vt 0.785381 0.407700
vt 0.785311 0.389198
vt 0.801338 0.389063
vt 0.812715 0.389095
vt 0.905372 0.336365
vt 0.889303 0.325092
vt 0.905331 0.325032
vt 0.889340 0.335045
vt 0.889303 0.325094
vt 0.877964 0.335086
vt 0.877927 0.325136
vt 0.877927 0.325134
vt 0.862877 0.336520
vt 0.862836 0.325191
vt 0.873511 0.373926
vt 0.894079 0.373852
vt 0.927338 0.417135
vt 0.927308 0.408800
vt 0.927344 0.418776
vt 0.928257 0.418772
vt 0.927302 0.407159
vt 0.928216 0.407156
vt 0.937334 0.407125
vt 0.936421 0.407129
vt 0.937373 0.418743
vt 0.936459 0.418746
vt 0.841476 0.409135
vt 0.841503 0.417470
vt 0.841470 0.407494
vt 0.840562 0.407498
vt 0.841509 0.419111
vt 0.840601 0.419115
vt 0.831490 0.419142
vt 0.832398 0.419139
vt 0.831449 0.407526
vt 0.832357 0.407522
vt 0.905385 0.339920
vt 0.905399 0.343492
vt 0.905429 0.351697
vt 0.905516 0.375189
vt 0.889290 0.321535
vt 0.905317 0.321475
vt 0.877914 0.321577
vt 0.862823 0.321634
vt 0.862902 0.343648
vt 0.862890 0.340075
vt 0.863010 0.375343
vt 0.862930 0.351852
vt 0.877990 0.342215
vt 0.877977 0.338643
vt 0.889353 0.338601
vt 0.889366 0.342174
vt 0.889396 0.350377
vt 0.878021 0.350420
vt 0.929855 0.406233
vt 0.934778 0.406224
vt 0.934822 0.419663
vt 0.929899 0.419681
vt 0.838961 0.420030
vt 0.834038 0.420041
vt 0.833997 0.406610
vt 0.838920 0.406592
vn 0.000000 0.000000 1.000000
vn 0.000000 0.000000 1.000000
vn -0.000186 0.000613 1.000000
vn -0.000186 0.000613 1.000000
vn 0.000000 0.000000 -1.000000
vn 0.000000 0.000000 -1.000000
vn 0.000000 0.000000 -1.000000
vn 0.000000 0.000000 -1.000000
vn -0.000000 -1.000000 0.000000
vn -0.000000 -1.000000 0.000000
vn -0.000000 -1.000000 0.000000
vn -0.000000 -1.000000 -0.000000
vn -0.000000 -1.000000 -0.000000
vn -0.000000 -1.000000 0.000000
vn -0.000000 -1.000000 0.000000
vn -0.000000 -1.000000 0.000000
vn -0.000000 -1.000000 0.000000
vn -0.000000 -1.000000 0.000000
vn -0.000000 -1.000000 0.000000
vn -0.000000 -1.000000 0.000000
vn -0.000000 -1.000000 0.000000
vn -0.000000 -1.000000 0.000000
vn -0.000000 -1.000000 0.000000
vn -0.000000 -1.000000 0.000000
vn -0.000000 -1.000000 0.000000
vn -0.000000 -1.000000 0.000000
vn -0.000000 -1.000000 0.000000
vn -0.000000 -1.000000 0.000000
vn -0.000000 -1.000000 0.000000
vn -0.000000 -1.000000 0.000000
vn -0.000000 -1.000000 0.000000
vn -0.000000 -1.000000 0.000000
vn -0.000000 -1.000000 0.000000
vn -0.000000 -1.000000 0.000000
vn -0.000000 -1.000000 0.000000
vn -0.000000 -1.000000 0.000000
vn 1.000000 -0.000000 0.000000
vn 1.000000 -0.000000 0.000000
vn 1.000000 -0.000000 0.000000
vn 1.000000 -0.000000 0.000000
vn 1.000000 -0.000000 0.000000
vn 1.000000 -0.000000 0.000000
vn 1.000000 -0.000000 0.000000
vn 1.000000 -0.000000 0.000000
vn 1.000000 -0.000000 0.000000
vn 1.000000 -0.000000 0.000000
vn 1.000000 -0.000000 0.000000
vn 1.000000 -0.000000 0.000000
vn 1.000000 -0.000000 0.000000
vn 1.000000 -0.000000 0.000000
vn 1.000000 -0.000000 0.000000
vn 1.000000 -0.000000 0.000000
vn 1.000000 -0.000000 0.000000
vn 1.000000 -0.000000 0.000000
vn 1.000000 -0.000000 0.000000
vn 1.000000 -0.000000 0.000000
vn -1.000000 -0.000000 0.000000
vn -1.000000 -0.000000 0.000000
vn -1.000000 -0.000000 0.000000
vn -1.000000 -0.000000 0.000000
vn -1.000000 -0.000000 0.000000
vn -1.000000 -0.000000 0.000000
vn -1.000000 -0.000000 0.000000
vn -1.000000 -0.000000 0.000000
vn -1.000000 -0.000000 0.000000
vn -1.000000 -0.000000 0.000000
vn -1.000000 -0.000000 0.000000
vn -1.000000 -0.000000 0.000000
vn -1.000000 -0.000000 0.000000
vn -1.000000 -0.000000 0.000000
vn -1.000000 -0.000000 0.000000
vn -1.000000 -0.000000 0.000000
vn -1.000000 -0.000000 0.000000
vn -1.000000 -0.000000 0.000000
vn -1.000000 -0.000000 0.000000
vn -1.000000 -0.000000 0.000000
vn -0.000185 0.000694 1.000000
vn -0.000185 0.000694 1.000000
vn 0.000000 0.001304 0.999999
vn 0.000000 0.001304 0.999999
vn 0.000000 1.000000 0.000000
vn 0.000000 1.000000 0.000000
vn 0.000000 1.000000 0.000000
vn 0.000000 1.000000 0.000000
vn 0.000000 1.000000 0.000000
vn 0.000000 1.000000 0.000000
vn 0.000000 1.000000 0.000000
vn 0.000000 1.000000 0.000000
vn 0.000000 1.000000 0.000000
vn 0.000000 1.000000 0.000000
vn 0.000000 1.000000 0.000000
vn 0.000000 1.000000 0.000000
vn 0.000000 1.000000 0.000000
vn 0.000000 1.000000 0.000000
vn 0.000000 1.000000 0.000000
vn 0.000000 1.000000 0.000000
vn 0.000000 1.000000 0.000000
vn 0.000000 1.000000 0.000000
vn 0.000000 1.000000 0.000000
vn 0.000000 1.000000 0.000000
vn 0.000000 1.000000 0.000000
vn 0.000000 1.000000 0.000000
vn 0.000000 0.000000 -1.000000
vn 0.000000 0.000000 -1.000000
vn 0.000000 0.000000 -1.000000
vn 0.000000 0.000000 -1.000000
vn 0.000000 -1.000000 0.000000
vn 0.000000 -1.000000 0.000000
vn 0.000000 -1.000000 0.000000
vn 0.000000 -1.000000 0.000000
vn 0.000000 -1.000000 0.000000
vn 0.000000 -1.000000 0.000000
vn 0.000000 -1.000000 0.000000
vn 0.000000 -1.000000 0.000000
vn 0.000000 -1.000000 -0.000000
vn 0.000000 -1.000000 -0.000000
vn 0.000000 -1.000000 0.000000
vn 0.000000 -1.000000 0.000000
vn 0.000000 -1.000000 0.000000
vn 0.000000 -1.000000 0.000000
vn 0.000000 -1.000000 0.000000
vn 0.000000 -1.000000 0.000000
vn 0.000000 -1.000000 0.000000
vn 0.000000 -1.000000 0.000000
vn 0.000000 -1.000000 0.000000
vn 0.000000 -1.000000 0.000000
vn 0.000000 -1.000000 0.000000
vn 0.000000 -1.000000 0.000000
vn 0.000000 -1.000000 0.000000
vn 0.000000 -1.000000 0.000000
vn 0.000000 -1.000000 0.000000
vn 0.000000 -1.000000 0.000000
vn 0.000000 -1.000000 0.000000
vn 0.000000 -1.000000 0.000000
vn 0.000000 1.000000 0.000000
vn 0.000000 1.000000 0.000000
vn 0.000000 1.000000 0.000000
vn 0.000000 1.000000 0.000000
vn 0.000000 0.000000 1.000000
vn 0.000000 0.000000 1.000000
vn 0.000000 0.000000 1.000000
vn 0.000000 0.000000 1.000000
vn 0.000000 0.989607 -0.143799
vn 0.000000 0.989607 -0.143799
vn 0.000000 0.989607 -0.143799
vn 0.000000 0.989607 -0.143799
vn 0.000000 0.514488 0.857498
vn 0.000000 0.514488 0.857498
vn 0.000000 0.514488 0.857498
vn 0.000000 0.514488 0.857498
vn -0.000001 0.982360 0.186998
vn -0.000001 0.982360 0.186998
vn -0.000001 0.955655 -0.294488
vn -0.000001 0.999173 0.040671
vn -0.000000 0.565952 -0.824438
vn -0.000000 0.808574 -0.588395
vn 0.000000 0.430723 -0.902484
vn 0.000000 0.430723 -0.902484
vn 0.000000 -1.000000 0.000000
vn 0.000000 -1.000000 0.000000
vn 0.000000 -1.000000 0.000000
vn 0.000000 -1.000000 0.000000
vn 0.000000 0.000000 -1.000000
vn 0.000000 0.000000 -1.000000
vn 0.000000 0.000000 -1.000000
vn 0.000000 0.000000 -1.000000
vn 0.000000 -0.995462 -0.095156
vn 0.000000 -0.995430 -0.095495
vn 0.000000 -0.981577 -0.191067
vn 0.000000 -0.981577 -0.191067
vn 0.000000 -0.995771 -0.091875
vn 0.000000 -0.995771 -0.091875
vn 0.000000 -0.998624 -0.052442
vn 0.000000 -0.998615 -0.052608
vn 0.000000 1.000000 0.000000
vn 0.000000 1.000000 0.000000
vn 0.000000 1.000000 0.000000
vn 0.000000 1.000000 0.000000
vn 0.000000 1.000000 0.000000
vn 0.000000 1.000000 -0.000000
vn 0.000000 1.000000 0.000000
vn 0.000000 1.000000 -0.000000
vn 0.000000 1.000000 -0.000000
vn 0.000000 1.000000 0.000000
vn 0.000000 1.000000 0.000000
vn 0.000000 1.000000 0.000000
vn 0.000000 1.000000 0.000000
vn 0.000000 1.000000 0.000000
vn 0.000000 -1.000000 0.000000
vn 0.000000 -1.000000 -0.000000
vn 0.000000 -1.000000 -0.000000
vn 0.000000 -1.000000 0.000000
vn 0.000000 -1.000000 -0.000000
vn 0.000000 -1.000000 0.000000
vn 0.000000 -1.000000 -0.000000
vn 0.000000 -1.000000 -0.000000
vn 0.000000 -1.000000 -0.000000
vn 0.000000 -1.000000 0.000000
vn 0.000000 -1.000000 0.000001
vn 0.000000 -1.000000 0.000000
vn -1.000000 0.000000 0.000000
vn -1.000000 0.000000 0.000000
vn -1.000000 0.000000 0.000000
vn -1.000000 -0.000000 0.000000
vn -1.000000 0.000000 0.000000
vn -1.000000 -0.000000 0.000000
vn -1.000000 -0.000000 0.000000
vn -1.000000 -0.000000 0.000000
vn -1.000000 0.000000 0.000000
vn -1.000000 0.000000 0.000000
vn 0.000000 -1.000000 0.000000
vn 0.000000 -1.000000 0.000000
vn 0.000000 -1.000000 0.000000
vn 0.000000 -1.000000 0.000000
vn 0.000000 0.000000 -1.000000
vn 0.000000 0.000000 -1.000000
vn 0.000000 0.000000 -1.000000
vn 0.000000 0.000000 -1.000000
vn 0.000000 0.000000 -1.000000
vn 0.000000 0.000000 -1.000000
vn 0.000000 0.000000 -1.000000
vn 0.000000 0.000000 -1.000000
vn 0.000000 0.000000 -1.000000
vn 0.000000 0.000000 -1.000000
vn 1.000000 0.000000 0.000000
vn 1.000000 0.000000 0.000000
vn 1.000000 0.000000 0.000000
vn 1.000000 0.000000 0.000000
vn 1.000000 0.000000 0.000000
vn 1.000000 0.000000 0.000000
vn 1.000000 -0.000000 0.000000
vn 1.000000 0.000000 0.000000
vn 1.000000 0.000000 0.000000
vn 1.000000 -0.000000 0.000000
vn -0.002173 0.019082 0.999816
vn -0.002318 0.019056 0.999816
vn 0.003964 0.002885 0.999988
vn 0.004604 0.000000 0.999989
vn 0.000000 0.000000 -1.000000
vn 0.000000 0.000000 -1.000000
vn 0.000000 0.000000 -1.000000
vn 0.000000 0.000000 -1.000000
vn 0.000000 0.000000 -1.000000
vn 0.000000 0.000000 -1.000000
vn 0.000000 0.000000 -1.000000
vn 0.000000 0.000000 -1.000000
vn 0.000000 0.000000 -1.000000
vn 0.000000 0.000000 -1.000000
vn 0.000000 -1.000000 0.000000
vn 0.000000 -1.000000 0.000000
vn 0.000000 -1.000000 0.000000
vn 0.000000 -1.000000 0.000000
vn 0.000000 0.000000 1.000000
vn -0.000538 0.001721 0.999998
vn 0.000000 0.000000 1.000000
vn 0.000000 0.000000 1.000000
vn 0.000000 0.000000 -1.000000
vn 0.000000 0.000000 -1.000000
vn 0.000000 0.000000 -1.000000
vn 0.000000 0.000000 -1.000000
vn 0.000000 0.000000 -1.000000
vn 0.000000 0.000000 -1.000000
vn 0.000000 0.000000 -1.000000
vn 0.000000 0.000000 -1.000000
vn 0.000000 0.000000 -1.000000
vn 0.000000 0.000000 -1.000000
vn 0.000000 -1.000000 0.000000
vn 0.000000 -1.000000 0.000000
vn 0.000000 -1.000000 0.000000
vn 0.000000 -1.000000 0.000000
vn 0.000000 -1.000000 0.000000
vn 0.000000 -1.000000 0.000000
vn 0.000000 -1.000000 0.000000
vn 0.000000 -1.000000 0.000000
vn -1.000000 0.000000 0.000000
vn -1.000000 0.000000 0.000000
vn -1.000000 0.000000 0.000000
vn -1.000000 0.000000 0.000000
vn -1.000000 0.000000 0.000000
vn -1.000000 0.000000 0.000000
vn -1.000000 0.000000 0.000000
vn -1.000000 0.000000 0.000000
vn -1.000000 0.000000 0.000000
vn -1.000000 0.000000 0.000000
vn 1.000000 0.000000 0.000000
vn 1.000000 0.000000 0.000000
vn 1.000000 0.000000 0.000000
vn 1.000000 0.000000 0.000000
vn 1.000000 0.000000 0.000000
vn 1.000000 0.000000 0.000000
vn 1.000000 0.000000 0.000000
vn 1.000000 0.000000 0.000000
vn 1.000000 0.000000 0.000000
vn 1.000000 0.000000 0.000000
vn 0.000000 0.000000 0.000000
vn 0.000000 0.000000 0.000000
vn 0.000000 0.000000 0.000000
vn 0.000000 0.000000 0.000000
vn 0.000000 -1.000000 0.000000
vn 0.000000 -1.000000 0.000000
vn 0.000000 -1.000000 0.000000
vn 0.000000 -1.000000 0.000000
vn -0.000000 0.691934 -0.721961
vn -0.000000 0.691934 -0.721961
vn -0.000000 0.691934 -0.721961
vn -0.000000 0.691934 -0.721961
vn -0.000000 0.691934 -0.721961
vn -0.000000 0.691934 -0.721961
vn 0.000000 1.000000 0.000433
vn 0.000000 1.000000 0.000433
vn 0.000000 1.000000 0.000433
vn 0.000000 1.000000 0.000433
vn 0.970514 0.000001 -0.241044
vn 0.970514 0.000001 -0.241044
vn 0.970514 0.000001 -0.241044
vn 0.970514 0.000001 -0.241044
vn 0.970514 0.000001 -0.241044
vn 0.970514 0.000001 -0.241044
vn -0.970514 0.000003 -0.241044
vn -0.970514 0.000003 -0.241044
vn -0.970514 0.000003 -0.241044
vn -0.970514 0.000003 -0.241044
vn -0.970514 0.000003 -0.241044
vn -0.970514 0.000003 -0.241044
vn 0.000000 -1.000000 0.000000
vn 0.000000 -1.000000 0.000000
vn 0.000000 -1.000000 0.000000
vn 0.000000 -1.000000 0.000000
vn -0.707106 0.000000 -0.707108
vn -0.707106 0.000000 -0.707108
vn -0.707106 0.000000 -0.707108
vn -0.707106 0.000000 -0.707108
vn 0.707106 0.000000 -0.707107
vn 0.707106 0.000000 -0.707107
vn 0.707106 0.000000 -0.707107
vn 0.707106 0.000000 -0.707107
vn -1.000000 0.000000 0.000000
vn -1.000000 0.000000 0.000000
vn -1.000000 -0.000000 0.000000
vn -1.000000 0.000000 0.000000
vn -1.000000 0.000000 0.000000
vn -1.000000 0.000000 0.000000
vn -1.000000 0.000000 0.000000
vn -1.000000 -0.000002 0.000000
vn -1.000000 0.000000 0.000000
vn -1.000000 0.000000 0.000000
vn -1.000000 0.000001 0.000000
vn -1.000000 -0.000000 0.000000
vn -1.000000 -0.000002 0.000000
vn -1.000000 -0.000000 0.000000
vn -1.000000 -0.000001 0.000000
vn -1.000000 0.000000 0.000000
vn -1.000000 0.000000 0.000000
vn -1.000000 0.000000 0.000000
vn -1.000000 0.000000 0.000000
vn -1.000000 0.000000 0.000000
vn -1.000000 -0.000000 0.000000
vn -1.000000 -0.000002 0.000000
vn -1.000000 -0.000000 0.000000
vn -1.000000 -0.000000 0.000000
vn 1.000000 0.000000 -0.000000
vn 1.000000 0.000000 -0.000000
vn 1.000000 0.000000 -0.000000
vn 1.000000 0.000000 0.000000
vn 1.000000 -0.000000 0.000000
vn 1.000000 0.000000 0.000000
vn 1.000000 0.000000 -0.000000
vn 1.000000 0.000000 -0.000000
vn 1.000000 -0.000001 0.000000
vn 1.000000 0.000000 0.000000
vn 1.000000 0.000000 0.000000
vn 1.000000 -0.000000 0.000000
vn 1.000000 0.000000 -0.000000
vn 1.000000 -0.000000 -0.000000
vn 1.000000 -0.000000 0.000000
vn 1.000000 0.000000 0.000000
vn 1.000000 0.000000 0.000000
vn 1.000000 0.000000 0.000000
vn 1.000000 0.000000 0.000000
vn 1.000000 -0.000000 0.000000
vn 1.000000 0.000000 -0.000000
vn 1.000000 0.000000 -0.000000
vn 1.000000 -0.000000 0.000000
vn 1.000000 0.000000 0.000000
vn 0.000000 -1.000000 0.000000
vn 0.000000 -1.000000 0.000000
vn 0.000000 -1.000000 0.000000
vn 0.000000 -1.000000 0.000000
vn 0.000000 0.000004 1.000000
vn 0.000000 0.000004 1.000000
vn 0.000000 0.000004 1.000000
vn 0.000000 0.000004 1.000000
vn 0.000000 1.000000 0.000000
vn 0.000000 1.000000 0.000000
vn 0.000000 1.000000 0.000000
vn 0.000000 1.000000 0.000000
vn 0.000000 -0.000004 -1.000000
vn 0.000000 -0.000004 -1.000000
vn 0.000000 -0.000004 -1.000000
vn 0.000000 -0.000004 -1.000000
vn 0.000000 -1.000000 0.000000
vn 0.000000 -1.000000 0.000000
vn 0.000000 -1.000000 0.000000
vn 0.000000 -1.000000 0.000000
vn 0.000000 -0.000004 -1.000000
vn 0.000000 -0.000004 -1.000000
vn 0.000000 -0.000004 -1.000000
vn 0.000000 -0.000004 -1.000000
vn 0.000000 1.000000 0.000001
vn 0.000000 1.000000 0.000000
vn 0.000000 1.000000 0.000000
vn 0.000000 1.000000 0.000000
vn 0.000000 0.000004 1.000000
vn 0.000000 0.000004 1.000000
vn 0.000000 0.000004 1.000000
vn 0.000000 0.000004 1.000000
vn -1.000000 0.000001 0.000000
vn -1.000000 0.000001 0.000000
vn -1.000000 -0.000001 0.000000
vn -1.000000 0.000002 0.000000
vn -1.000000 -0.000002 0.000000
vn -1.000000 0.000001 0.000000
vn -1.000000 -0.000001 0.000000
vn -1.000000 -0.000001 0.000000
vn 1.000000 0.000000 0.000000
vn 1.000000 -0.000000 0.000000
vn 1.000000 0.000000 0.000000
vn 1.000000 -0.000001 0.000000
vn 1.000000 0.000000 0.000000
vn 1.000000 -0.000001 0.000000
vn 1.000000 -0.000000 0.000000
vn 1.000000 -0.000000 0.000000
vn 0.000000 -0.707104 -0.707109
vn 0.000000 -0.707110 -0.707104
vn 0.000000 -0.707106 -0.707107
vn 0.000000 -0.707112 -0.707102
vn 0.000000 -0.707107 0.707107
vn 0.000000 -0.707109 0.707105
vn 0.000000 -0.707107 0.707106
vn 0.000000 -0.707109 0.707104
vn 0.000000 0.707102 0.707112
vn 0.000000 0.707111 0.707102
vn 0.000000 0.707105 0.707109
vn 0.000000 0.707114 0.707099
vn 0.000000 0.707109 -0.707104
vn 0.000000 0.707107 -0.707106
vn 0.000000 0.707109 -0.707105
vn 0.000000 0.707107 -0.707107
vn 0.000000 -0.707108 0.707106
vn 0.000000 -0.707107 0.707106
vn 0.000000 -0.707108 0.707106
vn 0.000000 -0.707107 0.707107
vn 0.000000 -0.707109 -0.707104
vn 0.000000 -0.707109 -0.707104
vn 0.000000 -0.707109 -0.707104
vn 0.000000 -0.707109 -0.707104
vn 0.000000 0.707104 -0.707109
vn 0.000000 0.707107 -0.707106
vn 0.000000 0.707105 -0.707108
vn 0.000000 0.707108 -0.707106
vn 0.000000 0.707109 0.707104
vn 0.000000 0.707107 0.707106
vn 0.000000 0.707109 0.707105
vn 0.000000 0.707107 0.707107
vn 0.000000 1.000000 0.000000
vn 0.000000 1.000000 0.000000
vn 0.000000 1.000000 0.000000
vn 0.000000 1.000000 0.000000
vn 0.000000 1.000000 0.000000
vn 0.000000 1.000000 0.000000
vn 0.000000 1.000000 0.000000
vn 0.000000 1.000000 0.000000
vn 0.000000 1.000000 0.000000
vn 0.000000 1.000000 0.000000
vn 0.000000 1.000000 0.000000
vn 0.000000 1.000000 0.000000
vn 0.000000 1.000000 0.000000
vn 0.000000 1.000000 0.000000
vn 0.000000 1.000000 0.000000
vn 0.000000 1.000000 0.000000
vn 0.000000 1.000000 0.000000
vn 0.000000 1.000000 0.000000
vn -0.707106 0.000000 0.707108
vn -0.707106 0.000000 0.707108
vn -0.707106 0.000000 0.707108
vn -0.707106 0.000000 0.707108
vn 0.707106 0.000922 0.707107
vn 0.707106 0.000922 0.707107
vn 0.707106 0.000922 0.707107
vn 0.707106 0.000922 0.707107
vn -0.886717 0.396335 0.238016
vn -0.886717 0.396335 0.238016
vn -0.844291 0.512201 0.157552
vn -0.848657 0.502681 0.164601
vn -0.812207 0.583226 0.012937
vn -0.812580 0.582713 0.012651
vn 0.886649 0.396236 0.238434
vn 0.886649 0.396236 0.238434
vn 0.849186 0.502829 0.161388
vn 0.844588 0.512925 0.153554
vn 0.812389 0.583053 0.008598
vn 0.812246 0.583251 0.008691
vn -0.848013 0.529731 -0.016084
vn -0.848013 0.529731 -0.016084
vn 0.848014 0.529729 -0.016084
vn 0.848014 0.529729 -0.016084
vn 0.000000 0.980745 0.195291
vn 0.000000 0.941390 0.337320
vn 0.000000 0.941390 0.337320
vn 0.000000 0.980644 0.195801
vn 0.995931 -0.030215 0.084901
vn 0.998641 -0.025213 0.045614
vn 0.998792 -0.024804 0.042412
vn 0.995931 -0.030215 0.084901
vn -0.998479 -0.025005 0.049127
vn -0.998335 -0.025368 0.051804
vn -0.995973 -0.029795 0.084558
vn -0.995973 -0.029795 0.084558
vn -0.998322 -0.026506 -0.051482
vn -0.999551 -0.024108 -0.017775
vn -0.999561 -0.024073 -0.017293
vn -0.998322 -0.026506 -0.051482
vn -0.998322 -0.026506 -0.051482
vn 0.999453 -0.023744 -0.023008
vn 0.999443 -0.023783 -0.023410
vn 0.998322 -0.026506 -0.051482
vn 0.998322 -0.026506 -0.051482
vn 0.998322 -0.026506 -0.051482
vn 0.000000 0.999390 0.034931
vn 0.000000 0.999386 0.035042
vn 0.000000 0.999969 0.007921
vn 0.000000 0.999969 0.007921
vn -0.000000 0.892157 -0.451726
vn -0.000000 0.892157 -0.451726
vn -0.000001 0.892157 -0.451725
vn -0.000001 0.892157 -0.451725
vn -1.000000 -0.000000 0.000000
vn -1.000000 -0.000000 0.000000
vn -1.000000 -0.000000 0.000000
vn -1.000000 -0.000000 0.000000
vn -1.000000 -0.000000 0.000000
vn -1.000000 -0.000000 0.000000
vn -1.000000 -0.000000 0.000000
vn 1.000000 0.000000 0.000000
vn 1.000000 0.000000 0.000000
vn 1.000000 0.000000 0.000000
vn 1.000000 0.000000 0.000000
vn 1.000000 0.000000 0.000000
vn 1.000000 0.000000 0.000000
vn 1.000000 0.000000 0.000000
vn 0.000000 0.514488 0.857498
vn 0.000000 0.514488 0.857498
vn 0.000000 0.514488 0.857498
vn 0.000000 0.514488 0.857498
vn 0.000000 0.957632 -0.287994
vn 0.000000 0.982360 0.186998
vn 0.000000 0.982360 0.186998
vn 0.000000 0.999173 0.040671
vn 0.000001 0.892157 -0.451725
vn 0.000001 0.892157 -0.451725
vn 0.000000 0.565952 -0.824438
vn 0.000000 0.804711 -0.593666
vn 0.000000 0.892157 -0.451726
vn 0.000000 0.892157 -0.451726
vn 0.000000 0.430723 -0.902484
vn 0.000000 0.430723 -0.902484
vn 0.000000 -1.000000 0.000000
vn 0.000000 -1.000000 0.000000
vn 0.000000 -1.000000 0.000000
vn 0.000000 -1.000000 0.000000
vn 1.000000 -0.000001 0.000000
vn 1.000000 -0.000001 0.000000
vn 1.000000 -0.000001 0.000000
vn 1.000000 -0.000001 0.000000
vn -1.000000 0.000000 0.000000
vn -1.000000 0.000000 0.000000
vn -1.000000 0.000000 0.000000
vn -1.000000 0.000000 0.000000
vn 0.000000 0.832504 0.554019
vn 0.000000 0.832504 0.554019
vn 0.000000 0.832504 0.554019
vn 0.000000 0.832504 0.554019
vn 0.000002 -0.006684 0.999978
vn 0.000002 -0.006684 0.999978
vn 0.000002 -0.006684 0.999978
vn 0.000002 -0.006684 0.999978
vn 0.000002 -0.006684 0.999978
vn 0.000002 -0.006684 0.999978
vn 1.000000 0.000000 0.000000
vn 1.000000 0.000000 0.000000
vn 1.000000 0.000000 0.000000
vn 1.000000 0.000000 0.000000
vn -1.000000 -0.000000 0.000000
vn -1.000000 -0.000000 0.000000
vn -1.000000 -0.000000 0.000000
vn -1.000000 -0.000000 0.000000
vn 0.000000 1.000000 0.000000
vn 0.000000 1.000000 0.000000
vn 0.000000 1.000000 0.000000
vn 0.000000 1.000000 0.000000
vn 0.999999 -0.001311 -0.000271
vn 0.999999 -0.001311 -0.000271
vn 0.999999 -0.001311 -0.000271
vn 0.999999 -0.001311 -0.000271
vn 0.974521 0.211030 0.075992
vn 0.974521 0.211030 0.075992
vn 0.974521 0.211030 0.075992
vn 0.974521 0.211030 0.075992
vn 0.000000 0.957168 0.289535
vn 0.000000 0.957168 0.289535
vn 0.000000 0.957168 0.289535
vn 0.000000 0.957168 0.289535
vn -0.974552 0.210906 0.075947
vn -0.974552 0.210905 0.075947
vn -0.974552 0.210906 0.075947
vn -0.974552 0.210906 0.075947
vn -1.000000 -0.000820 -0.000169
vn -1.000000 -0.000820 -0.000169
vn -1.000000 -0.000820 -0.000169
vn -1.000000 -0.000820 -0.000169
vn 0.000000 -0.999988 0.004930
vn 0.000000 -0.999988 0.004930
vn 0.000000 -0.999988 0.004930
vn 0.000000 -0.999988 0.004930
vn 0.000000 -1.000000 0.000000
vn 0.000000 -1.000000 0.000000
vn 0.000000 -1.000000 0.000000
vn 0.000000 -1.000000 0.000000
vn 0.000000 -1.000000 0.000000
vn 0.000000 -1.000000 0.000000
vn 0.000000 -1.000000 0.000000
vn 0.000000 -1.000000 0.000000
vn 0.000000 -1.000000 0.000000
vn 0.000000 -1.000000 0.000000
vn 0.000000 -1.000000 0.000000
vn 0.000000 -1.000000 0.000000
vn -1.000000 0.000001 0.000000
vn -1.000000 0.000001 0.000000
vn -1.000000 0.000001 0.000000
vn -1.000000 0.000001 0.000000
vn -1.000000 0.000001 0.000000
vn -1.000000 0.000001 0.000000
vn -1.000000 0.000001 0.000000
vn -1.000000 0.000001 0.000000
vn -1.000000 0.000001 0.000000
vn -1.000000 0.000001 0.000000
vn -1.000000 0.000001 0.000000
vn -1.000000 0.000001 0.000000
vn -1.000000 0.000001 0.000000
vn -1.000000 0.000001 0.000000
vn -1.000000 0.000001 0.000000
vn -1.000000 0.000001 0.000000
vn 0.000000 1.000000 0.000000
vn 0.000000 1.000000 0.000000
vn 0.000000 1.000000 0.000000
vn 0.000000 1.000000 0.000000
vn 0.000000 1.000000 0.000000
vn 0.000000 1.000000 0.000000
vn 0.000000 1.000000 0.000000
vn 0.000000 1.000000 0.000000
vn 0.000000 1.000000 0.000000
vn 0.000000 1.000000 0.000000
vn 0.000000 1.000000 0.000000
vn 0.000000 1.000000 0.000000
vn 0.000000 1.000000 0.000000
vn 0.000000 1.000000 0.000000
vn 0.000000 1.000000 0.000000
vn 0.000000 1.000000 0.000000
vn 1.000000 0.000000 0.000000
vn 1.000000 0.000000 0.000000
vn 1.000000 0.000000 0.000000
vn 1.000000 0.000000 0.000000
vn 1.000000 0.000000 0.000000
vn 1.000000 0.000000 0.000000
vn 1.000000 0.000000 0.000000
vn 1.000000 0.000000 0.000000
vn 1.000000 0.000000 0.000000
vn 1.000000 0.000000 0.000000
vn 1.000000 0.000000 0.000000
vn 1.000000 0.000000 0.000000
vn 1.000000 0.000000 0.000000
vn 1.000000 0.000000 0.000000
vn 1.000000 0.000000 0.000000
vn 1.000000 0.000000 0.000000
vn 0.000000 -1.000000 0.000000
vn 0.000000 -1.000000 0.000000
vn 0.000000 -1.000000 0.000000
vn 0.000000 -1.000000 0.000000
vn 0.000000 -1.000000 0.000000
vn 0.000000 -1.000000 0.000000
vn 0.000000 -1.000000 0.000000
vn 0.000000 -1.000000 0.000000
vn 0.000000 -1.000000 0.000000
vn 0.000000 -1.000000 0.000000
vn 0.000000 -1.000000 0.000000
vn 0.000000 -1.000000 0.000000
vn 0.004107 -0.000000 0.999992
vn 0.004107 -0.000000 0.999992
vn 0.004107 -0.000000 0.999992
vn 0.004107 -0.000000 0.999992
vn -1.000000 0.000009 -0.000000
vn -1.000000 0.000009 -0.000000
vn -1.000000 0.000009 -0.000000
vn -1.000000 0.000009 -0.000000
vn -0.005356 0.000000 -0.999986
vn -0.005356 0.000000 -0.999986
vn -0.005356 0.000000 -0.999986
vn -0.005356 0.000000 -0.999986
vn 1.000000 -0.000005 0.000000
vn 1.000000 -0.000005 0.000000
vn 1.000000 -0.000005 0.000000
vn 1.000000 -0.000005 0.000000
vn 0.006464 -0.000000 0.999979
vn 0.006464 -0.000000 0.999979
vn 0.006464 -0.000000 0.999979
vn 0.006464 -0.000000 0.999979
vn -1.000000 0.000005 0.000000
vn -1.000000 0.000005 0.000000
vn -1.000000 0.000005 0.000000
vn -1.000000 0.000005 0.000000
vn -0.007610 0.000000 -0.999971
vn -0.007610 0.000000 -0.999971
vn -0.007610 0.000000 -0.999971
vn -0.007610 0.000000 -0.999971
vn 1.000000 -0.000005 0.000000
vn 1.000000 -0.000005 0.000000
vn 1.000000 -0.000005 0.000000
vn 1.000000 -0.000005 0.000000
vn 0.008706 -0.000000 0.999962
vn 0.008706 -0.000000 0.999962
vn 0.008706 -0.000000 0.999962
vn 0.008706 -0.000000 0.999962
vn -1.000000 0.000004 0.000000
vn -1.000000 0.000004 0.000000
vn -1.000000 0.000004 0.000000
vn -1.000000 0.000004 0.000000
vn -0.009627 0.000000 -0.999954
vn -0.009627 0.000000 -0.999954
vn -0.009627 0.000000 -0.999954
vn -0.009627 0.000000 -0.999954
vn 1.000000 -0.000005 0.000000
vn 1.000000 -0.000005 0.000000
vn 1.000000 -0.000005 0.000000
vn 1.000000 -0.000005 0.000000
vn -0.005571 0.000000 0.999985
vn -0.005571 0.000000 0.999985
vn -0.005571 0.000000 0.999985
vn -0.005571 0.000000 0.999985
vn -1.000000 0.000004 0.000000
vn -1.000000 0.000004 0.000000
vn -1.000000 0.000004 0.000000
vn -1.000000 0.000004 0.000000
vn 0.013486 -0.000000 -0.999909
vn 0.013486 -0.000000 -0.999909
vn 0.013486 -0.000000 -0.999909
vn 0.013486 -0.000000 -0.999909
vn 1.000000 -0.000005 0.000000
vn 1.000000 -0.000005 0.000000
vn 1.000000 -0.000005 0.000000
vn 1.000000 -0.000005 0.000000
vn 0.007602 -0.000000 0.999971
vn 0.007602 -0.000000 0.999971
vn 0.007602 -0.000000 0.999971
vn 0.007602 -0.000000 0.999971
vn -1.000000 0.000004 0.000000
vn -1.000000 0.000004 0.000000
vn -1.000000 0.000004 0.000000
vn -1.000000 0.000004 0.000000
vn 0.001831 -0.000000 -0.999998
vn 0.001831 -0.000000 -0.999998
vn 0.001831 -0.000000 -0.999998
vn 0.001831 -0.000000 -0.999998
vn 1.000000 -0.000005 0.000000
vn 1.000000 -0.000005 0.000000
vn 1.000000 -0.000005 0.000000
vn 1.000000 -0.000005 0.000000
vn 0.015815 -0.000000 0.999875
vn 0.015815 -0.000000 0.999875
vn 0.015815 -0.000000 0.999875
vn 0.015815 -0.000000 0.999875
vn -1.000000 0.000004 0.000000
vn -1.000000 0.000004 0.000000
vn -1.000000 0.000004 0.000000
vn -1.000000 0.000004 0.000000
vn -0.005503 0.000000 -0.999985
vn -0.005503 0.000000 -0.999985
vn -0.005503 0.000000 -0.999985
vn -0.005503 0.000000 -0.999985
vn 1.000000 -0.000005 0.000000
vn 1.000000 -0.000005 0.000000
vn 1.000000 -0.000005 0.000000
vn 1.000000 -0.000005 0.000000
s 1
g Stapler
usemtl standardSurface2SG
f 178/285/1 176/286/2 9/195/3 10/287/4
s 2
f 94/291/5 92/292/6 13/263/7 14/206/8
s 3
f 293/187/9 16/188/10 239/189/11 237/190/12 235/191/13 233/192/14 231/193/15 229/194/16 9/195/17 176/196/18 175/77/19 6/76/20 292/197/21 282/198/22 272/199/23 262/200/24 252/201/25 241/202/26 2/203/27 93/204/28 94/205/29 14/206/30 15/207/31 250/208/32 253/209/33 263/210/34 273/211/35 283/212/36
s off
f 4/51/37 247/52/38 256/53/39 266/54/40 276/55/41 286/56/42 296/57/43 8/58/44 182/59/45 180/60/46 7/61/47 295/62/48 285/63/49 275/64/50 265/65/51 255/66/52 248/67/53 3/68/54 98/69/55 96/70/56
f 292/75/57 6/76/58 175/77/59 177/78/60 5/79/61 291/80/62 281/81/63 271/82/64 261/83/65 251/84/66 242/85/67 1/86/68 91/87/69 93/88/70 2/89/71 241/90/72 252/91/73 262/92/74 272/93/75 282/94/76
s 1
f 19/288/77 20/221/78 179/289/79 181/290/80
s 4
f 17/239/81 246/240/82 257/241/83 267/242/84 277/243/85 287/244/86 297/245/87 18/246/88 19/247/89 181/248/90 182/249/91 8/250/92 296/251/93 286/252/94 276/253/95 266/254/96 256/255/97 247/256/98 4/257/99 96/258/100 95/259/101 24/260/102
s 2
f 23/224/103 24/260/104 95/293/105 97/294/106
s 3
f 295/229/107 7/61/108 180/60/109 179/230/110 20/221/111 230/220/112 232/218/113 234/219/114 236/216/115 238/217/116 240/214/117 21/213/118 294/215/119 284/227/120 274/228/121 264/225/122 254/226/123 249/223/124 22/222/125 23/224/126 97/231/127 98/232/128 3/233/129 248/234/130 255/235/131 265/236/132 275/237/133 285/238/134
s 4
f 11/261/135 10/262/136 19/247/89 18/246/88
s 1
f 10/287/4 9/195/3 20/221/78 19/288/77
s 3
f 9/195/17 229/194/16 230/220/112 20/221/111
f 22/222/125 249/223/124 250/208/32 15/207/31 14/206/30 23/224/126
s 2
f 14/206/8 13/263/7 24/260/104 23/224/103
s 4
f 13/263/137 12/264/138 17/239/81 24/260/102
s off
f 11/295/139 18/296/140 27/106/141 25/127/142
f 87/103/143 88/121/144 89/120/145 90/104/146
f 29/351/147 207/352/148 208/348/149 31/347/150
s 5
f 31/347/151 208/348/152 209/349/153 202/350/154
f 201/356/155 212/355/156 213/373/157 33/374/158
s 6
f 33/324/159 213/340/160 207/372/161 29/325/162
s off
f 81/47/163 82/48/164 38/31/165 37/15/166
s 7
f 39/9/167 40/24/168 36/23/169 35/10/170
f 37/15/171 38/31/172 42/28/173 41/14/174
f 41/14/174 42/28/173 40/24/168 39/9/167
s 8
f 47/385/175 51/384/176 68/481/177
f 45/389/178 67/482/179 103/390/180
f 46/428/181 106/427/182 60/483/183
f 48/418/184 61/484/185 54/419/186
f 67/482/179 60/483/183 103/390/180
f 60/483/183 106/427/182 103/390/180
f 103/390/180 106/427/182 99/391/187
f 106/427/182 102/426/188 99/391/187
f 99/391/187 102/426/188 51/384/176
f 51/384/176 102/426/188 68/481/177
f 68/481/177 102/426/188 61/484/185
f 102/426/188 54/419/186 61/484/185
s 12
f 43/487/189 104/488/190 66/486/191
f 53/412/192 101/425/193 65/492/194
f 44/423/195 59/485/196 105/424/197
f 52/490/198 72/491/199 100/489/200
f 59/485/196 66/486/191 105/424/197
f 66/486/191 104/488/190 105/424/197
f 104/488/190 100/489/200 105/424/197
f 100/489/200 72/491/199 105/424/197
f 105/424/197 72/491/199 101/425/193
f 72/491/199 65/492/194 101/425/193
s 16
f 55/379/201 58/380/202 49/378/203
f 58/380/202 52/381/204 49/378/203
f 49/378/203 52/381/204 119/377/205
f 52/381/204 118/382/206 119/377/205
f 119/377/205 118/382/206 109/386/207
f 118/382/206 108/383/208 109/386/207
f 108/383/208 51/384/209 109/386/207
f 51/384/209 47/385/210 109/386/207
s 17
f 55/493/211 70/458/212 58/495/213
f 58/495/213 70/458/212 71/494/214
s 18
f 70/458/215 55/493/216 69/459/217
f 55/493/216 49/525/218 69/459/217
f 69/459/217 49/525/218 120/460/219
f 49/525/218 119/526/220 120/460/219
f 120/460/219 119/526/220 110/461/221
f 119/526/220 109/527/222 110/461/221
f 109/527/222 47/528/223 110/461/221
f 47/528/223 68/462/224 110/461/221
s 19
f 57/413/225 56/414/226 53/412/227
f 56/414/226 50/415/228 53/412/227
f 53/412/227 50/415/228 125/411/229
f 50/415/228 124/416/230 125/411/229
f 125/411/229 124/416/230 115/420/231
f 124/416/230 114/417/232 115/420/231
f 114/417/232 48/418/233 115/420/231
f 48/418/233 54/419/234 115/420/231
s 20
f 71/494/235 72/529/236 58/495/237
f 58/495/237 72/529/236 52/530/238
s 21
f 56/501/239 63/447/240 50/534/241
f 63/447/240 62/446/242 50/534/241
f 50/534/241 62/446/242 124/533/243
f 62/446/242 123/445/244 124/533/243
f 124/533/243 123/445/244 114/536/245
f 123/445/244 113/454/246 114/536/245
f 113/454/246 61/453/247 114/536/245
f 61/453/247 48/535/248 114/536/245
s 22
f 64/500/249 63/447/250 57/502/251
f 57/502/251 63/447/250 56/501/252
s 20
f 53/532/253 65/531/254 57/502/255
f 57/502/255 65/531/254 64/500/256
s 24
f 78/498/257 77/496/258 76/538/259
f 77/496/258 74/539/260 76/538/259
f 76/538/259 74/539/260 122/537/261
f 74/539/260 121/540/262 122/537/261
f 122/537/261 121/540/262 112/542/263
f 121/540/262 111/541/264 112/542/263
f 111/541/264 73/504/265 112/542/263
f 73/504/265 75/503/266 112/542/263
s 25
f 79/497/267 77/496/268 80/499/269
f 80/499/269 77/496/268 78/498/270
s 20
f 64/500/256 65/531/254 71/494/235
f 71/494/235 65/531/254 72/529/236
s 26
f 68/481/271 61/484/272 73/504/273
f 73/504/273 61/484/272 75/503/274
s 27
f 63/447/275 78/448/276 62/446/277
f 78/448/276 76/449/278 62/446/277
f 62/446/277 76/449/278 123/445/279
f 76/449/278 122/450/280 123/445/279
f 123/445/279 122/450/280 113/454/281
f 122/450/280 112/451/282 113/454/281
f 112/451/282 75/452/283 113/454/281
f 75/452/283 61/453/284 113/454/281
s 28
f 77/457/285 70/458/286 74/456/287
f 70/458/286 69/459/288 74/456/287
f 74/456/287 69/459/288 121/455/289
f 69/459/288 120/460/290 121/455/289
f 121/455/289 120/460/290 111/464/291
f 120/460/290 110/461/292 111/464/291
f 110/461/292 68/462/293 111/464/291
f 68/462/293 73/463/294 111/464/291
s 29
f 79/497/295 71/494/296 77/496/297
f 71/494/296 70/458/298 77/496/297
s 30
f 64/500/299 71/494/300 80/499/301
f 80/499/301 71/494/300 79/497/302
s off
f 81/43/303 196/44/304 195/42/305 197/41/306 198/45/307 82/46/308
f 17/239/309 12/264/310 84/283/311 83/284/312
f 86/99/313 28/100/314 17/101/315 83/102/316 87/103/317 90/104/318
f 85/119/319 89/120/320 88/121/321 84/122/322 12/123/323 26/124/324
f 85//325 86//326 90//327 89//328
f 91/87/329 92/97/330 94/98/331 93/88/332
f 95/73/333 96/70/334 98/69/335 97/74/336
s 16
f 45/389/337 103/390/338 107/388/339
f 51/384/209 108/383/208 99/391/340
f 52/381/204 100/392/341 118/382/206
f 43/394/342 117/387/343 104/393/344
f 117/387/343 107/388/339 104/393/344
f 118/382/206 100/392/341 108/383/208
f 108/383/208 100/392/341 140/403/345
f 140/403/345 100/392/341 141/402/346
f 100/392/341 104/393/344 141/402/346
f 141/402/346 104/393/344 142/401/347
f 142/401/347 104/393/344 145/400/348
f 145/400/348 104/393/344 146/399/349
f 104/393/344 107/388/339 146/399/349
f 146/399/349 107/388/339 147/398/350
f 140/403/345 139/404/351 108/383/208
f 139/404/351 136/405/352 108/383/208
f 136/405/352 135/406/353 108/383/208
f 108/383/208 135/406/353 99/391/340
f 135/406/353 134/407/354 99/391/340
f 99/391/340 134/407/354 103/390/338
f 134/407/354 133/408/355 103/390/338
f 133/408/355 130/409/356 103/390/338
f 130/409/356 129/410/357 103/390/338
f 103/390/338 129/410/357 107/388/339
f 129/410/357 128/395/358 107/388/339
f 107/388/339 128/395/358 147/398/350
f 128/395/358 127/396/359 147/398/350
f 127/396/359 148/397/360 147/398/350
s 19
f 44/423/361 105/424/362 126/422/363
f 53/412/227 125/411/229 101/425/364
f 54/419/234 102/426/365 115/420/231
f 46/428/366 116/421/367 106/427/368
f 126/422/363 105/424/362 116/421/367
f 125/411/229 115/420/231 101/425/364
f 115/420/231 171/440/369 101/425/364
f 171/440/369 170/441/370 101/425/364
f 101/425/364 170/441/370 105/424/362
f 170/441/370 169/442/371 105/424/362
f 169/442/371 166/443/372 105/424/362
f 166/443/372 165/444/373 105/424/362
f 105/424/362 165/444/373 116/421/367
f 165/444/373 164/429/374 116/421/367
f 171/440/369 115/420/231 172/439/375
f 172/439/375 115/420/231 151/438/376
f 151/438/376 115/420/231 152/437/377
f 115/420/231 102/426/365 152/437/377
f 152/437/377 102/426/365 153/436/378
f 102/426/365 106/427/368 153/436/378
f 153/436/378 106/427/368 154/435/379
f 154/435/379 106/427/368 157/434/380
f 157/434/380 106/427/368 158/433/381
f 106/427/368 116/421/367 158/433/381
f 158/433/381 116/421/367 159/432/382
f 116/421/367 164/429/374 159/432/382
f 164/429/374 163/430/383 159/432/382
f 163/430/383 160/431/384 159/432/382
s 35
f 132/466/385 130/505/386 138/467/387
f 138/467/387 130/505/386 133/506/388
s 36
f 137/468/389 136/543/390 144/469/391
f 144/469/391 136/543/390 139/544/392
s 37
f 143/470/393 142/401/394 150/471/395
f 150/471/395 142/401/394 145/400/396
s 38
f 149/472/397 148/545/398 131/465/399
f 131/465/399 148/545/398 127/546/400
s 39
f 156/474/401 154/515/402 162/475/403
f 162/475/403 154/515/402 157/516/404
s 40
f 161/476/405 160/547/406 168/477/407
f 168/477/407 160/547/406 163/548/408
s 41
f 167/478/409 166/443/410 174/479/411
f 174/479/411 166/443/410 169/442/412
s 42
f 173/480/413 172/549/414 155/473/415
f 155/473/415 172/549/414 151/550/416
s 43
f 131/465/417 132/466/418 149/472/419
f 132/466/418 138/467/420 149/472/419
f 149/472/419 138/467/420 150/471/421
f 138/467/420 137/468/422 150/471/421
f 144/469/423 143/470/424 137/468/422
f 137/468/422 143/470/424 150/471/421
s 44
f 155/473/425 156/474/426 173/480/427
f 156/474/426 162/475/428 173/480/427
f 173/480/427 162/475/428 174/479/429
f 162/475/428 161/476/430 174/479/429
f 168/477/431 167/478/432 161/476/430
f 161/476/430 167/478/432 174/479/429
s 45
f 127/507/433 130/505/434 131/508/435
f 131/508/435 130/505/434 132/466/436
s 46
f 133/506/437 136/509/438 138/467/439
f 138/467/439 136/509/438 137/510/440
s 47
f 139/511/441 142/401/442 144/512/443
f 144/512/443 142/401/442 143/470/444
s 48
f 145/400/445 148/513/446 150/471/447
f 150/471/447 148/513/446 149/514/448
s 49
f 151/517/449 154/515/450 155/518/451
f 155/518/451 154/515/450 156/474/452
s 50
f 157/516/453 160/519/454 162/475/455
f 162/475/455 160/519/454 161/520/456
s 51
f 163/521/457 166/443/458 168/522/459
f 168/522/459 166/443/458 167/478/460
s 52
f 169/442/461 172/523/462 174/479/463
f 174/479/463 172/523/462 173/524/464
s 16
f 127/396/359 128/395/358 130/409/356
f 130/409/356 128/395/358 129/410/357
f 133/408/355 134/407/354 136/405/352
f 136/405/352 134/407/354 135/406/353
f 139/404/351 140/403/345 142/401/347
f 142/401/347 140/403/345 141/402/346
f 145/400/348 146/399/349 148/397/360
f 148/397/360 146/399/349 147/398/350
s 19
f 151/438/376 152/437/377 154/435/379
f 154/435/379 152/437/377 153/436/378
f 157/434/380 158/433/381 160/431/384
f 160/431/384 158/433/381 159/432/382
f 163/430/383 164/429/374 166/443/372
f 166/443/372 164/429/374 165/444/373
f 169/442/371 170/441/370 172/439/375
f 172/439/375 170/441/370 171/440/369
s 4
f 291/265/465 5/266/466 177/267/467 178/268/468 10/262/136 11/261/135 300/269/469 290/270/470 280/271/471 270/272/472 260/273/473 243/274/474 12/264/138 13/263/137 92/275/475 91/276/476 1/277/477 242/278/478 251/279/479 261/280/480 271/281/481 281/282/482
s off
f 175/77/483 176/95/484 178/96/485 177/78/486
f 179/71/487 180/60/488 182/59/489 181/72/490
s 53
f 183/1/491 184/2/492 186/3/493 185/4/494
f 185/4/494 186/3/493 192/7/495 191/8/496
s 54
f 187/17/497 188/18/498 189/19/499 190/20/500
f 190/20/500 189/19/499 194/25/501 193/26/502
s 53
f 191/8/496 192/7/495 195/12/503 196/13/504
s 54
f 193/26/502 194/25/501 198/29/505 197/30/506
s 55
f 186/33/507 184/34/508 187/35/509 190/36/510
s 56
f 36/23/511 40/24/512 189/19/513 188/18/514
s 57
f 185/4/515 39/9/516 35/10/517 183/1/518
f 37/15/519 41/14/520 191/8/521 196/13/522 81/16/523
s 56
f 194/25/524 42/28/525 38/31/526 82/32/527 198/29/528
s 55
f 192/40/529 193/39/530 197/41/531 195/42/532
s 57
f 191/8/521 41/14/520 39/9/516 185/4/515
s 55
f 186/33/507 190/36/510 193/39/530 192/40/529
s 56
f 189/19/513 40/24/512 42/28/525 194/25/524
s 5
f 210/353/533 211/354/534 212/355/156 201/356/155 200/357/535 199/358/536 202/350/154 209/349/153
s off
f 199/321/537 200/322/538 201/323/539 33/324/540 29/325/541 31/326/542 202/327/543
f 203/328/544 204/329/545 205/330/546 32/331/547 30/332/548 34/333/549 206/334/550
f 215/369/551 216/371/552 30/332/553 32/370/554
s 5
f 214/361/555 215/369/556 32/370/557 205/366/558
f 204/363/559 203/364/560 206/365/561 218/360/562 219/359/563 220/362/564 214/361/555 205/366/558
f 217/375/565 218/360/562 206/365/561 34/376/566
s 6
f 216/371/567 217/346/568 34/333/569 30/332/570
s off
f 207/372/161 213/340/160 217/346/568 216/371/567
s 5
f 219/359/563 218/360/562 212/355/156 211/354/534 210/353/533 209/349/153 214/361/555 220/362/564
s off
f 221/335/571 209/336/572 208/337/573 212/338/574
f 215/341/575 214/342/576 222/343/577 218/344/578
f 214/361/579 209/349/580 221/367/581 222/368/582
f 223/27/583 224/49/584 225/38/585 226/37/586 227/50/587 228/11/588
f 208/337/589 207/339/590 213/340/591 212/338/592
f 216/345/593 215/341/594 218/344/595 217/346/596
s 6
f 207/339/597 216/345/598 217/346/599 213/340/600
s off
f 36/23/601 188/18/602 224/22/603 223/27/604
f 188/18/605 187/17/606 225/21/607 224/22/608
f 187/35/609 184/34/610 226/37/611 225/38/612
f 184/2/613 183/1/614 227/5/615 226/6/616
f 183/1/617 35/10/618 228/11/619 227/5/620
f 35/10/621 36/23/622 223/27/623 228/11/624
f 302/145/625 301/142/626 303/141/627 304/146/628
s 3
f 232/218/113 231/193/15 233/192/14 234/219/114
s off
f 306/153/629 305/150/630 307/149/631 308/154/632
s 3
f 236/216/115 235/191/13 237/190/12 238/217/116
s off
f 310/161/633 309/158/634 311/157/635 312/162/636
s 3
f 21/213/118 240/214/117 239/189/11 16/188/10 293/187/9 294/215/119
s off
f 300/125/637 11/126/638 25/127/639 299/128/640 289/129/641 279/130/642 269/131/643 259/132/644 244/133/645 26/124/646 12/123/647 243/134/648 260/135/649 270/136/650 280/137/651 290/138/652
f 299/128/653 25/127/654 27/106/655 298/105/656 288/118/657 278/117/658 268/116/659 258/115/660 245/114/661 28/100/662 26/124/663 244/133/664 259/132/665 269/131/666 279/130/667 289/129/668
f 298/105/669 27/106/670 18/107/671 297/108/672 287/109/673 277/110/674 267/111/675 257/112/676 246/113/677 17/101/678 28/100/679 245/114/680 258/115/681 268/116/682 278/117/683 288/118/684
f 314/169/685 313/166/686 315/165/687 316/170/688
s 3
f 264/225/122 263/210/34 253/209/33 254/226/123
s off
f 318/177/689 317/174/690 319/173/691 320/178/692
s 3
f 284/227/120 283/212/36 273/211/35 274/228/121
s off
f 322/185/693 321/182/694 323/181/695 324/186/696
f 230/297/697 229/298/698 301/142/699 302/145/700
f 229/139/701 231/140/702 303/141/703 301/142/704
f 231/299/705 232/300/706 304/146/707 303/141/708
f 232/143/709 230/144/710 302/145/711 304/146/712
f 234/301/713 233/302/714 305/150/715 306/153/716
f 233/147/717 235/148/718 307/149/719 305/150/720
f 235/303/721 236/304/722 308/154/723 307/149/724
f 236/151/725 234/152/726 306/153/727 308/154/728
f 238/305/729 237/306/730 309/158/731 310/161/732
f 237/155/733 239/156/734 311/157/735 309/158/736
f 239/307/737 240/308/738 312/162/739 311/157/740
f 240/159/741 238/160/742 310/161/743 312/162/744
f 254/309/745 253/310/746 313/166/747 314/169/748
f 253/163/749 250/164/750 315/165/751 313/166/752
f 250/311/753 249/312/754 316/170/755 315/165/756
f 249/167/757 254/168/758 314/169/759 316/170/760
f 274/313/761 273/314/762 317/174/763 318/177/764
f 273/171/765 263/172/766 319/173/767 317/174/768
f 263/315/769 264/316/770 320/178/771 319/173/772
f 264/175/773 274/176/774 318/177/775 320/178/776
f 294/317/777 293/318/778 321/182/779 322/185/780
f 293/179/781 283/180/782 323/181/783 321/182/784
f 283/319/785 284/320/786 324/186/787 323/181/788
f 284/183/789 294/184/790 322/185/791 324/186/792
