# This file uses centimeters as units for non-parametric coordinates.

mtllib e.g.,Staplerv001.mtl
g default
v -0.452081 2.428519 -1.189970
v -0.452081 2.295000 -1.189970
v 0.103474 2.295000 -1.189970
v 0.103474 2.428519 -1.189970
v -0.452081 2.428519 -0.866370
v -0.452081 2.295000 -0.866370
v 0.103474 2.295000 -0.901333
v 0.103474 2.428519 -0.866370
v -0.395911 2.295000 1.377778
v -0.395911 2.428519 1.377778
v -0.420724 2.428519 -0.848161
v -0.420724 2.428519 -1.208178
v -0.395911 2.428519 -1.377778
v -0.395911 2.295000 -1.377778
v -0.395911 2.295000 -1.189970
v -0.395911 2.295000 -0.866370
v 0.069898 2.428519 -1.208178
v 0.069898 2.428519 -0.848161
v 0.045084 2.428519 1.377778
v 0.045084 2.295000 1.377952
v 0.045084 2.295000 -0.901333
v 0.045084 2.295000 -1.189970
v 0.045084 2.295000 -1.377778
v 0.045084 2.428519 -1.377778
v -0.420724 2.447944 -0.848161
v -0.420724 2.447944 -1.208178
v 0.069898 2.447944 -0.848161
v 0.069898 2.447944 -1.208178
v -0.346878 2.429631 1.363552
v 0.006094 2.429631 1.363552
v -0.346878 2.804837 1.138433
v 0.006094 2.804837 1.138433
v -0.346878 2.429631 0.351432
v 0.006094 2.429631 0.351432
v -0.304010 2.598143 0.901671
v -0.036027 2.598143 0.901671
v -0.345853 2.818760 -1.239870
v -0.001607 2.818760 -1.239870
v -0.364712 2.743154 0.156699
v 0.024989 2.743154 0.156699
v -0.386240 2.748123 -0.474276
v 0.038780 2.748123 -0.474276
v -0.316949 2.611789 0.839469
v -0.031658 2.611789 0.839469
v -0.316949 2.848557 0.839469
v -0.031658 2.848557 0.839469
v -0.316949 2.848557 -1.164950
v -0.031658 2.848557 -1.164950
v -0.316949 2.611789 -1.164950
v -0.031658 2.611789 -1.164950
v -0.316949 2.848557 -1.088877
v -0.316949 2.611789 -1.088876
v -0.031658 2.611789 -1.088876
v -0.031658 2.848557 -1.088877
v -0.316949 2.587909 -1.164950
v -0.031658 2.587909 -1.164950
v -0.031658 2.587909 -1.088876
v -0.316949 2.587909 -1.088876
v -0.132972 2.611789 0.839469
v -0.132972 2.848557 0.839469
v -0.132972 2.848557 -1.164950
v -0.132972 2.611789 -1.164950
v -0.132972 2.587909 -1.164950
v -0.132972 2.587909 -1.088876
v -0.132972 2.611789 -1.088876
v -0.209345 2.611789 0.837609
v -0.209345 2.848557 0.839469
v -0.209345 2.848557 -1.164950
v -0.209345 2.611789 -1.164950
v -0.209345 2.587909 -1.164950
v -0.209345 2.587909 -1.088876
v -0.209345 2.611789 -1.089372
v -0.209345 2.848557 -1.155699
v -0.209345 2.611789 -1.155699
v -0.132972 2.848557 -1.155699
v -0.132972 2.611789 -1.155699
v -0.209345 2.587909 -1.155699
v -0.132972 2.587909 -1.155699
v -0.209345 2.587909 -1.088891
v -0.132972 2.587909 -1.088891
v -0.345853 3.121841 -1.239870
v -0.001607 3.121841 -1.239870
v 0.053374 2.428519 -1.208035
v -0.404200 2.428519 -1.208035
v -0.404200 2.447944 -1.208035
v 0.053374 2.447944 -1.208035
v 0.053374 2.428519 -1.341549
v -0.404200 2.428519 -1.341549
v -0.404200 2.447944 -1.207873
v 0.053374 2.447944 -1.207873
v -0.452081 2.428519 -1.349695
v -0.423999 2.428519 -1.377778
v -0.452081 2.295000 -1.349695
v -0.423999 2.295000 -1.377778
v 0.075392 2.428519 -1.377778
v 0.103474 2.428519 -1.349695
v 0.075392 2.295000 -1.377778
v 0.103474 2.295000 -1.349695
v -0.316949 2.848557 -0.964666
v -0.316949 2.611789 -0.964665
v -0.031658 2.611789 -0.964665
v -0.031658 2.848557 -0.964666
v -0.316949 2.848557 -0.886672
v -0.316949 2.611789 -0.886671
v -0.031658 2.611789 -0.886671
v -0.031658 2.848557 -0.886672
v -0.316949 2.690848 0.839469
v -0.316949 2.690848 -1.088877
v -0.316949 2.690848 -1.164950
v -0.209345 2.690848 -1.164950
v -0.209345 2.690848 -1.155699
v -0.132972 2.690848 -1.155699
v -0.132972 2.690848 -1.164950
v -0.031658 2.690848 -1.164950
v -0.031658 2.690848 -1.088877
v -0.031658 2.690848 0.839469
v -0.316949 2.635770 0.839469
v -0.316949 2.635770 -1.088876
v -0.316949 2.635770 -1.164950
v -0.209345 2.635770 -1.164950
v -0.209345 2.635770 -1.155699
v -0.132972 2.635770 -1.155699
v -0.132972 2.635770 -1.164950
v -0.031658 2.635770 -1.164950
v -0.031658 2.635770 -1.088876
v -0.031658 2.635770 0.839469
v -0.316949 2.679834 -0.886671
v -0.316949 2.690848 -0.877270
v -0.316949 2.700249 -0.886671
v -0.316949 2.690848 -0.897686
v -0.310818 2.679834 -0.886671
v -0.310818 2.690848 -0.897686
v -0.316949 2.690848 -0.953651
v -0.316949 2.700250 -0.964666
v -0.316949 2.690848 -0.974067
v -0.316949 2.679834 -0.964665
v -0.310818 2.679834 -0.964665
v -0.310818 2.690848 -0.953651
v -0.316949 2.646784 -0.964665
v -0.316949 2.635770 -0.974067
v -0.316949 2.626369 -0.964665
v -0.316949 2.635770 -0.953651
v -0.310818 2.635770 -0.953651
v -0.310818 2.646784 -0.964665
v -0.316949 2.635770 -0.897685
v -0.316949 2.626368 -0.886671
v -0.316949 2.635770 -0.877269
v -0.316949 2.646784 -0.886671
v -0.310818 2.646784 -0.886671
v -0.310818 2.635770 -0.897685
v -0.031658 2.679834 -0.964665
v -0.031658 2.690848 -0.974067
v -0.031658 2.700250 -0.964666
v -0.031658 2.690848 -0.953651
v -0.037755 2.679834 -0.964665
v -0.037755 2.690848 -0.953651
v -0.031658 2.690848 -0.897686
v -0.031658 2.700249 -0.886671
v -0.031658 2.690848 -0.877270
v -0.031658 2.679834 -0.886671
v -0.037755 2.679834 -0.886671
v -0.037755 2.690848 -0.897686
v -0.031658 2.646784 -0.886671
v -0.031658 2.635770 -0.877269
v -0.031658 2.626368 -0.886671
v -0.031658 2.635770 -0.897685
v -0.037755 2.635770 -0.897685
v -0.037755 2.646784 -0.886671
v -0.031658 2.635770 -0.953651
v -0.031658 2.626369 -0.964665
v -0.031658 2.635770 -0.974067
v -0.031658 2.646784 -0.964665
v -0.037755 2.646784 -0.964665
v -0.037755 2.635770 -0.953651
v -0.452081 2.295000 1.349695
v -0.423999 2.295000 1.377778
v -0.452081 2.428519 1.349695
v -0.423999 2.428519 1.377778
v 0.075392 2.295000 1.377952
v 0.103474 2.295000 1.349869
v 0.075392 2.428519 1.377778
v 0.103474 2.428519 1.349695
v -0.304161 2.827889 0.899765
v -0.297031 2.847409 0.902975
v -0.379176 3.091666 0.190222
v -0.371628 3.102432 0.191258
v -0.042920 2.847409 0.902975
v -0.035785 2.827886 0.899764
v 0.039595 3.091664 0.190222
v 0.032051 3.102432 0.191258
v -0.386240 3.133843 -0.454094
v -0.375471 3.144599 -0.453532
v 0.028011 3.144599 -0.453532
v 0.038780 3.133843 -0.454094
v -0.361387 3.150609 -1.212298
v -0.366049 3.136227 -1.226082
v 0.013926 3.150609 -1.212298
v 0.018589 3.136227 -1.226082
v -0.346878 2.892396 0.619138
v -0.346878 2.869325 0.573573
v -0.346878 2.829111 0.542089
v -0.346878 2.893970 0.670187
v 0.006094 2.869325 0.573573
v 0.006094 2.892396 0.619138
v 0.006094 2.893970 0.670187
v 0.006094 2.829111 0.542089
v -0.312459 2.429631 1.363552
v -0.312459 2.804837 1.138433
v -0.312459 2.893970 0.670187
v -0.312459 2.892396 0.619138
v -0.312459 2.869325 0.573573
v -0.312459 2.829111 0.542089
v -0.312459 2.429631 0.351432
v -0.030389 2.893970 0.670187
v -0.030389 2.804837 1.138433
v -0.030389 2.429631 1.363552
v -0.030389 2.429631 0.351432
v -0.030389 2.829111 0.542089
v -0.030389 2.869325 0.573573
v -0.030389 2.892396 0.619138
v -0.312459 2.890188 0.675870
v -0.030389 2.890188 0.675870
v -0.036027 2.599193 1.114630
v -0.035785 2.738933 1.112723
v -0.042920 2.782991 1.115934
v -0.297031 2.782991 1.115934
v -0.304161 2.738935 1.112723
v -0.304010 2.599193 1.114630
v -0.395911 2.295000 1.250965
v 0.045084 2.295000 1.249154
v -0.395911 2.295000 1.215775
v 0.045084 2.295000 1.213413
v -0.395911 2.295000 1.184541
v 0.045084 2.295000 1.181690
v -0.395911 2.295000 1.152282
v 0.045084 2.295000 1.148926
v -0.395911 2.295000 1.121451
v 0.045084 2.295000 1.117612
v -0.395911 2.295000 1.086651
v 0.045084 2.295000 1.082405
v -0.452081 2.295000 -1.130078
v -0.452081 2.428519 -1.130077
v -0.420724 2.428519 -1.141546
v -0.420724 2.447944 -1.141546
v 0.069898 2.447944 -1.141546
v 0.069898 2.428519 -1.141546
v 0.103474 2.428519 -1.130077
v 0.103474 2.295000 -1.136549
v 0.045084 2.295000 -1.131497
v -0.395911 2.295000 -1.137445
v -0.452081 2.428519 -1.097767
v -0.452081 2.295000 -1.097768
v -0.395911 2.295000 -1.097768
v 0.045084 2.295000 -1.095311
v 0.103474 2.295000 -1.107730
v 0.103474 2.428519 -1.097767
v 0.069898 2.428519 -1.105600
v 0.069898 2.447944 -1.105600
v -0.420724 2.447944 -1.105600
v -0.420724 2.428519 -1.105600
v -0.452081 2.428519 -1.059563
v -0.452081 2.295000 -1.059564
v -0.395911 2.295000 -1.059564
v 0.045084 2.295000 -1.058756
v 0.103474 2.295000 -1.073653
v 0.103474 2.428519 -1.059563
v 0.069898 2.428519 -1.063097
v 0.069898 2.447944 -1.063096
v -0.420724 2.447944 -1.063096
v -0.420724 2.428519 -1.063096
v -0.452081 2.428519 -1.021063
v -0.452081 2.295000 -1.021063
v -0.395911 2.295000 -1.021063
v 0.045084 2.295000 -1.024416
v 0.103474 2.295000 -1.039313
v 0.103474 2.428519 -1.021063
v 0.069898 2.428519 -1.020263
v 0.069898 2.447944 -1.020263
v -0.420724 2.447944 -1.020263
v -0.420724 2.428519 -1.020263
v -0.452081 2.428519 -0.989210
v -0.452081 2.295000 -0.989211
v -0.395911 2.295000 -0.989211
v 0.045084 2.295000 -0.991637
v 0.103474 2.295000 -1.010902
v 0.103474 2.428519 -0.989210
v 0.069898 2.428519 -0.984826
v 0.069898 2.447944 -0.984826
v -0.420724 2.447944 -0.984826
v -0.420724 2.428519 -0.984826
v -0.452081 2.428519 -0.947112
v -0.452081 2.295000 -0.947113
v -0.395911 2.295000 -0.947113
v 0.045084 2.295000 -0.954088
v 0.103474 2.295000 -0.973352
v 0.103474 2.428519 -0.947112
v 0.069898 2.428519 -0.937990
v 0.069898 2.447944 -0.937990
v -0.420724 2.447944 -0.937990
v -0.420724 2.428519 -0.937990
v -0.395911 2.282754 1.250965
v 0.045084 2.282754 1.249154
v -0.395911 2.282754 1.215775
v 0.045084 2.282754 1.213413
v -0.395911 2.282754 1.184541
v 0.045084 2.282754 1.181690
v -0.395911 2.282754 1.152282
v 0.045084 2.282754 1.148926
v -0.395911 2.282754 1.121451
v 0.045084 2.282754 1.117612
v -0.395911 2.282754 1.086651
v 0.045084 2.282754 1.082405
v -0.395911 2.282754 -1.097768
v 0.045084 2.282754 -1.095311
v -0.395911 2.282754 -1.137445
v 0.045084 2.282754 -1.131497
v -0.395911 2.282754 -1.021063
v 0.045084 2.282754 -1.024416
v -0.395911 2.282754 -1.059564
v 0.045084 2.282754 -1.058756
v -0.395911 2.282754 -0.947113
v 0.045084 2.282754 -0.954088
v -0.395911 2.282754 -0.989211
v 0.045084 2.282754 -0.991637
vt -1.864147 1.742157
vt -1.872240 1.742902
vt -1.955930 1.443784
vt -1.951488 1.443675
vt -1.833923 1.832029
vt -1.852071 1.832056
vt -1.954350 1.178319
vt -1.949926 1.178403
vt -1.802457 1.440764
vt -1.771815 1.748611
vt -1.774574 1.835979
vt -1.934619 0.867204
vt -1.928322 0.861976
vt -1.798123 1.181775
vt -1.789789 0.866653
vt -1.922024 0.856747
vt -1.564636 1.743867
vt -1.572727 1.743086
vt -1.484068 1.444993
vt -1.479626 1.445122
vt -1.585199 1.832931
vt -1.603348 1.832823
vt -1.665165 1.749100
vt -1.632486 1.441443
vt -1.484458 1.179717
vt -1.480034 1.179652
vt -1.662967 1.836475
vt -1.636746 1.182449
vt -1.504664 0.863198
vt -1.498390 0.868453
vt -1.643057 0.867251
vt -1.510940 0.857941
vt -1.803640 2.291254
vt -1.771680 1.998994
vt -1.667283 1.999462
vt -1.637795 2.291998
vt -1.771288 1.911504
vt -1.666890 1.911971
vt -1.640643 2.556892
vt -1.806408 2.556148
vt -1.647829 2.868593
vt -1.802021 2.867901
vt -1.795690 2.879257
vt -1.803961 2.873555
vt -1.645939 2.874265
vt -1.654262 2.879892
vt -1.786630 0.742148
vt -1.645202 0.742724
vt -1.663878 1.893882
vt -1.774136 1.893392
vt -3.404940 1.472981
vt -3.404940 1.494628
vt -3.404940 1.506306
vt -3.404940 1.520115
vt -3.404940 1.534030
vt -3.404940 1.545543
vt -3.404940 1.560758
vt -3.404939 1.589941
vt -3.404938 2.390904
vt -3.453197 2.390967
vt -3.453197 1.577304
vt -3.453198 1.551274
vt -3.453198 1.537703
vt -3.453198 1.527434
vt -3.453198 1.515022
vt -3.453198 1.502706
vt -3.453198 1.492289
vt -3.453198 1.472981
vt -3.453198 1.415251
vt -3.404940 1.415251
vt -3.453197 2.401117
vt -3.404938 2.401054
vt -3.404940 1.405101
vt -3.453198 1.405101
vt -3.653995 1.560759
vt -3.653994 1.589942
vt -3.653994 2.390904
vt -3.702252 2.390904
vt -3.702253 1.589942
vt -3.702253 1.560759
vt -3.702253 1.545543
vt -3.702253 1.534030
vt -3.702253 1.520115
vt -3.702253 1.506307
vt -3.702253 1.494629
vt -3.702253 1.472981
vt -3.702253 1.415251
vt -3.653995 1.415251
vt -3.653995 1.472981
vt -3.653995 1.494629
vt -3.653995 1.506306
vt -3.653995 1.520115
vt -3.653995 1.534030
vt -3.653995 1.545543
vt -3.653994 2.401054
vt -3.702252 2.401054
vt -3.702253 1.405101
vt -3.653995 1.405101
vt -3.382401 1.206144
vt -3.382399 1.206093
vt -3.389421 1.206142
vt -3.389421 1.206194
vt -3.383262 1.157893
vt -3.379414 1.206182
vt -3.381715 1.303746
vt -3.381488 1.336212
vt -3.388506 1.336262
vt -3.388734 1.303795
vt -3.388854 1.286867
vt -3.388943 1.274059
vt -3.389052 1.258578
vt -3.389161 1.243217
vt -3.389251 1.230225
vt -3.382230 1.230176
vt -3.382139 1.243167
vt -3.382032 1.258529
vt -3.381923 1.274010
vt -3.381834 1.286818
vt -3.205075 1.204910
vt -3.208061 1.204989
vt -3.204888 1.156651
vt -3.198054 1.204861
vt -3.198055 1.204809
vt -3.205074 1.204858
vt -3.197371 1.302462
vt -3.197143 1.334929
vt -3.204165 1.334978
vt -3.204392 1.302511
vt -3.204510 1.285584
vt -3.204600 1.272776
vt -3.204708 1.257295
vt -3.204815 1.241933
vt -3.204906 1.228941
vt -3.197886 1.228892
vt -3.197795 1.241884
vt -3.197687 1.257246
vt -3.197579 1.272727
vt -3.197489 1.285535
vt -3.195271 2.088429
vt -3.195359 2.101148
vt -3.199802 2.101117
vt -3.199681 2.088398
vt -3.363593 2.100006
vt -3.363517 2.087088
vt -3.359070 2.087115
vt -3.359187 2.100032
vt -3.198942 2.010391
vt -3.199021 2.022050
vt -3.203470 2.022020
vt -3.203341 2.010362
vt -3.367238 2.020920
vt -3.367213 2.009078
vt -3.362752 2.009087
vt -3.362847 2.020930
vt -3.192549 1.930719
vt -3.192840 1.943294
vt -3.197244 1.943192
vt -3.196995 1.930619
vt -3.361085 1.941998
vt -3.360785 1.929276
vt -3.356383 1.929378
vt -3.356637 1.942103
vt -3.355556 1.712260
vt -3.355981 1.697926
vt -3.351567 1.697795
vt -3.351122 1.712128
vt -3.187765 1.694613
vt -3.187373 1.707686
vt -3.191788 1.707819
vt -3.192199 1.694746
vt -3.356325 1.781967
vt -3.356834 1.768061
vt -3.352397 1.767899
vt -3.351915 1.781806
vt -3.188615 1.762873
vt -3.188269 1.775281
vt -3.192679 1.775403
vt -3.193053 1.762997
vt -3.189585 1.844352
vt -3.189740 1.859567
vt -3.194173 1.859523
vt -3.194004 1.844306
vt -3.358001 1.858379
vt -3.357817 1.844809
vt -3.353394 1.844870
vt -3.353572 1.858438
vt -3.633692 1.560758
vt -3.633692 1.589942
vt -3.633692 2.295831
vt -3.633692 2.308409
vt -3.633692 2.319552
vt -3.633692 2.331212
vt -3.633692 2.342501
vt -3.633692 2.355220
vt -3.633692 2.401055
vt -3.643844 2.401054
vt -3.653994 1.560758
vt -3.653994 1.545543
vt -3.653994 1.534030
vt -3.653994 1.520115
vt -3.653994 1.506306
vt -3.653994 1.494629
vt -3.653994 1.472981
vt -3.653994 1.415251
vt -3.643844 1.405101
vt -3.633692 1.405100
vt -3.633692 1.472981
vt -3.633692 1.491966
vt -3.633692 1.506306
vt -3.633692 1.520115
vt -3.633692 1.534030
vt -3.633692 1.545543
vt -3.474301 1.577304
vt -3.474301 2.294296
vt -3.474301 1.558237
vt -3.474301 2.318339
vt -3.474301 2.307021
vt -3.474301 2.341647
vt -3.474301 2.330181
vt -3.474301 2.354565
vt -3.474301 2.401116
vt -3.474301 1.472981
vt -3.474301 1.494115
vt -3.474301 1.405102
vt -3.474301 1.520406
vt -3.474301 1.507194
vt -3.474301 1.544665
vt -3.474301 1.532818
vt -3.453197 1.551274
vt -3.463347 2.401117
vt -3.463347 1.405101
vt -3.453197 1.415251
vt -3.453197 1.472981
vt -3.453197 1.492290
vt -3.453197 1.502706
vt -3.453197 1.515022
vt -3.453197 1.527434
vt -3.453197 1.537703
vt -3.465330 1.295547
vt -3.465329 1.271464
vt -3.465328 1.258471
vt -3.465328 1.243109
vt -3.465327 1.227628
vt -3.465327 1.214820
vt -3.465326 1.197892
vt -3.465325 1.165424
vt -3.474265 0.360893
vt -3.463311 0.360893
vt -3.453162 0.371044
vt -3.453190 1.172006
vt -3.453191 1.201189
vt -3.453191 1.216405
vt -3.453192 1.227917
vt -3.453192 1.241833
vt -3.453193 1.255641
vt -3.453193 1.267319
vt -3.453194 1.288966
vt -3.453196 1.346696
vt -3.463346 1.356846
vt -3.474300 1.356845
vt -3.642653 1.165418
vt -3.633656 0.360887
vt -3.633691 1.356840
vt -3.642657 1.295541
vt -3.653987 1.201182
vt -3.653986 1.171999
vt -3.653959 0.371036
vt -3.643808 0.360887
vt -3.642654 1.197885
vt -3.642654 1.214813
vt -3.642655 1.227622
vt -3.642655 1.243103
vt -3.642656 1.258465
vt -3.642656 1.271457
vt -3.643843 1.356840
vt -3.653993 1.346689
vt -3.653991 1.288959
vt -3.653990 1.267312
vt -3.653989 1.255634
vt -3.653989 1.241826
vt -3.653988 1.227910
vt -3.653988 1.216398
vt -3.636685 1.295489
vt -3.471302 1.295495
vt -3.643862 2.449311
vt -3.643844 2.401053
vt -3.633710 2.449315
vt -3.474319 2.449373
vt -3.463347 2.401119
vt -3.463365 2.449377
vt -3.643844 1.405099
vt -3.643843 1.356840
vt -3.463346 1.356845
vt -3.463347 1.405104
vt -3.204118 1.341998
vt -3.381442 1.343233
vt -3.359014 2.082690
vt -3.199628 2.083971
vt -3.199850 2.105543
vt -3.359237 2.104457
vt -3.362686 2.004661
vt -3.203300 2.005936
vt -3.203524 2.026443
vt -3.362911 2.025357
vt -3.356347 1.924950
vt -3.196961 1.926195
vt -3.197256 1.947617
vt -3.356643 1.946531
vt -3.191659 1.712242
vt -3.350991 1.716554
vt -3.351658 1.693372
vt -3.192297 1.690319
vt -3.192488 1.779826
vt -3.351750 1.786228
vt -3.352519 1.763473
vt -3.193204 1.758575
vt -3.353408 1.840449
vt -3.194019 1.839875
vt -3.194211 1.863950
vt -3.353598 1.862863
vt -2.876010 1.569238
vt -2.864682 1.546909
vt -2.844954 1.531490
vt -2.649036 1.438176
vt -2.649430 1.934366
vt -2.833287 1.823856
vt -2.876802 1.594264
vt -2.260519 1.547389
vt -2.249226 1.569736
vt -2.248474 1.594763
vt -2.292354 1.824286
vt -2.476386 1.934500
vt -2.475991 1.438313
vt -2.280221 1.531938
vt -2.857817 1.278944
vt -2.859674 1.281729
vt -2.815786 1.052208
vt -2.827928 1.344555
vt -2.631750 0.941996
vt -2.632162 1.438188
vt -2.309613 1.052629
vt -2.266106 1.282222
vt -2.267959 1.279434
vt -2.297956 1.344995
vt -2.493465 0.942111
vt -2.493878 1.438300
vt -2.649430 2.044861
vt -2.632556 2.044861
vt -2.632556 2.274418
vt -2.649430 2.274418
vt -2.649430 1.934497
vt -2.632556 1.934497
vt -2.632556 2.299445
vt -2.632556 2.321783
vt -2.632556 2.337219
vt -2.649430 2.337217
vt -2.649430 2.321783
vt -2.649430 2.299445
vt -2.494271 2.321783
vt -2.494271 2.337215
vt -2.494271 2.274418
vt -2.494271 2.299445
vt -2.476386 2.299445
vt -2.476386 2.321783
vt -2.476386 2.337221
vt -2.476386 2.274418
vt -2.632556 2.271632
vt -2.494271 2.271632
vt -2.494271 2.044861
vt -2.476386 2.044861
vt -2.494271 1.934493
vt -2.632556 1.934380
vt -2.632595 2.533064
vt -2.649469 2.533061
vt -2.494403 2.533056
vt -2.476517 2.533068
vt -0.729629 1.139404
vt -0.717713 1.139359
vt -0.705847 1.139315
vt -0.705704 1.177116
vt -0.717570 1.177161
vt -0.729486 1.177206
vt -0.756855 1.177309
vt -0.835221 1.177605
vt -0.835364 1.139804
vt -0.756998 1.139508
vt -0.725865 2.135413
vt -0.753234 2.135516
vt -0.831600 2.135813
vt -0.834842 1.278082
vt -0.834988 1.239326
vt -0.717337 1.238882
vt -0.717190 1.277638
vt -0.713949 2.135368
vt -0.756458 1.282458
vt -0.751002 1.277766
vt -0.734580 1.277704
vt -0.729089 1.282355
vt -0.724435 1.277666
vt -0.729131 1.272210
vt -0.729229 1.244401
vt -0.724582 1.238910
vt -0.729271 1.234256
vt -0.734726 1.238948
vt -0.751149 1.239010
vt -0.756640 1.234359
vt -0.761294 1.239048
vt -0.756601 1.244504
vt -0.756496 1.272313
vt -0.761147 1.277804
vt -1.082719 1.178541
vt -1.094636 1.178586
vt -1.106502 1.178631
vt -1.106644 1.140829
vt -1.094778 1.140784
vt -1.082862 1.140739
vt -1.055493 1.140636
vt -0.977127 1.140340
vt -0.976984 1.178141
vt -1.055351 1.178437
vt -1.051729 2.136645
vt -1.079098 2.136748
vt -1.091015 2.136793
vt -1.094256 1.279063
vt -1.094402 1.240307
vt -0.976751 1.239862
vt -0.976604 1.278618
vt -0.973363 2.136348
vt -1.082322 1.283690
vt -1.076866 1.278998
vt -1.060444 1.278935
vt -1.054953 1.283586
vt -1.050299 1.278897
vt -1.054991 1.273441
vt -1.055096 1.245632
vt -1.050445 1.240141
vt -1.055135 1.235487
vt -1.060590 1.240179
vt -1.077013 1.240241
vt -1.082504 1.235590
vt -1.087157 1.240280
vt -1.082463 1.245735
vt -1.082362 1.273545
vt -1.087011 1.279036
vt -0.927208 1.026993
vt -0.927249 1.015076
vt -0.927290 1.003209
vt -0.922693 1.003195
vt -0.922652 1.015060
vt -0.922611 1.026977
vt -0.922518 1.054346
vt -0.922250 1.132712
vt -0.926847 1.132728
vt -0.927115 1.054362
vt -0.893847 1.026862
vt -0.893892 1.014946
vt -0.893936 1.003079
vt -0.889338 1.003062
vt -0.889294 1.014928
vt -0.889250 1.026845
vt -0.889149 1.054214
vt -0.888858 1.132580
vt -0.893455 1.132597
vt -0.893746 1.054231
vt -0.754056 1.277767
vt -0.759547 1.272312
vt -0.759643 1.244503
vt -0.754187 1.239006
vt -0.737765 1.238961
vt -0.732273 1.244411
vt -0.732180 1.272220
vt -0.737634 1.277712
vt -1.057546 1.240182
vt -1.052059 1.245641
vt -1.051970 1.273451
vt -1.057429 1.278944
vt -1.073851 1.278988
vt -1.079338 1.273534
vt -1.079429 1.245725
vt -1.073969 1.240238
vt -0.873500 1.139953
vt -0.885069 2.136015
vt -0.923019 2.136158
vt -0.942117 1.140203
vt -1.141358 2.136983
vt -1.179312 2.136203
vt -1.232777 2.137329
vt -1.236019 1.279599
vt -1.236165 1.240843
vt -1.236398 1.179121
vt -1.182931 1.178674
vt -1.144979 1.178776
vt -0.835870 1.002865
vt -0.889477 0.965260
vt -0.836008 0.965062
vt -0.889355 0.998464
vt -0.889477 0.965267
vt -0.927306 0.998603
vt -0.927427 0.965406
vt -0.927427 0.965401
vt -0.977634 1.003386
vt -0.977771 0.965588
vt -0.942160 1.128175
vt -0.873543 1.127927
vt -0.762592 1.272323
vt -0.762691 1.244514
vt -0.762572 1.277796
vt -0.759526 1.277786
vt -0.762711 1.239040
vt -0.759664 1.239030
vt -0.729244 1.238927
vt -0.732290 1.238937
vt -0.729116 1.277683
vt -0.732162 1.277693
vt -1.049031 1.245631
vt -1.048938 1.273441
vt -1.049050 1.240158
vt -1.052079 1.240168
vt -1.048920 1.278914
vt -1.051950 1.278924
vt -1.082345 1.279018
vt -1.079315 1.279007
vt -1.082481 1.240262
vt -1.079451 1.240252
vt -0.835826 1.014730
vt -0.835782 1.026647
vt -0.835680 1.054016
vt -0.835390 1.132382
vt -0.889521 0.953394
vt -0.836053 0.953194
vt -0.927472 0.953535
vt -0.977815 0.953723
vt -0.977552 1.027165
vt -0.977593 1.015249
vt -0.977190 1.132900
vt -0.977459 1.054534
vt -0.927218 1.022387
vt -0.927262 1.010470
vt -0.889311 1.010329
vt -0.889267 1.022246
vt -0.889166 1.049615
vt -0.927116 1.049755
vt -0.754194 1.235955
vt -0.737771 1.235919
vt -0.737624 1.280758
vt -0.754046 1.280814
vt -1.057422 1.281976
vt -1.073844 1.282015
vt -1.073980 1.237211
vt -1.057557 1.237149
vn 0.000000 0.000000 1.000000
vn 0.000000 0.000000 1.000000
vn -0.000186 0.000613 1.000000
vn -0.000186 0.000613 1.000000
vn 0.000000 0.000000 -1.000000
vn 0.000000 0.000000 -1.000000
vn 0.000000 0.000000 -1.000000
vn 0.000000 0.000000 -1.000000
vn -0.000000 -1.000000 0.000000
vn -0.000000 -1.000000 0.000000
vn -0.000000 -1.000000 0.000000
vn -0.000000 -1.000000 -0.000000
vn -0.000000 -1.000000 -0.000000
vn -0.000000 -1.000000 0.000000
vn -0.000000 -1.000000 0.000000
vn -0.000000 -1.000000 0.000000
vn -0.000000 -1.000000 0.000000
vn -0.000000 -1.000000 0.000000
vn -0.000000 -1.000000 0.000000
vn -0.000000 -1.000000 0.000000
vn -0.000000 -1.000000 0.000000
vn -0.000000 -1.000000 0.000000
vn -0.000000 -1.000000 0.000000
vn -0.000000 -1.000000 0.000000
vn -0.000000 -1.000000 0.000000
vn -0.000000 -1.000000 0.000000
vn -0.000000 -1.000000 0.000000
vn -0.000000 -1.000000 0.000000
vn -0.000000 -1.000000 0.000000
vn -0.000000 -1.000000 0.000000
vn -0.000000 -1.000000 0.000000
vn -0.000000 -1.000000 0.000000
vn -0.000000 -1.000000 0.000000
vn -0.000000 -1.000000 0.000000
vn -0.000000 -1.000000 0.000000
vn -0.000000 -1.000000 0.000000
vn 1.000000 -0.000000 0.000000
vn 1.000000 -0.000000 0.000000
vn 1.000000 -0.000000 0.000000
vn 1.000000 -0.000000 0.000000
vn 1.000000 -0.000000 0.000000
vn 1.000000 -0.000000 0.000000
vn 1.000000 -0.000000 0.000000
vn 1.000000 -0.000000 0.000000
vn 1.000000 -0.000000 0.000000
vn 1.000000 -0.000000 0.000000
vn 1.000000 -0.000000 0.000000
vn 1.000000 -0.000000 0.000000
vn 1.000000 -0.000000 0.000000
vn 1.000000 -0.000000 0.000000
vn 1.000000 -0.000000 0.000000
vn 1.000000 -0.000000 0.000000
vn 1.000000 -0.000000 0.000000
vn 1.000000 -0.000000 0.000000
vn 1.000000 -0.000000 0.000000
vn 1.000000 -0.000000 0.000000
vn -1.000000 -0.000000 0.000000
vn -1.000000 -0.000000 0.000000
vn -1.000000 -0.000000 0.000000
vn -1.000000 -0.000000 0.000000
vn -1.000000 -0.000000 0.000000
vn -1.000000 -0.000000 0.000000
vn -1.000000 -0.000000 0.000000
vn -1.000000 -0.000000 0.000000
vn -1.000000 -0.000000 0.000000
vn -1.000000 -0.000000 0.000000
vn -1.000000 -0.000000 0.000000
vn -1.000000 -0.000000 0.000000
vn -1.000000 -0.000000 0.000000
vn -1.000000 -0.000000 0.000000
vn -1.000000 -0.000000 0.000000
vn -1.000000 -0.000000 0.000000
vn -1.000000 -0.000000 0.000000
vn -1.000000 -0.000000 0.000000
vn -1.000000 -0.000000 0.000000
vn -1.000000 -0.000000 0.000000
vn -0.000185 0.000694 1.000000
vn -0.000185 0.000694 1.000000
vn 0.000000 0.001304 0.999999
vn 0.000000 0.001304 0.999999
vn 0.000000 1.000000 0.000000
vn 0.000000 1.000000 0.000000
vn 0.000000 1.000000 0.000000
vn 0.000000 1.000000 0.000000
vn 0.000000 1.000000 0.000000
vn 0.000000 1.000000 0.000000
vn 0.000000 1.000000 0.000000
vn 0.000000 1.000000 0.000000
vn 0.000000 1.000000 0.000000
vn 0.000000 1.000000 0.000000
vn 0.000000 1.000000 0.000000
vn 0.000000 1.000000 0.000000
vn 0.000000 1.000000 0.000000
vn 0.000000 1.000000 0.000000
vn 0.000000 1.000000 0.000000
vn 0.000000 1.000000 0.000000
vn 0.000000 1.000000 0.000000
vn 0.000000 1.000000 0.000000
vn 0.000000 1.000000 0.000000
vn 0.000000 1.000000 0.000000
vn 0.000000 1.000000 0.000000
vn 0.000000 1.000000 0.000000
vn 0.000000 0.000000 -1.000000
vn 0.000000 0.000000 -1.000000
vn 0.000000 0.000000 -1.000000
vn 0.000000 0.000000 -1.000000
vn 0.000000 -1.000000 0.000000
vn 0.000000 -1.000000 0.000000
vn 0.000000 -1.000000 0.000000
vn 0.000000 -1.000000 0.000000
vn 0.000000 -1.000000 0.000000
vn 0.000000 -1.000000 0.000000
vn 0.000000 -1.000000 0.000000
vn 0.000000 -1.000000 0.000000
vn 0.000000 -1.000000 -0.000000
vn 0.000000 -1.000000 -0.000000
vn 0.000000 -1.000000 0.000000
vn 0.000000 -1.000000 0.000000
vn 0.000000 -1.000000 0.000000
vn 0.000000 -1.000000 0.000000
vn 0.000000 -1.000000 0.000000
vn 0.000000 -1.000000 0.000000
vn 0.000000 -1.000000 0.000000
vn 0.000000 -1.000000 0.000000
vn 0.000000 -1.000000 0.000000
vn 0.000000 -1.000000 0.000000
vn 0.000000 -1.000000 0.000000
vn 0.000000 -1.000000 0.000000
vn 0.000000 -1.000000 0.000000
vn 0.000000 -1.000000 0.000000
vn 0.000000 -1.000000 0.000000
vn 0.000000 -1.000000 0.000000
vn 0.000000 -1.000000 0.000000
vn 0.000000 -1.000000 0.000000
vn 0.000000 1.000000 0.000000
vn 0.000000 1.000000 0.000000
vn 0.000000 1.000000 0.000000
vn 0.000000 1.000000 0.000000
vn 0.000000 0.000000 1.000000
vn 0.000000 0.000000 1.000000
vn 0.000000 0.000000 1.000000
vn 0.000000 0.000000 1.000000
vn 0.000000 0.989607 -0.143799
vn 0.000000 0.989607 -0.143799
vn 0.000000 0.989607 -0.143799
vn 0.000000 0.989607 -0.143799
vn 0.000000 0.514488 0.857498
vn 0.000000 0.514488 0.857498
vn 0.000000 0.514488 0.857498
vn 0.000000 0.514488 0.857498
vn -0.000001 0.982360 0.186998
vn -0.000001 0.982360 0.186998
vn -0.000001 0.955655 -0.294488
vn -0.000001 0.999173 0.040671
vn -0.000000 0.565952 -0.824438
vn -0.000000 0.808574 -0.588395
vn 0.000000 0.430723 -0.902484
vn 0.000000 0.430723 -0.902484
vn 0.000000 -1.000000 0.000000
vn 0.000000 -1.000000 0.000000
vn 0.000000 -1.000000 0.000000
vn 0.000000 -1.000000 0.000000
vn 0.000000 0.000000 -1.000000
vn 0.000000 0.000000 -1.000000
vn 0.000000 0.000000 -1.000000
vn 0.000000 0.000000 -1.000000
vn 0.000000 -0.995462 -0.095156
vn 0.000000 -0.995430 -0.095495
vn 0.000000 -0.981577 -0.191067
vn 0.000000 -0.981577 -0.191067
vn 0.000000 -0.995771 -0.091875
vn 0.000000 -0.995771 -0.091875
vn 0.000000 -0.998624 -0.052442
vn 0.000000 -0.998615 -0.052608
vn 0.000000 1.000000 0.000000
vn 0.000000 1.000000 0.000000
vn 0.000000 1.000000 0.000000
vn 0.000000 1.000000 0.000000
vn 0.000000 1.000000 0.000000
vn 0.000000 1.000000 0.000000
vn 0.000000 1.000000 0.000000
vn 0.000000 1.000000 0.000000
vn 0.000000 1.000000 0.000000
vn 0.000000 1.000000 0.000000
vn 0.000000 1.000000 0.000000
vn 0.000000 1.000000 0.000000
vn 0.000000 1.000000 0.000000
vn 0.000000 1.000000 0.000000
vn 0.000000 -1.000000 0.000000
vn 0.000000 -1.000000 0.000000
vn 0.000000 -1.000000 0.000000
vn 0.000000 -1.000000 0.000000
vn 0.000000 -1.000000 0.000000
vn 0.000000 -1.000000 0.000000
vn 0.000000 -1.000000 0.000000
vn 0.000000 -1.000000 0.000000
vn 0.000000 -1.000000 0.000000
vn 0.000000 -1.000000 0.000000
vn 0.000000 -1.000000 0.000000
vn 0.000000 -1.000000 0.000000
vn -1.000000 -0.000000 0.000000
vn -1.000000 -0.000000 0.000000
vn -1.000000 -0.000000 0.000000
vn -1.000000 -0.000000 0.000000
vn -1.000000 -0.000000 0.000000
vn -1.000000 -0.000000 0.000000
vn -1.000000 -0.000000 0.000000
vn -1.000000 -0.000000 0.000000
vn -1.000000 -0.000000 0.000000
vn -1.000000 -0.000000 0.000000
vn 0.000000 -1.000000 0.000000
vn 0.000000 -1.000000 0.000000
vn 0.000000 -1.000000 0.000000
vn 0.000000 -1.000000 0.000000
vn 0.000000 0.000000 -1.000000
vn 0.000000 0.000000 -1.000000
vn 0.000000 0.000000 -1.000000
vn 0.000000 0.000000 -1.000000
vn 0.000000 0.000000 -1.000000
vn 0.000000 0.000000 -1.000000
vn 0.000000 0.000000 -1.000000
vn 0.000000 0.000000 -1.000000
vn 0.000000 0.000000 -1.000000
vn 0.000000 0.000000 -1.000000
vn 1.000000 0.000000 0.000000
vn 1.000000 0.000000 0.000000
vn 1.000000 0.000000 0.000000
vn 1.000000 0.000000 0.000000
vn 1.000000 0.000000 0.000000
vn 1.000000 0.000000 0.000000
vn 1.000000 0.000000 0.000000
vn 1.000000 0.000000 0.000000
vn 1.000000 0.000000 0.000000
vn 1.000000 0.000000 0.000000
vn 0.000000 0.010373 0.999946
vn 0.000000 0.010373 0.999946
vn 0.002302 0.010373 0.999944
vn 0.002302 0.010373 0.999944
vn 0.000000 0.000000 -1.000000
vn 0.000000 0.000000 -1.000000
vn 0.000000 0.000000 -1.000000
vn 0.000000 0.000000 -1.000000
vn 0.000000 0.000000 -1.000000
vn 0.000000 0.000000 -1.000000
vn 0.000000 0.000000 -1.000000
vn 0.000000 0.000000 -1.000000
vn 0.000000 0.000000 -1.000000
vn 0.000000 0.000000 -1.000000
vn 0.000000 -1.000000 0.000000
vn 0.000000 -1.000000 0.000000
vn 0.000000 -1.000000 0.000000
vn 0.000000 -1.000000 0.000000
vn 0.000000 0.000000 1.000000
vn -0.001394 0.004459 0.999989
vn -0.001394 0.004459 0.999989
vn 0.000000 0.000000 1.000000
vn 0.000000 0.000000 -1.000000
vn 0.000000 0.000000 -1.000000
vn 0.000000 0.000000 -1.000000
vn 0.000000 0.000000 -1.000000
vn 0.000000 0.000000 -1.000000
vn 0.000000 0.000000 -1.000000
vn 0.000000 0.000000 -1.000000
vn 0.000000 0.000000 -1.000000
vn 0.000000 0.000000 -1.000000
vn 0.000000 0.000000 -1.000000
vn 0.000000 -1.000000 0.000000
vn 0.000000 -1.000000 0.000000
vn 0.000000 -1.000000 0.000000
vn 0.000000 -1.000000 0.000000
vn 0.000000 -1.000000 0.000000
vn 0.000000 -1.000000 0.000000
vn 0.000000 -1.000000 0.000000
vn 0.000000 -1.000000 0.000000
vn -1.000000 0.000000 0.000000
vn -1.000000 0.000000 0.000000
vn -1.000000 0.000000 0.000000
vn -1.000000 0.000000 0.000000
vn -1.000000 0.000000 0.000000
vn -1.000000 0.000000 0.000000
vn -1.000000 0.000000 0.000000
vn -1.000000 0.000000 0.000000
vn -1.000000 0.000000 0.000000
vn -1.000000 0.000000 0.000000
vn 1.000000 0.000000 0.000000
vn 1.000000 0.000000 0.000000
vn 1.000000 0.000000 0.000000
vn 1.000000 0.000000 0.000000
vn 1.000000 0.000000 0.000000
vn 1.000000 0.000000 0.000000
vn 1.000000 0.000000 0.000000
vn 1.000000 0.000000 0.000000
vn 1.000000 0.000000 0.000000
vn 1.000000 0.000000 0.000000
vn 0.000000 -0.000000 0.000000
vn 0.000000 -0.000000 0.000000
vn 0.000000 -0.000000 0.000000
vn 0.000000 -0.000000 0.000000
vn 0.000000 -1.000000 0.000000
vn 0.000000 -1.000000 0.000000
vn 0.000000 -1.000000 0.000000
vn 0.000000 -1.000000 0.000000
vn -0.000000 0.691934 -0.721961
vn -0.000000 0.691934 -0.721961
vn -0.000000 0.691934 -0.721961
vn -0.000000 0.691934 -0.721961
vn -0.000000 0.691934 -0.721961
vn -0.000000 0.691934 -0.721961
vn 0.000000 1.000000 0.000433
vn 0.000000 1.000000 0.000433
vn 0.000000 1.000000 0.000433
vn 0.000000 1.000000 0.000433
vn 0.970514 0.000001 -0.241044
vn 0.970514 0.000001 -0.241044
vn 0.970514 0.000001 -0.241044
vn 0.970514 0.000001 -0.241044
vn 0.970514 0.000001 -0.241044
vn 0.970514 0.000001 -0.241044
vn -0.970514 0.000003 -0.241044
vn -0.970514 0.000003 -0.241044
vn -0.970514 0.000003 -0.241044
vn -0.970514 0.000003 -0.241044
vn -0.970514 0.000003 -0.241044
vn -0.970514 0.000003 -0.241044
vn 0.000000 -1.000000 0.000000
vn 0.000000 -1.000000 0.000000
vn 0.000000 -1.000000 0.000000
vn 0.000000 -1.000000 0.000000
vn -0.707106 0.000000 -0.707108
vn -0.707106 0.000000 -0.707108
vn -0.707106 0.000000 -0.707108
vn -0.707106 0.000000 -0.707108
vn 0.707106 0.000000 -0.707107
vn 0.707106 0.000000 -0.707107
vn 0.707106 0.000000 -0.707107
vn 0.707106 0.000000 -0.707107
vn -1.000000 0.000000 0.000000
vn -1.000000 0.000000 0.000000
vn -1.000000 0.000000 0.000000
vn -1.000000 0.000000 0.000000
vn -1.000000 0.000000 0.000000
vn -1.000000 0.000000 0.000000
vn -1.000000 0.000000 0.000000
vn -1.000000 0.000000 0.000000
vn -1.000000 0.000000 0.000000
vn -1.000000 0.000000 0.000000
vn -1.000000 0.000000 0.000000
vn -1.000000 0.000000 0.000000
vn -1.000000 0.000000 0.000000
vn -1.000000 0.000000 0.000000
vn -1.000000 0.000000 0.000000
vn -1.000000 0.000000 0.000000
vn -1.000000 0.000000 0.000000
vn -1.000000 0.000000 0.000000
vn -1.000000 0.000000 0.000000
vn -1.000000 0.000000 0.000000
vn -1.000000 0.000000 0.000000
vn -1.000000 0.000000 0.000000
vn -1.000000 0.000000 0.000000
vn -1.000000 0.000000 0.000000
vn 1.000000 0.000000 0.000000
vn 1.000000 0.000000 0.000000
vn 1.000000 0.000000 0.000000
vn 1.000000 0.000000 0.000000
vn 1.000000 0.000000 0.000000
vn 1.000000 0.000000 0.000000
vn 1.000000 0.000000 0.000000
vn 1.000000 0.000000 0.000000
vn 1.000000 0.000000 0.000000
vn 1.000000 0.000000 0.000000
vn 1.000000 -0.000000 0.000000
vn 1.000000 -0.000000 0.000000
vn 1.000000 -0.000000 0.000000
vn 1.000000 -0.000000 0.000000
vn 1.000000 0.000000 0.000000
vn 1.000000 0.000000 0.000000
vn 1.000000 0.000000 0.000000
vn 1.000000 0.000000 0.000000
vn 1.000000 0.000000 0.000000
vn 1.000000 0.000000 0.000000
vn 1.000000 0.000000 0.000000
vn 1.000000 0.000000 0.000000
vn 1.000000 0.000000 0.000000
vn 1.000000 0.000000 0.000000
vn 0.000000 -1.000000 0.000000
vn 0.000000 -1.000000 0.000000
vn 0.000000 -1.000000 0.000000
vn 0.000000 -1.000000 0.000000
vn 0.000000 0.000004 1.000000
vn 0.000000 0.000004 1.000000
vn 0.000000 0.000004 1.000000
vn 0.000000 0.000004 1.000000
vn 0.000000 1.000000 0.000000
vn 0.000000 1.000000 0.000000
vn 0.000000 1.000000 0.000000
vn 0.000000 1.000000 0.000000
vn 0.000000 -0.000004 -1.000000
vn 0.000000 -0.000004 -1.000000
vn 0.000000 -0.000004 -1.000000
vn 0.000000 -0.000004 -1.000000
vn 0.000000 -1.000000 0.000000
vn 0.000000 -1.000000 0.000000
vn 0.000000 -1.000000 0.000000
vn 0.000000 -1.000000 0.000000
vn 0.000000 -0.000004 -1.000000
vn 0.000000 -0.000004 -1.000000
vn 0.000000 -0.000004 -1.000000
vn 0.000000 -0.000004 -1.000000
vn 0.000000 1.000000 0.000000
vn 0.000000 1.000000 0.000000
vn 0.000000 1.000000 0.000000
vn 0.000000 1.000000 0.000000
vn 0.000000 0.000004 1.000000
vn 0.000000 0.000004 1.000000
vn 0.000000 0.000004 1.000000
vn 0.000000 0.000004 1.000000
vn -1.000000 -0.000000 0.000000
vn -1.000000 -0.000000 0.000000
vn -1.000000 -0.000000 0.000000
vn -1.000000 -0.000000 0.000000
vn -1.000000 -0.000000 0.000000
vn -1.000000 -0.000000 0.000000
vn -1.000000 -0.000000 0.000000
vn -1.000000 -0.000000 0.000000
vn 1.000000 -0.000000 0.000000
vn 1.000000 -0.000000 0.000000
vn 1.000000 -0.000000 0.000000
vn 1.000000 -0.000000 0.000000
vn 1.000000 -0.000000 0.000000
vn 1.000000 -0.000000 0.000000
vn 1.000000 -0.000000 0.000000
vn 1.000000 -0.000000 0.000000
vn 0.000000 -0.707108 -0.707106
vn 0.000000 -0.707108 -0.707106
vn 0.000000 -0.707108 -0.707106
vn 0.000000 -0.707108 -0.707106
vn 0.000000 -0.707108 0.707106
vn 0.000000 -0.707108 0.707106
vn 0.000000 -0.707108 0.707106
vn 0.000000 -0.707108 0.707106
vn 0.000000 0.707108 0.707106
vn 0.000000 0.707108 0.707106
vn 0.000000 0.707108 0.707106
vn 0.000000 0.707108 0.707106
vn 0.000000 0.707108 -0.707106
vn 0.000000 0.707108 -0.707106
vn 0.000000 0.707108 -0.707106
vn 0.000000 0.707108 -0.707106
vn 0.000000 -0.707107 0.707106
vn 0.000000 -0.707107 0.707106
vn 0.000000 -0.707107 0.707106
vn 0.000000 -0.707107 0.707106
vn 0.000000 -0.707109 -0.707104
vn 0.000000 -0.707109 -0.707104
vn 0.000000 -0.707109 -0.707104
vn 0.000000 -0.707109 -0.707104
vn 0.000000 0.707106 -0.707107
vn 0.000000 0.707106 -0.707107
vn 0.000000 0.707106 -0.707107
vn 0.000000 0.707106 -0.707107
vn 0.000000 0.707108 0.707106
vn 0.000000 0.707108 0.707106
vn 0.000000 0.707108 0.707106
vn 0.000000 0.707108 0.707106
vn 0.000000 1.000000 0.000000
vn 0.000000 1.000000 0.000000
vn 0.000000 1.000000 0.000000
vn 0.000000 1.000000 0.000000
vn 0.000000 1.000000 0.000000
vn 0.000000 1.000000 0.000000
vn 0.000000 1.000000 0.000000
vn 0.000000 1.000000 0.000000
vn 0.000000 1.000000 0.000000
vn 0.000000 1.000000 0.000000
vn 0.000000 1.000000 0.000000
vn 0.000000 1.000000 0.000000
vn 0.000000 1.000000 0.000000
vn 0.000000 1.000000 0.000000
vn 0.000000 1.000000 0.000000
vn 0.000000 1.000000 0.000000
vn 0.000000 1.000000 0.000000
vn 0.000000 1.000000 0.000000
vn -0.707106 0.000000 0.707108
vn -0.707106 0.000000 0.707108
vn -0.707106 0.000000 0.707108
vn -0.707106 0.000000 0.707108
vn 0.707106 0.000922 0.707107
vn 0.707106 0.000922 0.707107
vn 0.707106 0.000922 0.707107
vn 0.707106 0.000922 0.707107
vn -0.886717 0.396335 0.238016
vn -0.886717 0.396335 0.238016
vn -0.844291 0.512201 0.157552
vn -0.848657 0.502681 0.164601
vn -0.812207 0.583226 0.012937
vn -0.812580 0.582713 0.012651
vn 0.886649 0.396236 0.238434
vn 0.886649 0.396236 0.238434
vn 0.849186 0.502829 0.161388
vn 0.844588 0.512925 0.153554
vn 0.812389 0.583053 0.008598
vn 0.812246 0.583251 0.008691
vn -0.848013 0.529731 -0.016084
vn -0.848013 0.529731 -0.016084
vn 0.848014 0.529729 -0.016084
vn 0.848014 0.529729 -0.016084
vn 0.000000 0.980745 0.195291
vn 0.000000 0.941390 0.337320
vn 0.000000 0.941390 0.337320
vn 0.000000 0.980644 0.195801
vn 0.995931 -0.030215 0.084901
vn 0.998641 -0.025213 0.045614
vn 0.998792 -0.024804 0.042412
vn 0.995931 -0.030215 0.084901
vn -0.998479 -0.025005 0.049127
vn -0.998335 -0.025368 0.051804
vn -0.995973 -0.029795 0.084558
vn -0.995973 -0.029795 0.084558
vn -0.998322 -0.026506 -0.051482
vn -0.999551 -0.024108 -0.017775
vn -0.999561 -0.024073 -0.017293
vn -0.998322 -0.026506 -0.051482
vn -0.998322 -0.026506 -0.051482
vn 0.999453 -0.023744 -0.023008
vn 0.999443 -0.023783 -0.023410
vn 0.998322 -0.026506 -0.051482
vn 0.998322 -0.026506 -0.051482
vn 0.998322 -0.026506 -0.051482
vn 0.000000 0.999390 0.034931
vn 0.000000 0.999386 0.035042
vn 0.000000 0.999969 0.007921
vn 0.000000 0.999969 0.007921
vn -0.000000 0.892157 -0.451726
vn -0.000000 0.892157 -0.451726
vn -0.000001 0.892157 -0.451725
vn -0.000001 0.892157 -0.451725
vn -1.000000 -0.000000 0.000000
vn -1.000000 -0.000000 0.000000
vn -1.000000 -0.000000 0.000000
vn -1.000000 -0.000000 0.000000
vn -1.000000 -0.000000 0.000000
vn -1.000000 -0.000000 0.000000
vn -1.000000 -0.000000 0.000000
vn 1.000000 0.000000 0.000000
vn 1.000000 0.000000 0.000000
vn 1.000000 0.000000 0.000000
vn 1.000000 0.000000 0.000000
vn 1.000000 0.000000 0.000000
vn 1.000000 0.000000 0.000000
vn 1.000000 0.000000 0.000000
vn 0.000000 0.514488 0.857498
vn 0.000000 0.514488 0.857498
vn 0.000000 0.514488 0.857498
vn 0.000000 0.514488 0.857498
vn 0.000000 0.957632 -0.287994
vn 0.000000 0.982360 0.186998
vn 0.000000 0.982360 0.186998
vn 0.000000 0.999173 0.040671
vn 0.000001 0.892157 -0.451725
vn 0.000001 0.892157 -0.451725
vn 0.000000 0.565952 -0.824438
vn 0.000000 0.804711 -0.593666
vn 0.000000 0.892157 -0.451726
vn 0.000000 0.892157 -0.451726
vn 0.000000 0.430723 -0.902484
vn 0.000000 0.430723 -0.902484
vn 0.000000 -1.000000 0.000000
vn 0.000000 -1.000000 0.000000
vn 0.000000 -1.000000 0.000000
vn 0.000000 -1.000000 0.000000
vn 1.000000 -0.000001 0.000000
vn 1.000000 -0.000001 0.000000
vn 1.000000 -0.000001 0.000000
vn 1.000000 -0.000001 0.000000
vn -1.000000 0.000000 0.000000
vn -1.000000 0.000000 0.000000
vn -1.000000 0.000000 0.000000
vn -1.000000 0.000000 0.000000
vn 0.000000 0.832504 0.554019
vn 0.000000 0.832504 0.554019
vn 0.000000 0.832504 0.554019
vn 0.000000 0.832504 0.554019
vn 0.000002 -0.006684 0.999978
vn 0.000002 -0.006684 0.999978
vn 0.000002 -0.006684 0.999978
vn 0.000002 -0.006684 0.999978
vn 0.000002 -0.006684 0.999978
vn 0.000002 -0.006684 0.999978
vn 1.000000 0.000000 0.000000
vn 1.000000 0.000000 0.000000
vn 1.000000 0.000000 0.000000
vn 1.000000 0.000000 0.000000
vn -1.000000 -0.000000 0.000000
vn -1.000000 -0.000000 0.000000
vn -1.000000 -0.000000 0.000000
vn -1.000000 -0.000000 0.000000
vn 0.000000 1.000000 0.000000
vn 0.000000 1.000000 0.000000
vn 0.000000 1.000000 0.000000
vn 0.000000 1.000000 0.000000
vn 0.999999 -0.001311 -0.000271
vn 0.999999 -0.001311 -0.000271
vn 0.999999 -0.001311 -0.000271
vn 0.999999 -0.001311 -0.000271
vn 0.974521 0.211030 0.075992
vn 0.974521 0.211030 0.075992
vn 0.974521 0.211030 0.075992
vn 0.974521 0.211030 0.075992
vn 0.000000 0.957168 0.289535
vn 0.000000 0.957168 0.289535
vn 0.000000 0.957168 0.289535
vn 0.000000 0.957168 0.289535
vn -0.974552 0.210906 0.075947
vn -0.974552 0.210905 0.075947
vn -0.974552 0.210906 0.075947
vn -0.974552 0.210906 0.075947
vn -1.000000 -0.000820 -0.000169
vn -1.000000 -0.000820 -0.000169
vn -1.000000 -0.000820 -0.000169
vn -1.000000 -0.000820 -0.000169
vn 0.000000 -0.999988 0.004930
vn 0.000000 -0.999988 0.004930
vn 0.000000 -0.999988 0.004930
vn 0.000000 -0.999988 0.004930
vn 0.000000 -1.000000 0.000000
vn 0.000000 -1.000000 0.000000
vn 0.000000 -1.000000 0.000000
vn 0.000000 -1.000000 0.000000
vn 0.000000 -1.000000 0.000000
vn 0.000000 -1.000000 0.000000
vn 0.000000 -1.000000 0.000000
vn 0.000000 -1.000000 0.000000
vn 0.000000 -1.000000 0.000000
vn 0.000000 -1.000000 0.000000
vn 0.000000 -1.000000 0.000000
vn 0.000000 -1.000000 0.000000
vn -1.000000 0.000001 0.000000
vn -1.000000 0.000001 0.000000
vn -1.000000 0.000001 0.000000
vn -1.000000 0.000001 0.000000
vn -1.000000 0.000001 0.000000
vn -1.000000 0.000001 0.000000
vn -1.000000 0.000001 0.000000
vn -1.000000 0.000001 0.000000
vn -1.000000 0.000001 0.000000
vn -1.000000 0.000001 0.000000
vn -1.000000 0.000001 0.000000
vn -1.000000 0.000001 0.000000
vn -1.000000 0.000001 0.000000
vn -1.000000 0.000001 0.000000
vn -1.000000 0.000001 0.000000
vn -1.000000 0.000001 0.000000
vn 0.000000 1.000000 0.000000
vn 0.000000 1.000000 0.000000
vn 0.000000 1.000000 0.000000
vn 0.000000 1.000000 0.000000
vn 0.000000 1.000000 0.000000
vn 0.000000 1.000000 0.000000
vn 0.000000 1.000000 0.000000
vn 0.000000 1.000000 0.000000
vn 0.000000 1.000000 0.000000
vn 0.000000 1.000000 0.000000
vn 0.000000 1.000000 0.000000
vn 0.000000 1.000000 0.000000
vn 0.000000 1.000000 0.000000
vn 0.000000 1.000000 0.000000
vn 0.000000 1.000000 0.000000
vn 0.000000 1.000000 0.000000
vn 1.000000 0.000000 0.000000
vn 1.000000 0.000000 0.000000
vn 1.000000 0.000000 0.000000
vn 1.000000 0.000000 0.000000
vn 1.000000 0.000000 0.000000
vn 1.000000 0.000000 0.000000
vn 1.000000 0.000000 0.000000
vn 1.000000 0.000000 0.000000
vn 1.000000 0.000000 0.000000
vn 1.000000 0.000000 0.000000
vn 1.000000 0.000000 0.000000
vn 1.000000 0.000000 0.000000
vn 1.000000 0.000000 0.000000
vn 1.000000 0.000000 0.000000
vn 1.000000 0.000000 0.000000
vn 1.000000 0.000000 0.000000
vn 0.000000 -1.000000 0.000000
vn 0.000000 -1.000000 0.000000
vn 0.000000 -1.000000 0.000000
vn 0.000000 -1.000000 0.000000
vn 0.000000 -1.000000 0.000000
vn 0.000000 -1.000000 0.000000
vn 0.000000 -1.000000 0.000000
vn 0.000000 -1.000000 0.000000
vn 0.000000 -1.000000 0.000000
vn 0.000000 -1.000000 0.000000
vn 0.000000 -1.000000 0.000000
vn 0.000000 -1.000000 0.000000
vn 0.004107 -0.000000 0.999992
vn 0.004107 -0.000000 0.999992
vn 0.004107 -0.000000 0.999992
vn 0.004107 -0.000000 0.999992
vn -1.000000 0.000009 -0.000000
vn -1.000000 0.000009 -0.000000
vn -1.000000 0.000009 -0.000000
vn -1.000000 0.000009 -0.000000
vn -0.005356 0.000000 -0.999986
vn -0.005356 0.000000 -0.999986
vn -0.005356 0.000000 -0.999986
vn -0.005356 0.000000 -0.999986
vn 1.000000 -0.000005 0.000000
vn 1.000000 -0.000005 0.000000
vn 1.000000 -0.000005 0.000000
vn 1.000000 -0.000005 0.000000
vn 0.006464 -0.000000 0.999979
vn 0.006464 -0.000000 0.999979
vn 0.006464 -0.000000 0.999979
vn 0.006464 -0.000000 0.999979
vn -1.000000 0.000005 0.000000
vn -1.000000 0.000005 0.000000
vn -1.000000 0.000005 0.000000
vn -1.000000 0.000005 0.000000
vn -0.007610 0.000000 -0.999971
vn -0.007610 0.000000 -0.999971
vn -0.007610 0.000000 -0.999971
vn -0.007610 0.000000 -0.999971
vn 1.000000 -0.000005 0.000000
vn 1.000000 -0.000005 0.000000
vn 1.000000 -0.000005 0.000000
vn 1.000000 -0.000005 0.000000
vn 0.008706 -0.000000 0.999962
vn 0.008706 -0.000000 0.999962
vn 0.008706 -0.000000 0.999962
vn 0.008706 -0.000000 0.999962
vn -1.000000 0.000004 0.000000
vn -1.000000 0.000004 0.000000
vn -1.000000 0.000004 0.000000
vn -1.000000 0.000004 0.000000
vn -0.009627 0.000000 -0.999954
vn -0.009627 0.000000 -0.999954
vn -0.009627 0.000000 -0.999954
vn -0.009627 0.000000 -0.999954
vn 1.000000 -0.000005 0.000000
vn 1.000000 -0.000005 0.000000
vn 1.000000 -0.000005 0.000000
vn 1.000000 -0.000005 0.000000
vn -0.005571 0.000000 0.999985
vn -0.005571 0.000000 0.999985
vn -0.005571 0.000000 0.999985
vn -0.005571 0.000000 0.999985
vn -1.000000 0.000004 0.000000
vn -1.000000 0.000004 0.000000
vn -1.000000 0.000004 0.000000
vn -1.000000 0.000004 0.000000
vn 0.013486 -0.000000 -0.999909
vn 0.013486 -0.000000 -0.999909
vn 0.013486 -0.000000 -0.999909
vn 0.013486 -0.000000 -0.999909
vn 1.000000 -0.000005 0.000000
vn 1.000000 -0.000005 0.000000
vn 1.000000 -0.000005 0.000000
vn 1.000000 -0.000005 0.000000
vn 0.007602 -0.000000 0.999971
vn 0.007602 -0.000000 0.999971
vn 0.007602 -0.000000 0.999971
vn 0.007602 -0.000000 0.999971
vn -1.000000 0.000004 0.000000
vn -1.000000 0.000004 0.000000
vn -1.000000 0.000004 0.000000
vn -1.000000 0.000004 0.000000
vn 0.001831 -0.000000 -0.999998
vn 0.001831 -0.000000 -0.999998
vn 0.001831 -0.000000 -0.999998
vn 0.001831 -0.000000 -0.999998
vn 1.000000 -0.000005 0.000000
vn 1.000000 -0.000005 0.000000
vn 1.000000 -0.000005 0.000000
vn 1.000000 -0.000005 0.000000
vn 0.015815 -0.000000 0.999875
vn 0.015815 -0.000000 0.999875
vn 0.015815 -0.000000 0.999875
vn 0.015815 -0.000000 0.999875
vn -1.000000 0.000004 0.000000
vn -1.000000 0.000004 0.000000
vn -1.000000 0.000004 0.000000
vn -1.000000 0.000004 0.000000
vn -0.005503 0.000000 -0.999985
vn -0.005503 0.000000 -0.999985
vn -0.005503 0.000000 -0.999985
vn -0.005503 0.000000 -0.999985
vn 1.000000 -0.000005 0.000000
vn 1.000000 -0.000005 0.000000
vn 1.000000 -0.000005 0.000000
vn 1.000000 -0.000005 0.000000
s 1
g Stapler
usemtl standardSurface2SG
f 178/285/1 176/286/2 9/195/3 10/287/4
s 2
f 94/291/5 92/292/6 13/263/7 14/206/8
s 3
f 293/187/9 16/188/10 239/189/11 237/190/12 235/191/13 233/192/14 231/193/15 229/194/16 9/195/17 176/196/18 175/77/19 6/76/20 292/197/21 282/198/22 272/199/23 262/200/24 252/201/25 241/202/26 2/203/27 93/204/28 94/205/29 14/206/30 15/207/31 250/208/32 253/209/33 263/210/34 273/211/35 283/212/36
s off
f 4/51/37 247/52/38 256/53/39 266/54/40 276/55/41 286/56/42 296/57/43 8/58/44 182/59/45 180/60/46 7/61/47 295/62/48 285/63/49 275/64/50 265/65/51 255/66/52 248/67/53 3/68/54 98/69/55 96/70/56
f 292/75/57 6/76/58 175/77/59 177/78/60 5/79/61 291/80/62 281/81/63 271/82/64 261/83/65 251/84/66 242/85/67 1/86/68 91/87/69 93/88/70 2/89/71 241/90/72 252/91/73 262/92/74 272/93/75 282/94/76
s 1
f 19/288/77 20/221/78 179/289/79 181/290/80
s 4
f 17/239/81 246/240/82 257/241/83 267/242/84 277/243/85 287/244/86 297/245/87 18/246/88 19/247/89 181/248/90 182/249/91 8/250/92 296/251/93 286/252/94 276/253/95 266/254/96 256/255/97 247/256/98 4/257/99 96/258/100 95/259/101 24/260/102
s 2
f 23/224/103 24/260/104 95/293/105 97/294/106
s 3
f 295/229/107 7/61/108 180/60/109 179/230/110 20/221/111 230/220/112 232/218/113 234/219/114 236/216/115 238/217/116 240/214/117 21/213/118 294/215/119 284/227/120 274/228/121 264/225/122 254/226/123 249/223/124 22/222/125 23/224/126 97/231/127 98/232/128 3/233/129 248/234/130 255/235/131 265/236/132 275/237/133 285/238/134
s 4
f 11/261/135 10/262/136 19/247/89 18/246/88
s 1
f 10/287/4 9/195/3 20/221/78 19/288/77
s 3
f 9/195/17 229/194/16 230/220/112 20/221/111
f 22/222/125 249/223/124 250/208/32 15/207/31 14/206/30 23/224/126
s 2
f 14/206/8 13/263/7 24/260/104 23/224/103
s 4
f 13/263/137 12/264/138 17/239/81 24/260/102
s off
f 11/295/139 18/296/140 27/106/141 25/127/142
f 87/103/143 88/121/144 89/120/145 90/104/146
f 29/351/147 207/352/148 208/348/149 31/347/150
s 5
f 31/347/151 208/348/152 209/349/153 202/350/154
f 201/356/155 212/355/156 213/373/157 33/374/158
s 6
f 33/324/159 213/340/160 207/372/161 29/325/162
s off
f 81/47/163 82/48/164 38/31/165 37/15/166
s 7
f 39/9/167 40/24/168 36/23/169 35/10/170
f 37/15/171 38/31/172 42/28/173 41/14/174
f 41/14/174 42/28/173 40/24/168 39/9/167
s off
f 68/481/175 47/385/176 51/384/177 99/391/178 103/390/179 45/389/180 67/482/181 60/483/182 46/428/183 106/427/184 102/426/185 54/419/186 48/418/187 61/484/188
f 59/485/189 66/486/190 43/487/191 104/488/192 100/489/193 52/490/194 72/491/195 65/492/196 53/412/197 101/425/198 105/424/199 44/423/200
s 8
f 119/377/201 49/378/202 55/379/203 58/380/204 52/381/205 118/382/206 108/383/207 51/384/208 47/385/209 109/386/210
s off
f 55/493/211 70/458/212 71/494/213 58/495/214
f 120/460/215 69/459/216 70/458/217 55/493/218 49/525/219 119/526/220 109/527/221 47/528/222 68/462/223 110/461/224
s 9
f 125/411/225 53/412/226 57/413/227 56/414/228 50/415/229 124/416/230 114/417/231 48/418/232 54/419/233 115/420/234
s 10
f 71/494/235 72/529/236 52/530/237 58/495/238
s off
f 124/533/239 50/534/240 56/501/241 63/447/242 62/446/243 123/445/244 113/454/245 61/453/246 48/535/247 114/536/248
f 64/500/249 63/447/250 56/501/251 57/502/252
s 10
f 53/532/253 65/531/254 64/500/255 57/502/256
s off
f 122/537/257 76/538/258 78/498/259 77/496/260 74/539/261 121/540/262 111/541/263 73/504/264 75/503/265 112/542/266
f 79/497/267 77/496/268 78/498/269 80/499/270
s 10
f 64/500/255 65/531/254 72/529/236 71/494/235
s off
f 68/481/271 61/484/272 75/503/273 73/504/274
f 123/445/275 62/446/276 63/447/277 78/448/278 76/449/279 122/450/280 112/451/281 75/452/282 61/453/283 113/454/284
f 121/455/285 74/456/286 77/457/287 70/458/288 69/459/289 120/460/290 110/461/291 68/462/292 73/463/293 111/464/294
f 71/494/295 70/458/296 77/496/297 79/497/298
f 64/500/299 71/494/300 79/497/301 80/499/302
f 81/43/303 196/44/304 195/42/305 197/41/306 198/45/307 82/46/308
f 17/239/309 12/264/310 84/283/311 83/284/312
f 86/99/313 28/100/314 17/101/315 83/102/316 87/103/317 90/104/318
f 85/119/319 89/120/320 88/121/321 84/122/322 12/123/323 26/124/324
f 85//325 86//326 90//327 89//328
f 91/87/329 92/97/330 94/98/331 93/88/332
f 95/73/333 96/70/334 98/69/335 97/74/336
s 8
f 117/387/337 107/388/338 45/389/339 103/390/340 99/391/341 51/384/208 108/383/207 118/382/206 52/381/205 100/392/342 104/393/343 43/394/344 128/395/345 127/396/346 148/397/347 147/398/348 146/399/349 145/400/350 142/401/351 141/402/352 140/403/353 139/404/354 136/405/355 135/406/356 134/407/357 133/408/358 130/409/359 129/410/360
s 9
f 116/421/361 126/422/362 44/423/363 105/424/364 101/425/365 53/412/226 125/411/225 115/420/234 54/419/233 102/426/366 106/427/367 46/428/368 164/429/369 163/430/370 160/431/371 159/432/372 158/433/373 157/434/374 154/435/375 153/436/376 152/437/377 151/438/378 172/439/379 171/440/380 170/441/381 169/442/382 166/443/383 165/444/384
s off
f 132/466/385 130/505/386 133/506/387 138/467/388
f 137/468/389 136/543/390 139/544/391 144/469/392
f 143/470/393 142/401/394 145/400/395 150/471/396
f 149/472/397 148/545/398 127/546/399 131/465/400
f 156/474/401 154/515/402 157/516/403 162/475/404
f 161/476/405 160/547/406 163/548/407 168/477/408
f 167/478/409 166/443/410 169/442/411 174/479/412
f 173/480/413 172/549/414 151/550/415 155/473/416
f 131/465/417 132/466/418 138/467/419 137/468/420 144/469/421 143/470/422 150/471/423 149/472/424
f 155/473/425 156/474/426 162/475/427 161/476/428 168/477/429 167/478/430 174/479/431 173/480/432
f 127/507/433 130/505/434 132/466/435 131/508/436
f 133/506/437 136/509/438 137/510/439 138/467/440
f 139/511/441 142/401/442 143/470/443 144/512/444
f 145/400/445 148/513/446 149/514/447 150/471/448
f 151/517/449 154/515/450 156/474/451 155/518/452
f 157/516/453 160/519/454 161/520/455 162/475/456
f 163/521/457 166/443/458 167/478/459 168/522/460
f 169/442/461 172/523/462 173/524/463 174/479/464
s 8
f 127/396/346 128/395/345 129/410/360 130/409/359
f 133/408/358 134/407/357 135/406/356 136/405/355
f 139/404/354 140/403/353 141/402/352 142/401/351
f 145/400/350 146/399/349 147/398/348 148/397/347
s 9
f 151/438/378 152/437/377 153/436/376 154/435/375
f 157/434/374 158/433/373 159/432/372 160/431/371
f 163/430/370 164/429/369 165/444/384 166/443/383
f 169/442/382 170/441/381 171/440/380 172/439/379
s 4
f 291/265/465 5/266/466 177/267/467 178/268/468 10/262/136 11/261/135 300/269/469 290/270/470 280/271/471 270/272/472 260/273/473 243/274/474 12/264/138 13/263/137 92/275/475 91/276/476 1/277/477 242/278/478 251/279/479 261/280/480 271/281/481 281/282/482
s off
f 175/77/483 176/95/484 178/96/485 177/78/486
f 179/71/487 180/60/488 182/59/489 181/72/490
s 11
f 183/1/491 184/2/492 186/3/493 185/4/494
f 185/4/494 186/3/493 192/7/495 191/8/496
s 12
f 187/17/497 188/18/498 189/19/499 190/20/500
f 190/20/500 189/19/499 194/25/501 193/26/502
s 11
f 191/8/496 192/7/495 195/12/503 196/13/504
s 12
f 193/26/502 194/25/501 198/29/505 197/30/506
s 13
f 186/33/507 184/34/508 187/35/509 190/36/510
s 14
f 36/23/511 40/24/512 189/19/513 188/18/514
s 15
f 185/4/515 39/9/516 35/10/517 183/1/518
f 37/15/519 41/14/520 191/8/521 196/13/522 81/16/523
s 14
f 194/25/524 42/28/525 38/31/526 82/32/527 198/29/528
s 13
f 192/40/529 193/39/530 197/41/531 195/42/532
s 15
f 191/8/521 41/14/520 39/9/516 185/4/515
s 13
f 186/33/507 190/36/510 193/39/530 192/40/529
s 14
f 189/19/513 40/24/512 42/28/525 194/25/524
s 5
f 210/353/533 211/354/534 212/355/156 201/356/155 200/357/535 199/358/536 202/350/154 209/349/153
s off
f 199/321/537 200/322/538 201/323/539 33/324/540 29/325/541 31/326/542 202/327/543
f 203/328/544 204/329/545 205/330/546 32/331/547 30/332/548 34/333/549 206/334/550
f 215/369/551 216/371/552 30/332/553 32/370/554
s 5
f 214/361/555 215/369/556 32/370/557 205/366/558
f 204/363/559 203/364/560 206/365/561 218/360/562 219/359/563 220/362/564 214/361/555 205/366/558
f 217/375/565 218/360/562 206/365/561 34/376/566
s 6
f 216/371/567 217/346/568 34/333/569 30/332/570
s off
f 207/372/161 213/340/160 217/346/568 216/371/567
s 5
f 219/359/563 218/360/562 212/355/156 211/354/534 210/353/533 209/349/153 214/361/555 220/362/564
s off
f 221/335/571 209/336/572 208/337/573 212/338/574
f 215/341/575 214/342/576 222/343/577 218/344/578
f 214/361/579 209/349/580 221/367/581 222/368/582
f 223/27/583 224/49/584 225/38/585 226/37/586 227/50/587 228/11/588
f 208/337/589 207/339/590 213/340/591 212/338/592
f 216/345/593 215/341/594 218/344/595 217/346/596
s 6
f 207/339/597 216/345/598 217/346/599 213/340/600
s off
f 36/23/601 188/18/602 224/22/603 223/27/604
f 188/18/605 187/17/606 225/21/607 224/22/608
f 187/35/609 184/34/610 226/37/611 225/38/612
f 184/2/613 183/1/614 227/5/615 226/6/616
f 183/1/617 35/10/618 228/11/619 227/5/620
f 35/10/621 36/23/622 223/27/623 228/11/624
f 302/145/625 301/142/626 303/141/627 304/146/628
s 3
f 232/218/113 231/193/15 233/192/14 234/219/114
s off
f 306/153/629 305/150/630 307/149/631 308/154/632
s 3
f 236/216/115 235/191/13 237/190/12 238/217/116
s off
f 310/161/633 309/158/634 311/157/635 312/162/636
s 3
f 21/213/118 240/214/117 239/189/11 16/188/10 293/187/9 294/215/119
s off
f 300/125/637 11/126/638 25/127/639 299/128/640 289/129/641 279/130/642 269/131/643 259/132/644 244/133/645 26/124/646 12/123/647 243/134/648 260/135/649 270/136/650 280/137/651 290/138/652
f 299/128/653 25/127/654 27/106/655 298/105/656 288/118/657 278/117/658 268/116/659 258/115/660 245/114/661 28/100/662 26/124/663 244/133/664 259/132/665 269/131/666 279/130/667 289/129/668
f 298/105/669 27/106/670 18/107/671 297/108/672 287/109/673 277/110/674 267/111/675 257/112/676 246/113/677 17/101/678 28/100/679 245/114/680 258/115/681 268/116/682 278/117/683 288/118/684
f 314/169/685 313/166/686 315/165/687 316/170/688
s 3
f 264/225/122 263/210/34 253/209/33 254/226/123
s off
f 318/177/689 317/174/690 319/173/691 320/178/692
s 3
f 284/227/120 283/212/36 273/211/35 274/228/121
s off
f 322/185/693 321/182/694 323/181/695 324/186/696
f 230/297/697 229/298/698 301/142/699 302/145/700
f 229/139/701 231/140/702 303/141/703 301/142/704
f 231/299/705 232/300/706 304/146/707 303/141/708
f 232/143/709 230/144/710 302/145/711 304/146/712
f 234/301/713 233/302/714 305/150/715 306/153/716
f 233/147/717 235/148/718 307/149/719 305/150/720
f 235/303/721 236/304/722 308/154/723 307/149/724
f 236/151/725 234/152/726 306/153/727 308/154/728
f 238/305/729 237/306/730 309/158/731 310/161/732
f 237/155/733 239/156/734 311/157/735 309/158/736
f 239/307/737 240/308/738 312/162/739 311/157/740
f 240/159/741 238/160/742 310/161/743 312/162/744
f 254/309/745 253/310/746 313/166/747 314/169/748
f 253/163/749 250/164/750 315/165/751 313/166/752
f 250/311/753 249/312/754 316/170/755 315/165/756
f 249/167/757 254/168/758 314/169/759 316/170/760
f 274/313/761 273/314/762 317/174/763 318/177/764
f 273/171/765 263/172/766 319/173/767 317/174/768
f 263/315/769 264/316/770 320/178/771 319/173/772
f 264/175/773 274/176/774 318/177/775 320/178/776
f 294/317/777 293/318/778 321/182/779 322/185/780
f 293/179/781 283/180/782 323/181/783 321/182/784
f 283/319/785 284/320/786 324/186/787 323/181/788
f 284/183/789 294/184/790 322/185/791 324/186/792
