# This file uses centimeters as units for non-parametric coordinates.

mtllib e.g.,TiledFloorV001.mtl
g default
v 0.043504 0.205303 1.140560
v 0.984188 0.205303 1.140560
v 0.043504 0.245790 1.140560
v 0.984188 0.245790 1.140560
v 0.043504 0.245790 0.199876
v 0.984188 0.245790 0.199876
v 0.043504 0.205303 0.199876
v 0.984188 0.205303 0.199876
v -0.929031 0.205303 1.147480
v 0.011652 0.205303 1.147480
v -0.929031 0.245790 1.147480
v 0.011652 0.245790 1.147480
v -0.929031 0.245790 0.206796
v 0.011652 0.245790 0.206796
v -0.929031 0.205303 0.206796
v 0.011652 0.205303 0.206796
v -0.929031 0.205303 0.162057
v 0.011652 0.205303 0.162057
v -0.929031 0.245790 0.162057
v 0.011652 0.245790 0.162057
v -0.929031 0.245790 -0.778626
v 0.011652 0.245790 -0.778626
v -0.929031 0.205303 -0.778626
v 0.011652 0.205303 -0.778626
v 0.043504 0.205303 0.162057
v 0.984188 0.205303 0.162057
v 0.043504 0.245790 0.162057
v 0.984188 0.245790 0.162057
v 0.043504 0.245790 -0.778626
v 0.984188 0.245790 -0.778626
v 0.043504 0.205303 -0.778626
v 0.984188 0.205303 -0.778626
v -0.961729 0.205606 1.171247
v 1.000661 0.205606 1.171247
v -0.961729 0.227793 1.171247
v 1.000661 0.227793 1.171247
v -0.961729 0.227793 -0.791143
v 1.000661 0.227793 -0.791143
v -0.961729 0.205606 -0.791143
v 1.000661 0.205606 -0.791143
vt 0.140334 0.947506
vt 0.140334 0.785566
vt 0.147304 0.785566
vt 0.147303 0.947506
vt 0.316212 0.785568
vt 0.316216 0.947508
vt 0.309245 0.947508
vt 0.309243 0.785569
vt 0.734649 0.238050
vt 0.896589 0.238052
vt 0.896589 0.245022
vt 0.734649 0.245020
vt 0.896588 0.413931
vt 0.734648 0.413930
vt 0.734649 0.406960
vt 0.896588 0.406961
vt 0.308682 0.252907
vt 0.308689 0.414847
vt 0.301718 0.414847
vt 0.301714 0.252907
vt 0.132810 0.414848
vt 0.132802 0.252908
vt 0.139774 0.252908
vt 0.139778 0.414848
vt 0.901585 0.790570
vt 0.901585 0.952510
vt 0.894615 0.952510
vt 0.894616 0.790570
vt 0.725705 0.952510
vt 0.725706 0.790570
vt 0.732676 0.790570
vt 0.732675 0.952509
vt 0.708755 0.428056
vt 0.708753 0.765884
vt 0.690398 0.765865
vt 0.690399 0.428037
vt 0.334216 0.765767
vt 0.334215 0.427933
vt 0.352570 0.428036
vt 0.352571 0.765867
vt 0.352572 0.073092
vt 0.690400 0.073093
vt 0.690398 0.410921
vt 0.352571 0.410920
vt 0.309243 0.954479
vt 0.147303 0.954475
vt 0.147304 0.778595
vt 0.309244 0.778600
vt 0.727679 0.406961
vt 0.727679 0.245020
vt 0.903559 0.245021
vt 0.903558 0.406962
vt 0.139774 0.245939
vt 0.301714 0.245937
vt 0.301716 0.421817
vt 0.139776 0.421818
vt 0.732675 0.783601
vt 0.894615 0.783599
vt 0.894615 0.959481
vt 0.732675 0.959478
vt 0.690399 0.782980
vt 0.352571 0.782983
vn 0.000000 0.000000 1.000000
vn 0.000000 0.000000 1.000000
vn 0.000000 0.000000 1.000000
vn 0.000000 0.000000 1.000000
vn 0.000000 1.000000 0.000000
vn 0.000000 1.000000 0.000000
vn 0.000000 1.000000 0.000000
vn 0.000000 1.000000 0.000000
vn 0.000000 0.000000 -1.000000
vn 0.000000 0.000000 -1.000000
vn 0.000000 0.000000 -1.000000
vn 0.000000 0.000000 -1.000000
vn 0.000000 -1.000000 0.000000
vn 0.000000 -1.000000 0.000000
vn 0.000000 -1.000000 0.000000
vn 0.000000 -1.000000 0.000000
vn 1.000000 0.000000 0.000000
vn 1.000000 0.000000 0.000000
vn 1.000000 0.000000 0.000000
vn 1.000000 0.000000 0.000000
vn -1.000000 0.000000 0.000000
vn -1.000000 0.000000 0.000000
vn -1.000000 0.000000 0.000000
vn -1.000000 0.000000 0.000000
vn 0.000000 0.000000 1.000000
vn 0.000000 0.000000 1.000000
vn 0.000000 0.000000 1.000000
vn 0.000000 0.000000 1.000000
vn 0.000000 1.000000 0.000000
vn 0.000000 1.000000 0.000000
vn 0.000000 1.000000 0.000000
vn 0.000000 1.000000 0.000000
vn 0.000000 0.000000 -1.000000
vn 0.000000 0.000000 -1.000000
vn 0.000000 0.000000 -1.000000
vn 0.000000 0.000000 -1.000000
vn 1.000000 0.000000 0.000000
vn 1.000000 0.000000 0.000000
vn 1.000000 0.000000 0.000000
vn 1.000000 0.000000 0.000000
vn -1.000000 0.000000 0.000000
vn -1.000000 0.000000 0.000000
vn -1.000000 0.000000 0.000000
vn -1.000000 0.000000 0.000000
vn 0.000000 0.000000 1.000000
vn 0.000000 0.000000 1.000000
vn 0.000000 0.000000 1.000000
vn 0.000000 0.000000 1.000000
vn 0.000000 1.000000 0.000000
vn 0.000000 1.000000 0.000000
vn 0.000000 1.000000 0.000000
vn 0.000000 1.000000 0.000000
vn 0.000000 0.000000 -1.000000
vn 0.000000 0.000000 -1.000000
vn 0.000000 0.000000 -1.000000
vn 0.000000 0.000000 -1.000000
vn 1.000000 0.000000 0.000000
vn 1.000000 0.000000 0.000000
vn 1.000000 0.000000 0.000000
vn 1.000000 0.000000 0.000000
vn -1.000000 0.000000 0.000000
vn -1.000000 0.000000 0.000000
vn -1.000000 0.000000 0.000000
vn -1.000000 0.000000 0.000000
vn 0.000000 0.000000 1.000000
vn 0.000000 0.000000 1.000000
vn 0.000000 0.000000 1.000000
vn 0.000000 0.000000 1.000000
vn 0.000000 1.000000 0.000000
vn 0.000000 1.000000 0.000000
vn 0.000000 1.000000 0.000000
vn 0.000000 1.000000 0.000000
vn 0.000000 0.000000 -1.000000
vn 0.000000 0.000000 -1.000000
vn 0.000000 0.000000 -1.000000
vn 0.000000 0.000000 -1.000000
vn 1.000000 0.000000 0.000000
vn 1.000000 0.000000 0.000000
vn 1.000000 0.000000 0.000000
vn 1.000000 0.000000 0.000000
vn -1.000000 0.000000 0.000000
vn -1.000000 0.000000 0.000000
vn -1.000000 0.000000 0.000000
vn -1.000000 0.000000 0.000000
vn 0.000000 0.000000 1.000000
vn 0.000000 0.000000 1.000000
vn 0.000000 0.000000 1.000000
vn 0.000000 0.000000 1.000000
vn 0.000000 1.000000 0.000000
vn 0.000000 1.000000 0.000000
vn 0.000000 1.000000 0.000000
vn 0.000000 1.000000 0.000000
vn 0.000000 0.000000 -1.000000
vn 0.000000 0.000000 -1.000000
vn 0.000000 0.000000 -1.000000
vn 0.000000 0.000000 -1.000000
vn 0.000000 -1.000000 0.000000
vn 0.000000 -1.000000 0.000000
vn 0.000000 -1.000000 0.000000
vn 0.000000 -1.000000 0.000000
vn 1.000000 0.000000 0.000000
vn 1.000000 0.000000 0.000000
vn 1.000000 0.000000 0.000000
vn 1.000000 0.000000 0.000000
vn -1.000000 0.000000 0.000000
vn -1.000000 0.000000 0.000000
vn -1.000000 0.000000 0.000000
vn -1.000000 0.000000 0.000000
s off
g TiledFloor
usemtl openPBRSurface1SG
f 1/45/1 2/46/2 4/4/3 3/7/4
f 3/7/5 4/4/6 6/3/7 5/8/8
f 5/8/9 6/3/10 8/47/11 7/48/12
f 7//13 8//14 2//15 1//16
f 2/1/17 8/2/18 6/3/19 4/4/20
f 7/5/21 1/6/22 3/7/23 5/8/24
f 9/49/25 10/50/26 12/12/27 11/15/28
f 11/15/29 12/12/30 14/11/31 13/16/32
f 13/16/33 14/11/34 16/51/35 15/52/36
f 10/9/37 16/10/38 14/11/39 12/12/40
f 15/13/41 9/14/42 11/15/43 13/16/44
f 17/53/45 18/54/46 20/20/47 19/23/48
f 19/23/49 20/20/50 22/19/51 21/24/52
f 21/24/53 22/19/54 24/55/55 23/56/56
f 18/17/57 24/18/58 22/19/59 20/20/60
f 23/21/61 17/22/62 19/23/63 21/24/64
f 25/57/65 26/58/66 28/28/67 27/31/68
f 27/31/69 28/28/70 30/27/71 29/32/72
f 29/32/73 30/27/74 32/59/75 31/60/76
f 26/25/77 32/26/78 30/27/79 28/28/80
f 31/29/81 25/30/82 27/31/83 29/32/84
f 33/44/85 34/43/86 36/36/87 35/39/88
f 35/39/89 36/36/90 38/35/91 37/40/92
f 37/40/93 38/35/94 40/61/95 39/62/96
f 39/41/97 40/42/98 34/43/99 33/44/100
f 34/33/101 40/34/102 38/35/103 36/36/104
f 39/37/105 33/38/106 35/39/107 37/40/108
