# This file uses centimeters as units for non-parametric coordinates.

mtllib e.g.,OrnateRailwayV002.mtl
g default
v -0.034738 0.018504 0.023264
v 0.034738 0.018504 0.023264
v -0.034738 1.117375 0.057445
v 0.034738 1.117375 0.057445
v -0.034738 1.117375 -0.057445
v 0.034738 1.117375 -0.057445
v -0.034738 0.018504 -0.023264
v 0.034738 0.018504 -0.023264
v -0.034738 1.113518 -0.506493
v 0.034738 1.113518 -0.506493
v -0.034738 1.113518 0.506493
v 0.034738 1.113518 0.506493
v -0.034738 1.160045 0.506493
v 0.034738 1.160045 0.506493
v -0.034738 1.160045 -0.506493
v 0.034738 1.160045 -0.506493
v -0.034738 0.614463 0.043031
v -0.034738 0.614463 -0.043031
v 0.034738 0.614463 -0.043031
v 0.034738 0.614463 0.043031
v -0.034738 0.671031 -0.023264
v -0.034738 0.671031 0.023264
v 0.034738 0.671031 0.023264
v 0.034738 0.671031 -0.023264
v -0.034738 0.559204 0.023264
v -0.034738 0.559204 -0.023264
v 0.034738 0.559204 -0.023264
v 0.034738 0.559204 0.023264
v -0.034738 1.070995 -0.023264
v -0.034738 1.070995 0.023264
v 0.034738 1.070995 0.023264
v 0.034738 1.070995 -0.023264
v -0.034738 1.113518 -0.012012
v -0.034738 1.160045 -0.012012
v 0.034738 1.160045 -0.012012
v 0.034738 1.113518 -0.012012
v -0.034738 1.160045 0.006745
v -0.034738 1.113518 0.006745
v 0.034738 1.113518 0.006745
v 0.034738 1.160045 0.006745
v -0.034738 1.146103 0.506493
v -0.034738 1.146103 -0.506493
v 0.034738 1.146103 -0.506493
v 0.034738 1.146103 0.506493
v -0.034738 1.128967 0.506493
v -0.034738 1.128967 -0.506493
v 0.034738 1.128967 -0.506493
v 0.034738 1.128967 0.506493
v -0.034738 1.125105 -0.012012
v 0.034738 1.149589 -0.012012
v -0.034738 1.149589 0.006745
v 0.034738 1.125105 0.006745
v -0.034738 1.149589 -0.012012
v 0.034738 1.149589 0.006745
v -0.034738 1.146103 0.131682
v -0.034738 1.146103 -0.135632
v 0.034738 1.146103 -0.135632
v 0.034738 1.146103 0.131682
v -0.034738 1.125105 0.006745
v 0.034738 1.125105 -0.012012
v -0.034738 1.128967 0.131682
v -0.034738 1.128967 -0.135632
v 0.034738 1.128967 -0.135632
v 0.034738 1.128967 0.131682
v -0.034738 1.140668 0.010504
v -0.034738 1.134402 0.010504
v 0.034738 1.140668 -0.015771
v 0.034738 1.134402 -0.015771
v -0.034738 1.150067 0.000651
v -0.034738 1.150067 -0.005918
v 0.034738 1.150067 -0.005918
v 0.034738 1.150067 0.000651
v -0.034738 1.134402 -0.015771
v -0.034738 1.140668 -0.015771
v 0.034738 1.134402 0.010504
v 0.034738 1.140668 0.010504
v -0.034738 1.125003 0.000651
v -0.034738 1.125003 -0.005918
v 0.034738 1.125003 -0.005918
v 0.034738 1.125003 0.000651
v -0.034738 1.146975 0.003228
v -0.034738 1.148501 0.005578
v -0.034738 1.145368 0.008862
v -0.034738 1.142890 0.037979
v -0.034738 1.145368 -0.014129
v -0.034738 1.148501 -0.010845
v -0.034738 1.146975 -0.008495
v -0.034738 1.142890 -0.042917
v 0.034738 1.146975 -0.008495
v 0.034738 1.148501 -0.010845
v 0.034738 1.145368 -0.014129
v 0.034738 1.142890 -0.042917
v 0.034738 1.145368 0.008862
v 0.034738 1.148501 0.005578
v 0.034738 1.146975 0.003228
v 0.034738 1.142890 0.037979
v -0.034738 1.132180 0.037979
v -0.034738 1.129703 0.008862
v -0.034738 1.126570 0.005578
v -0.034738 1.128002 0.003228
v -0.034738 1.126570 -0.010845
v -0.034738 1.129703 -0.014129
v -0.034738 1.132180 -0.042917
v -0.034738 1.128002 -0.008495
v 0.034738 1.132180 -0.042917
v 0.034738 1.129703 -0.014129
v 0.034738 1.126570 -0.010845
v 0.034738 1.128002 -0.008495
v 0.034738 1.126570 0.005578
v 0.034738 1.129703 0.008862
v 0.034738 1.132180 0.037979
v 0.034738 1.128002 0.003228
v -0.037110 1.142890 0.005573
v -0.037110 1.139677 0.006745
v -0.037110 1.145032 0.003228
v -0.037110 1.146103 -0.000289
v -0.037110 1.146103 -0.004978
v -0.037110 1.145032 -0.008495
v -0.037110 1.142890 -0.010840
v -0.037110 1.139677 -0.012012
v -0.037110 1.135393 -0.012012
v -0.037110 1.132180 -0.010840
v -0.037110 1.130038 -0.008495
v -0.037110 1.128967 -0.004978
v -0.037110 1.128967 -0.000289
v -0.037110 1.130038 0.003228
v -0.037110 1.132180 0.005573
v -0.037110 1.135393 0.006745
v 0.037110 1.132180 0.005573
v 0.037110 1.135393 0.006745
v 0.037110 1.130038 0.003228
v 0.037110 1.128967 -0.000289
v 0.037110 1.128967 -0.004978
v 0.037110 1.130038 -0.008495
v 0.037110 1.132180 -0.010840
v 0.037110 1.135393 -0.012012
v 0.037110 1.139677 -0.012012
v 0.037110 1.142890 -0.010840
v 0.037110 1.145032 -0.008495
v 0.037110 1.146103 -0.004978
v 0.037110 1.146103 -0.000289
v 0.037110 1.145032 0.003228
v 0.037110 1.142890 0.005573
v 0.037110 1.139677 0.006745
v -0.040205 1.142890 0.005573
v -0.040205 1.139677 0.006745
v -0.040205 1.145032 0.003228
v -0.040205 1.146103 -0.000289
v -0.040205 1.146103 -0.004978
v -0.040205 1.145032 -0.008495
v -0.040205 1.142890 -0.010840
v -0.040205 1.139677 -0.012012
v -0.040205 1.135393 -0.012012
v -0.040205 1.132180 -0.010840
v -0.040205 1.130038 -0.008495
v -0.040205 1.128967 -0.004978
v -0.040205 1.128967 -0.000289
v -0.040205 1.130038 0.003228
v -0.040205 1.132180 0.005573
v -0.040205 1.135393 0.006745
v 0.040205 1.132180 0.005573
v 0.040205 1.135393 0.006745
v 0.040205 1.130038 0.003228
v 0.040205 1.128967 -0.000289
v 0.040205 1.128967 -0.004978
v 0.040205 1.130038 -0.008495
v 0.040205 1.132180 -0.010840
v 0.040205 1.135393 -0.012012
v 0.040205 1.139677 -0.012012
v 0.040205 1.142890 -0.010840
v 0.040205 1.145032 -0.008495
v 0.040205 1.146103 -0.004978
v 0.040205 1.146103 -0.000289
v 0.040205 1.145032 0.003228
v 0.040205 1.142890 0.005573
v 0.040205 1.139677 0.006745
vt 0.546512 0.104780
vt 0.571968 0.104780
vt 0.571968 0.400606
vt 0.546512 0.400606
vt 0.582783 0.430840
vt 0.535698 0.430839
vt 0.571968 0.461789
vt 0.546512 0.461789
vt 0.571968 0.680616
vt 0.546512 0.680616
vt 0.590670 0.705991
vt 0.527811 0.705991
vt 0.483045 0.104780
vt 0.508501 0.104780
vt 0.508501 0.400606
vt 0.483045 0.400606
vt 0.519316 0.430839
vt 0.472230 0.430839
vt 0.508501 0.461789
vt 0.483045 0.461789
vt 0.508501 0.680616
vt 0.483045 0.680616
vt 0.527202 0.705991
vt 0.464343 0.705991
vt 0.538652 0.823634
vt 0.522897 0.824934
vt 0.523804 0.822366
vt 0.519811 0.825854
vt 0.521090 0.826632
vt 0.589372 0.825572
vt 0.521730 0.827445
vt 0.521102 0.823572
vt 0.521749 0.821817
vt 0.523817 0.818938
vt 0.538673 0.817774
vt 0.589405 0.816197
vt 0.792308 0.816916
vt 0.792275 0.826291
vt 0.519815 0.824739
vt 0.792245 0.834744
vt 0.521707 0.833785
vt 0.511467 0.827409
vt 0.513397 0.825831
vt 0.514801 0.827476
vt 0.518398 0.827499
vt 0.511445 0.833748
vt 0.521758 0.819473
vt 0.522927 0.816363
vt 0.521136 0.814644
vt 0.519848 0.815473
vt 0.521777 0.814050
vt 0.792335 0.809288
vt 0.521797 0.808329
vt 0.517889 0.825318
vt 0.443120 0.825053
vt 0.494392 0.823477
vt 0.510318 0.824889
vt 0.512109 0.826610
vt 0.515323 0.825309
vt 0.238056 0.824326
vt 0.238026 0.832779
vt 0.521123 0.817712
vt 0.519844 0.816536
vt 0.518444 0.813775
vt 0.514848 0.813758
vt 0.513434 0.815450
vt 0.511515 0.814013
vt 0.511535 0.808293
vt 0.238089 0.814951
vt 0.443153 0.815678
vt 0.494413 0.817618
vt 0.509441 0.818887
vt 0.509429 0.822315
vt 0.512123 0.823540
vt 0.513401 0.824717
vt 0.517922 0.815943
vt 0.515356 0.815934
vt 0.512153 0.814617
vt 0.510348 0.816319
vt 0.238116 0.807323
vt 0.511496 0.819436
vt 0.511487 0.821780
vt 0.513430 0.816513
vt 0.512143 0.817681
vt 0.494185 0.881910
vt 0.510120 0.880611
vt 0.509213 0.883179
vt 0.513206 0.879691
vt 0.511923 0.878902
vt 0.442925 0.879970
vt 0.511288 0.878099
vt 0.511915 0.881973
vt 0.511268 0.883728
vt 0.237861 0.879243
vt 0.509201 0.886607
vt 0.494164 0.887769
vt 0.442892 0.889346
vt 0.237828 0.888618
vt 0.513202 0.880805
vt 0.511310 0.871760
vt 0.237891 0.870790
vt 0.521572 0.871796
vt 0.521550 0.878136
vt 0.519620 0.879714
vt 0.518217 0.878066
vt 0.514622 0.878056
vt 0.511259 0.886072
vt 0.510090 0.889181
vt 0.511878 0.890913
vt 0.513169 0.890072
vt 0.511240 0.891495
vt 0.511220 0.897216
vt 0.237801 0.896246
vt 0.515128 0.880226
vt 0.792110 0.872755
vt 0.792080 0.881208
vt 0.589177 0.880489
vt 0.538445 0.882067
vt 0.522699 0.880655
vt 0.520908 0.878937
vt 0.517694 0.880235
vt 0.511895 0.887833
vt 0.513173 0.889009
vt 0.514577 0.891758
vt 0.518169 0.891786
vt 0.519583 0.890094
vt 0.521502 0.891531
vt 0.521482 0.897252
vt 0.523589 0.883230
vt 0.792047 0.890583
vt 0.589144 0.889864
vt 0.538424 0.887926
vt 0.523576 0.886658
vt 0.520895 0.882005
vt 0.519616 0.880828
vt 0.515095 0.889601
vt 0.517661 0.889611
vt 0.520864 0.890929
vt 0.522669 0.889226
vt 0.792020 0.898211
vt 0.521522 0.886109
vt 0.521530 0.883765
vt 0.519587 0.889032
vt 0.520874 0.887864
vt 0.512715 0.813195
vt 0.512701 0.827994
vt 0.520301 0.892350
vt 0.520319 0.877553
vt 0.520576 0.813218
vt 0.512459 0.892340
vt 0.520506 0.828010
vt 0.200176 0.862027
vt 0.192859 0.860742
vt 0.190958 0.856435
vt 0.190036 0.850472
vt 0.190017 0.842519
vt 0.190911 0.836553
vt 0.193630 0.831901
vt 0.199991 0.830881
vt 0.207257 0.830870
vt 0.213619 0.831855
vt 0.216351 0.836493
vt 0.217262 0.842456
vt 0.217266 0.850409
vt 0.216361 0.856375
vt 0.213794 0.861014
vt 0.207442 0.862017
vt 0.512526 0.877522
vt 0.815024 0.863702
vt 0.807766 0.862378
vt 0.805945 0.858080
vt 0.805031 0.852116
vt 0.805023 0.844163
vt 0.805925 0.838198
vt 0.807737 0.833893
vt 0.815009 0.832564
vt 0.822275 0.832554
vt 0.829538 0.833876
vt 0.831357 0.838187
vt 0.832270 0.844151
vt 0.832275 0.852104
vt 0.831371 0.858069
vt 0.829558 0.862386
vt 0.822290 0.863713
vt 0.508501 0.079324
vt 0.546512 0.079324
vt 0.521932 0.770318
vt 0.792470 0.771277
vt 0.511670 0.770281
vt 0.238250 0.769312
vt 0.185728 0.856487
vt 0.185707 0.850523
vt 0.185678 0.842570
vt 0.185743 0.860464
vt 0.185656 0.836605
vt 0.185642 0.832629
vt 0.221605 0.836492
vt 0.221605 0.842457
vt 0.221605 0.850410
vt 0.221605 0.832516
vt 0.221605 0.856375
vt 0.221605 0.860351
vt 0.800701 0.858088
vt 0.800692 0.852123
vt 0.800680 0.844170
vt 0.800707 0.862064
vt 0.800671 0.838206
vt 0.800664 0.834229
vt 0.836605 0.838182
vt 0.836610 0.844147
vt 0.836618 0.852100
vt 0.836601 0.834206
vt 0.836623 0.858064
vt 0.836627 0.862041
vt 0.546512 0.430839
vt 0.508501 0.430839
vt 0.546512 0.461789
vt 0.508501 0.461789
vt 0.546512 0.680616
vt 0.508501 0.680616
vt 0.546512 0.705991
vt 0.508501 0.705991
vt 0.445033 0.400606
vt 0.445033 0.104780
vt 0.483045 0.430840
vt 0.445033 0.430840
vt 0.483045 0.461789
vt 0.445033 0.461789
vt 0.483045 0.680616
vt 0.445033 0.680616
vt 0.483045 0.705991
vt 0.445033 0.705991
vt 0.212661 0.807234
vt 0.212794 0.769223
vt 0.221247 0.769252
vt 0.221113 0.807264
vt 0.230622 0.769285
vt 0.230489 0.807297
vt 0.809338 0.809349
vt 0.809473 0.771337
vt 0.817926 0.771367
vt 0.817791 0.809379
vt 0.799962 0.809315
vt 0.800098 0.771304
vt 0.200335 0.866945
vt 0.194886 0.866954
vt 0.207600 0.866933
vt 0.213050 0.866925
vt 0.194532 0.825979
vt 0.199981 0.825968
vt 0.207247 0.825953
vt 0.212696 0.825943
vt 0.815006 0.868613
vt 0.809557 0.868594
vt 0.822272 0.868638
vt 0.827721 0.868656
vt 0.809549 0.827661
vt 0.814998 0.827649
vt 0.822264 0.827633
vt 0.827713 0.827622
vn 0.000000 0.000000 1.000000
vn 0.000000 0.000000 1.000000
vn 0.000000 -0.033150 0.999450
vn 0.000000 -0.033150 0.999450
vn 0.000000 -0.033150 -0.999450
vn 0.000000 -0.033150 -0.999450
vn 0.000000 0.000000 -1.000000
vn 0.000000 0.000000 -1.000000
vn 0.000000 -1.000000 0.000000
vn 0.000000 -1.000000 0.000000
vn 0.000000 -1.000000 0.000000
vn 0.000000 -1.000000 0.000000
vn 1.000000 0.000000 0.000000
vn 1.000000 0.000000 0.000000
vn 1.000000 -0.000000 0.000000
vn 1.000000 -0.000000 0.000000
vn -1.000000 0.000000 0.000000
vn -1.000000 0.000000 0.000000
vn -1.000000 -0.000000 0.000000
vn -1.000000 -0.000000 0.000000
vn 0.000000 -1.000000 0.000000
vn 0.000000 -1.000000 0.000000
vn 0.000000 -1.000000 0.000000
vn 0.000000 -1.000000 0.000000
vn 0.000000 0.000000 1.000000
vn 0.000000 0.000000 1.000000
vn 0.000000 0.000000 1.000000
vn 0.000000 0.000000 1.000000
vn 0.000000 1.000000 0.000000
vn 0.000000 1.000000 0.000000
vn 0.000000 1.000000 0.000000
vn 0.000000 1.000000 0.000000
vn 0.000000 0.000000 -1.000000
vn 0.000000 0.000000 -1.000000
vn 0.000000 0.000000 -1.000000
vn 0.000000 0.000000 -1.000000
vn -1.000000 0.000000 0.000000
vn -1.000000 0.000002 0.000001
vn -1.000000 -0.000000 0.000000
vn -1.000000 0.000000 0.000000
vn -1.000000 0.000000 0.000000
vn -1.000000 0.000000 0.000000
vn -1.000000 0.000000 0.000000
vn 0.000000 -0.593277 -0.804998
vn 0.000000 -0.593277 -0.804998
vn 0.000000 -0.076358 -0.997081
vn 0.000000 -0.076358 -0.997081
vn 1.000000 0.000000 0.000000
vn 1.000000 0.000000 0.000000
vn 1.000000 0.000000 0.000000
vn 1.000000 0.000000 0.000000
vn 0.000000 -0.076358 0.997081
vn 0.000000 -0.076358 0.997081
vn 0.000000 -0.593277 0.804998
vn 0.000000 -0.593277 0.804998
vn -1.000000 0.000000 0.000000
vn -1.000000 0.000000 0.000000
vn -1.000000 0.000000 0.000000
vn -1.000000 0.000000 0.000000
vn 0.000000 0.000000 1.000000
vn 0.000000 0.000000 1.000000
vn 0.000000 0.043258 0.999064
vn 0.000000 0.043258 0.999064
vn 1.000000 0.000000 0.000000
vn 1.000000 0.000000 0.000000
vn 1.000000 0.000000 0.000000
vn 1.000000 0.000000 0.000000
vn 0.000000 0.043258 -0.999064
vn 0.000000 0.043258 -0.999064
vn 0.000000 0.000000 -1.000000
vn 0.000000 0.000000 -1.000000
vn 0.000000 1.000000 0.000000
vn 0.000000 1.000000 0.000000
vn 0.000000 1.000000 0.000000
vn 0.000000 1.000000 0.000000
vn 1.000000 0.000000 -0.000000
vn 1.000000 0.000003 -0.000001
vn 1.000000 -0.000000 -0.000000
vn 0.000000 -1.000000 0.000000
vn 0.000000 -1.000000 0.000000
vn 0.000000 -1.000000 0.000000
vn 0.000000 -1.000000 0.000000
vn -1.000000 -0.000000 -0.000000
vn -1.000000 -0.000004 -0.000001
vn -1.000000 0.000000 -0.000000
vn 0.000000 0.000000 -1.000000
vn 0.000000 0.000000 -1.000000
vn 0.000000 0.000000 -1.000000
vn 0.000000 0.000000 -1.000000
vn 1.000000 -0.000000 0.000000
vn 1.000000 -0.000003 0.000001
vn 1.000000 0.000000 0.000000
vn 0.000000 0.000000 1.000000
vn 0.000000 0.000000 1.000000
vn 0.000000 0.000000 1.000000
vn 0.000000 0.000000 1.000000
vn -1.000000 0.000000 0.000000
vn -1.000000 -0.000000 -0.000000
vn -1.000000 0.000000 -0.000000
vn -1.000000 0.000000 -0.000000
vn -1.000000 0.000000 0.000000
vn -1.000000 0.000000 0.000000
vn -1.000000 -0.000000 0.000000
vn -1.000000 -0.000000 0.000000
vn -1.000000 -0.000000 0.000000
vn -1.000000 -0.000000 0.000000
vn 1.000000 -0.000000 0.000000
vn 1.000000 0.000000 0.000000
vn 1.000000 0.000000 0.000000
vn 1.000000 0.000000 0.000000
vn 1.000000 -0.000000 0.000000
vn 1.000000 0.000000 -0.000000
vn 1.000000 0.000000 -0.000000
vn 1.000000 -0.000000 -0.000000
vn 1.000000 0.000000 0.000000
vn 1.000000 0.000000 0.000000
vn -1.000000 0.000000 -0.000000
vn -1.000000 0.000000 -0.000000
vn -1.000000 0.000000 -0.000000
vn -1.000000 0.000000 0.000000
vn -1.000000 0.000000 0.000000
vn -1.000000 0.000000 0.000000
vn -1.000000 -0.000000 0.000000
vn -1.000000 -0.000000 0.000000
vn -1.000000 0.000000 0.000000
vn -1.000000 0.000000 0.000000
vn 1.000000 0.000000 0.000000
vn 1.000000 0.000000 0.000000
vn 1.000000 0.000000 0.000000
vn 1.000000 0.000000 0.000000
vn 1.000000 0.000000 0.000000
vn 1.000000 0.000000 0.000000
vn 1.000000 0.000000 -0.000000
vn 1.000000 -0.000000 -0.000000
vn 1.000000 -0.000000 -0.000000
vn 1.000000 0.000000 0.000000
vn -1.000000 0.000000 -0.000000
vn -1.000000 0.000000 -0.000000
vn -1.000000 0.000003 -0.000001
vn -1.000000 -0.000004 -0.000001
vn -1.000000 -0.000004 -0.000000
vn -1.000000 -0.000003 -0.000000
vn -1.000000 0.000004 -0.000000
vn -1.000000 0.000003 -0.000001
vn -1.000000 0.000003 -0.000000
vn 1.000000 0.000000 0.000000
vn 1.000000 0.000000 0.000000
vn 1.000000 0.000002 0.000001
vn 1.000000 -0.000004 0.000001
vn 1.000000 -0.000004 0.000000
vn 1.000000 -0.000004 0.000000
vn 1.000000 0.000003 0.000000
vn 1.000000 0.000002 0.000001
vn 1.000000 0.000003 0.000000
vn -1.000000 -0.000004 0.000001
vn -1.000000 -0.000003 0.000000
vn -1.000000 -0.000004 0.000000
vn 1.000000 -0.000003 -0.000001
vn 1.000000 -0.000004 -0.000000
vn 1.000000 -0.000004 -0.000000
vn -1.000000 -0.000000 0.000000
vn -1.000000 -0.000000 0.000000
vn -1.000000 -0.000003 0.000001
vn 1.000000 -0.000000 -0.000000
vn 1.000000 -0.000000 -0.000000
vn 1.000000 -0.000003 -0.000001
vn -1.000000 0.000004 0.000000
vn -1.000000 0.000003 0.000000
vn -1.000000 0.000003 0.000001
vn -1.000000 -0.000000 0.000000
vn -1.000000 -0.000000 0.000000
vn -1.000000 -0.000000 0.000000
vn -1.000000 -0.000000 0.000000
vn -1.000000 -0.000000 0.000000
vn -1.000000 -0.000000 0.000000
vn -1.000000 -0.000000 0.000000
vn -1.000000 -0.000000 0.000000
vn -1.000000 -0.000000 0.000000
vn -1.000000 -0.000000 0.000000
vn -1.000000 -0.000000 0.000000
vn -1.000000 -0.000000 0.000000
vn -1.000000 -0.000000 0.000000
vn -1.000000 -0.000000 0.000000
vn -1.000000 -0.000000 0.000000
vn -1.000000 -0.000000 0.000000
vn 1.000000 0.000003 -0.000000
vn 1.000000 0.000003 -0.000000
vn 1.000000 0.000003 -0.000001
vn 1.000000 -0.000000 0.000000
vn 1.000000 -0.000000 0.000000
vn 1.000000 -0.000000 0.000000
vn 1.000000 -0.000000 0.000000
vn 1.000000 -0.000000 0.000000
vn 1.000000 -0.000000 0.000000
vn 1.000000 -0.000000 0.000000
vn 1.000000 -0.000000 0.000000
vn 1.000000 -0.000000 0.000000
vn 1.000000 -0.000000 0.000000
vn 1.000000 -0.000000 0.000000
vn 1.000000 -0.000000 0.000000
vn 1.000000 -0.000000 0.000000
vn 1.000000 -0.000000 0.000000
vn 1.000000 -0.000000 0.000000
vn 1.000000 -0.000000 0.000000
vn -0.854454 0.174108 0.489484
vn -0.854454 0.174108 0.489484
vn -0.854454 0.174108 0.489484
vn -0.854454 0.174108 0.489484
vn -0.865416 0.365603 0.342623
vn -0.865416 0.365603 0.342623
vn -0.865416 0.365603 0.342623
vn -0.865416 0.365603 0.342623
vn -0.862208 0.483523 0.151011
vn -0.862208 0.483523 0.151011
vn -0.862208 0.483523 0.151011
vn -0.862207 0.483522 0.151011
vn -0.858093 0.513495 0.000000
vn -0.858093 0.513495 0.000000
vn -0.858093 0.513495 0.000000
vn -0.858092 0.513495 0.000000
vn -0.862207 0.483523 -0.151010
vn -0.862207 0.483523 -0.151010
vn -0.862207 0.483523 -0.151010
vn -0.862207 0.483523 -0.151010
vn -0.865415 0.365603 -0.342623
vn -0.865415 0.365603 -0.342623
vn -0.865416 0.365603 -0.342623
vn -0.865415 0.365603 -0.342623
vn -0.854454 0.174109 -0.489484
vn -0.854454 0.174109 -0.489484
vn -0.854454 0.174109 -0.489484
vn -0.854454 0.174109 -0.489484
vn -0.845696 0.000000 -0.533664
vn -0.845696 0.000000 -0.533664
vn -0.845696 0.000000 -0.533664
vn -0.845696 0.000000 -0.533664
vn -0.854469 -0.174111 -0.489456
vn -0.854470 -0.174112 -0.489456
vn -0.854469 -0.174112 -0.489456
vn -0.854470 -0.174112 -0.489456
vn -0.865416 -0.365603 -0.342623
vn -0.865415 -0.365603 -0.342623
vn -0.865416 -0.365603 -0.342623
vn -0.865416 -0.365603 -0.342623
vn -0.862206 -0.483522 -0.151022
vn -0.862206 -0.483522 -0.151022
vn -0.862206 -0.483522 -0.151022
vn -0.862206 -0.483522 -0.151022
vn -0.858093 -0.513495 0.000000
vn -0.858093 -0.513495 0.000000
vn -0.858093 -0.513495 0.000000
vn -0.858093 -0.513495 0.000000
vn -0.862206 -0.483522 0.151022
vn -0.862206 -0.483522 0.151022
vn -0.862206 -0.483522 0.151022
vn -0.862206 -0.483522 0.151022
vn -0.865415 -0.365603 0.342624
vn -0.865415 -0.365603 0.342624
vn -0.865415 -0.365603 0.342624
vn -0.865415 -0.365603 0.342624
vn -0.854469 -0.174113 0.489456
vn -0.854469 -0.174113 0.489456
vn -0.854469 -0.174113 0.489456
vn -0.854469 -0.174113 0.489456
vn -0.845696 -0.000001 0.533665
vn -0.845696 -0.000001 0.533665
vn -0.845696 -0.000001 0.533665
vn -0.845696 -0.000001 0.533665
vn 0.854469 -0.174112 0.489456
vn 0.854469 -0.174112 0.489456
vn 0.854469 -0.174112 0.489456
vn 0.854469 -0.174112 0.489456
vn 0.865415 -0.365603 0.342624
vn 0.865415 -0.365603 0.342624
vn 0.865415 -0.365603 0.342624
vn 0.865415 -0.365603 0.342624
vn 0.862206 -0.483523 0.151022
vn 0.862206 -0.483523 0.151022
vn 0.862206 -0.483523 0.151022
vn 0.862206 -0.483523 0.151022
vn 0.858092 -0.513495 0.000000
vn 0.858092 -0.513495 0.000000
vn 0.858092 -0.513495 0.000000
vn 0.858092 -0.513495 0.000000
vn 0.862206 -0.483522 -0.151022
vn 0.862206 -0.483522 -0.151022
vn 0.862206 -0.483522 -0.151022
vn 0.862206 -0.483522 -0.151022
vn 0.865416 -0.365603 -0.342623
vn 0.865416 -0.365603 -0.342623
vn 0.865416 -0.365603 -0.342623
vn 0.865416 -0.365603 -0.342623
vn 0.854469 -0.174111 -0.489456
vn 0.854469 -0.174111 -0.489456
vn 0.854469 -0.174111 -0.489456
vn 0.854469 -0.174111 -0.489456
vn 0.845696 0.000000 -0.533664
vn 0.845696 0.000000 -0.533664
vn 0.845696 0.000000 -0.533664
vn 0.845696 0.000000 -0.533664
vn 0.854454 0.174108 -0.489484
vn 0.854454 0.174108 -0.489484
vn 0.854454 0.174108 -0.489484
vn 0.854454 0.174108 -0.489484
vn 0.865415 0.365603 -0.342623
vn 0.865415 0.365603 -0.342623
vn 0.865415 0.365603 -0.342623
vn 0.865415 0.365603 -0.342623
vn 0.862207 0.483523 -0.151010
vn 0.862207 0.483523 -0.151010
vn 0.862207 0.483523 -0.151010
vn 0.862207 0.483523 -0.151010
vn 0.858093 0.513495 0.000000
vn 0.858093 0.513495 0.000000
vn 0.858093 0.513495 0.000000
vn 0.858093 0.513495 0.000000
vn 0.862208 0.483522 0.151011
vn 0.862208 0.483522 0.151011
vn 0.862208 0.483522 0.151011
vn 0.862208 0.483522 0.151011
vn 0.865416 0.365603 0.342623
vn 0.865416 0.365603 0.342623
vn 0.865416 0.365603 0.342623
vn 0.865416 0.365603 0.342623
vn 0.854454 0.174108 0.489484
vn 0.854454 0.174108 0.489484
vn 0.854454 0.174108 0.489484
vn 0.854454 0.174108 0.489484
vn 0.845696 -0.000001 0.533665
vn 0.845696 -0.000001 0.533665
vn 0.845696 -0.000001 0.533665
vn 0.845696 -0.000001 0.533665
vn 0.000000 0.342773 0.939418
vn 0.000000 0.342773 0.939418
vn 0.000000 0.342773 0.939418
vn 0.000000 0.342773 0.939418
vn 0.000000 0.738282 0.674492
vn 0.000000 0.738282 0.674492
vn 0.000000 0.738282 0.674492
vn 0.000000 0.738282 0.674492
vn 0.000000 0.956633 0.291295
vn 0.000000 0.956633 0.291295
vn 0.000000 0.956633 0.291295
vn 0.000000 0.956633 0.291295
vn 0.000000 1.000000 0.000000
vn 0.000000 1.000000 0.000000
vn 0.000000 1.000000 0.000000
vn 0.000000 1.000000 0.000000
vn 0.000000 0.956633 -0.291295
vn 0.000000 0.956633 -0.291295
vn 0.000000 0.956633 -0.291295
vn 0.000000 0.956633 -0.291295
vn 0.000000 0.738282 -0.674492
vn 0.000000 0.738282 -0.674492
vn 0.000000 0.738282 -0.674492
vn 0.000000 0.738282 -0.674492
vn 0.000000 0.342774 -0.939418
vn 0.000000 0.342774 -0.939418
vn 0.000000 0.342774 -0.939418
vn 0.000000 0.342774 -0.939418
vn 0.000000 0.000000 -1.000000
vn 0.000000 0.000000 -1.000000
vn 0.000000 0.000000 -1.000000
vn 0.000000 0.000000 -1.000000
vn 0.000000 -0.342767 -0.939421
vn 0.000000 -0.342767 -0.939421
vn 0.000000 -0.342767 -0.939421
vn 0.000000 -0.342767 -0.939421
vn 0.000000 -0.738282 -0.674492
vn 0.000000 -0.738282 -0.674492
vn 0.000000 -0.738282 -0.674492
vn 0.000000 -0.738282 -0.674492
vn 0.000000 -0.956639 -0.291277
vn 0.000000 -0.956639 -0.291277
vn 0.000000 -0.956639 -0.291277
vn 0.000000 -0.956639 -0.291277
vn 0.000000 -1.000000 0.000000
vn 0.000000 -1.000000 0.000000
vn 0.000000 -1.000000 0.000000
vn 0.000000 -1.000000 0.000000
vn 0.000000 -0.956639 0.291277
vn 0.000000 -0.956639 0.291277
vn 0.000000 -0.956639 0.291277
vn 0.000000 -0.956639 0.291277
vn 0.000000 -0.738282 0.674493
vn 0.000000 -0.738282 0.674493
vn 0.000000 -0.738282 0.674493
vn 0.000000 -0.738282 0.674493
vn 0.000000 -0.342770 0.939420
vn 0.000000 -0.342770 0.939420
vn 0.000000 -0.342770 0.939420
vn 0.000000 -0.342770 0.939420
vn 0.000000 -0.000001 1.000000
vn 0.000000 -0.000001 1.000000
vn 0.000000 -0.000001 1.000000
vn 0.000000 -0.000001 1.000000
vn 0.000000 -0.342770 0.939420
vn 0.000000 -0.342770 0.939420
vn 0.000000 -0.342770 0.939420
vn 0.000000 -0.342770 0.939420
vn 0.000000 -0.738282 0.674493
vn 0.000000 -0.738282 0.674493
vn 0.000000 -0.738282 0.674493
vn 0.000000 -0.738282 0.674493
vn 0.000000 -0.956639 0.291277
vn 0.000000 -0.956639 0.291277
vn 0.000000 -0.956639 0.291277
vn 0.000000 -0.956639 0.291277
vn 0.000000 -1.000000 0.000000
vn 0.000000 -1.000000 0.000000
vn 0.000000 -1.000000 0.000000
vn 0.000000 -1.000000 0.000000
vn 0.000000 -0.956639 -0.291277
vn 0.000000 -0.956639 -0.291277
vn 0.000000 -0.956639 -0.291277
vn 0.000000 -0.956639 -0.291277
vn 0.000000 -0.738282 -0.674492
vn 0.000000 -0.738282 -0.674492
vn 0.000000 -0.738282 -0.674492
vn 0.000000 -0.738282 -0.674492
vn 0.000000 -0.342767 -0.939421
vn 0.000000 -0.342767 -0.939421
vn 0.000000 -0.342767 -0.939421
vn 0.000000 -0.342767 -0.939421
vn 0.000000 0.000000 -1.000000
vn 0.000000 0.000000 -1.000000
vn 0.000000 0.000000 -1.000000
vn 0.000000 0.000000 -1.000000
vn 0.000000 0.342774 -0.939418
vn 0.000000 0.342774 -0.939418
vn 0.000000 0.342774 -0.939418
vn 0.000000 0.342774 -0.939418
vn 0.000000 0.738282 -0.674492
vn 0.000000 0.738282 -0.674492
vn 0.000000 0.738282 -0.674492
vn 0.000000 0.738282 -0.674492
vn 0.000000 0.956633 -0.291295
vn 0.000000 0.956633 -0.291295
vn 0.000000 0.956633 -0.291295
vn 0.000000 0.956633 -0.291295
vn 0.000000 1.000000 0.000000
vn 0.000000 1.000000 0.000000
vn 0.000000 1.000000 0.000000
vn 0.000000 1.000000 0.000000
vn 0.000000 0.956633 0.291295
vn 0.000000 0.956633 0.291295
vn 0.000000 0.956633 0.291295
vn 0.000000 0.956633 0.291295
vn 0.000000 0.738282 0.674492
vn 0.000000 0.738282 0.674492
vn 0.000000 0.738282 0.674492
vn 0.000000 0.738282 0.674492
vn 0.000000 0.342773 0.939418
vn 0.000000 0.342773 0.939418
vn 0.000000 0.342773 0.939418
vn 0.000000 0.342773 0.939418
vn 0.000000 -0.000001 1.000000
vn 0.000000 -0.000001 1.000000
vn 0.000000 -0.000001 1.000000
vn 0.000000 -0.000001 1.000000
s 1
g pCube4
usemtl openPBRSurface1SG
f 1/14/1 2/1/2 28/4/3 25/15/4
s 2
f 26/16/5 27/223/6 8/224/7 7/13/8
s off
f 7/185/9 8/186/10 2/1/11 1/14/12
s 3
f 2/1/13 8/2/14 27/3/15 28/4/16
s 4
f 7/13/17 1/14/18 25/15/19 26/16/20
s 5
f 9/40/21 10/115/22 36/102/23 33/41/24
s 6
f 11/233/25 12/234/26 48/235/27 45/236/28
s 7
f 34/53/29 35/187/30 16/188/31 15/52/32
s 8
f 46/239/33 47/240/34 10/241/35 9/242/36
s 9
f 103/25/37 102/26/38 73/27/39
s 4
f 29/22/40 30/21/41 3/23/42 5/24/43
s 2
f 5/231/44 6/232/45 32/230/46 29/229/47
s 3
f 31/10/48 32/9/49 6/11/50 4/12/51
s 1
f 30/220/52 31/219/53 4/221/54 3/222/55
s 4
f 18/18/56 17/17/57 22/19/58 21/20/59
s 1
f 17/216/60 20/215/61 23/217/62 22/218/63
s 3
f 20/6/64 19/5/65 24/7/66 23/8/67
s 2
f 21/227/68 24/228/69 19/226/70 18/225/71
s 4
f 26/16/20 25/15/19 17/17/57 18/18/56
s 2
f 18/225/71 19/226/70 27/223/6 26/16/5
s 3
f 28/4/16 27/3/15 19/5/65 20/6/64
s 1
f 25/15/4 28/4/3 20/215/61 17/216/60
s 4
f 21/20/59 22/19/58 30/21/41 29/22/40
s 1
f 22/218/63 23/217/62 31/219/53 30/220/52
s 3
f 23/8/67 24/7/66 32/9/49 31/10/48
s 2
f 29/229/47 32/230/46 24/228/69 21/227/68
s 7
f 13/80/72 14/190/73 40/189/74 37/68/75
s 14
f 111/85/76 110/86/77 75/87/78
s 5
f 38/46/79 39/100/80 12/101/81 11/61/82
f 33/41/24 36/102/23 39/100/80 38/46/79
s 7
f 37/68/75 40/189/74 35/187/30 34/53/29
s 9
f 84/71/83 83/79/84 65/72/85
s 8
f 15/52/86 16/188/87 43/244/88 42/243/89
s 14
f 92/132/90 91/139/91 67/133/92
s 6
f 41/238/93 44/237/94 14/190/95 13/80/96
s 8
f 42/243/89 43/244/88 47/240/34 46/239/33
s 6
f 45/236/28 48/235/27 44/237/94 41/238/93
s 9
f 37/68/97 51/67/98 55/70/99 41/69/100 13/80/101
f 15/52/102 42/37/103 56/36/104 53/51/105 34/53/106
s 14
f 50/127/107 57/131/108 43/130/109 16/140/110 35/128/111
f 44/98/112 58/97/113 54/111/114 40/112/115 14/113/116
s 9
f 45/60/117 61/55/118 59/42/119 38/46/120 11/61/121
f 49/31/122 62/30/123 46/38/124 9/40/125 33/41/126
s 14
f 10/115/127 47/116/128 63/117/129 60/103/130 36/102/131
f 39/100/132 52/91/133 64/90/134 48/94/135 12/101/136
s 9
f 97/56/137 66/73/138 98/57/139
f 82/78/140 81/145/141 69/65/142
f 41/69/100 55/70/99 84/71/83 65/72/85 66/73/138 97/56/137 61/55/118 45/60/117
f 100/146/143 99/58/144 77/44/145
s 14
f 105/118/146 68/129/147 106/119/148
f 90/138/149 89/147/150 71/125/151
f 68/129/147 105/118/146 63/117/129 47/116/128 43/130/109 57/131/108 92/132/90 67/133/92
f 108/148/152 107/120/153 79/105/154
s 9
f 86/49/155 70/64/156 87/149/157
f 55/70/99 51/67/98 81/66/141 82/78/140 83/79/84 84/71/83
f 34/53/106 53/51/105 87/50/157 70/64/156 69/65/142 81/66/141 51/67/98 37/68/97
s 14
f 94/109/158 72/124/159 95/150/160
f 57/131/108 50/127/107 89/126/150 90/138/149 91/139/91 92/132/90
f 54/111/114 95/110/160 72/124/159 71/125/151 89/126/150 50/127/107 35/128/111 40/112/115
s 9
f 88/35/161 74/34/162 85/48/163
f 74/34/162 88/35/161 56/36/104 42/37/103 46/38/124 62/30/123 103/25/37 73/27/39
f 88/35/161 85/48/163 86/49/155 87/50/157 53/51/105 56/36/104
s 14
f 96/96/164 76/95/165 93/108/166
f 48/94/135 64/90/134 111/85/76 75/87/78 76/95/165 96/96/164 58/97/113 44/98/112
f 96/96/164 93/108/166 94/109/158 95/110/160 54/111/114 58/97/113
s 9
f 104/151/167 78/45/168 101/29/169
f 61/55/118 97/56/137 98/57/139 99/58/144 100/43/143 59/42/119
f 59/42/119 100/43/143 77/44/145 78/45/168 104/28/167 49/31/122 33/41/126 38/46/120
s off
f 146/152/170 145/153/171 147/154/172 148/155/173 149/156/174 150/157/175 151/158/176 152/159/177 153/160/178 154/161/179 155/162/180 156/163/181 157/164/182 158/165/183 159/166/184 160/167/185
s 9
f 104/28/167 101/29/169 102/26/38 103/25/37 62/30/123 49/31/122
s 14
f 112/168/186 80/106/187 109/89/188
f 63/117/129 105/118/146 106/119/148 107/120/153 108/104/152 60/103/130
f 36/102/131 60/103/130 108/104/152 79/105/154 80/106/187 112/88/186 52/91/133 39/100/132
s off
f 162/169/189 161/170/190 163/171/191 164/172/192 165/173/193 166/174/194 167/175/195 168/176/196 169/177/197 170/178/198 171/179/199 172/180/200 173/181/201 174/182/202 175/183/203 176/184/204
s 14
f 112/88/186 109/89/188 110/86/77 111/85/76 64/90/134 52/91/133
s off
f 65/72/205 83/79/206 113/84/207 114/81/208
f 83/79/209 82/78/210 115/83/211 113/84/212
f 82/78/213 69/65/214 116/77/215 115/83/216
f 69/65/217 70/64/218 117/76/219 116/77/220
f 70/64/221 86/49/222 118/63/223 117/76/224
f 86/49/225 85/48/226 119/62/227 118/63/228
f 85/48/229 74/34/230 120/47/231 119/62/232
f 74/34/233 73/27/234 121/33/235 120/47/236
f 73/27/237 102/26/238 122/32/239 121/33/240
f 102/26/241 101/29/242 123/39/243 122/32/244
f 101/29/245 78/45/246 124/54/247 123/39/248
f 78/45/249 77/44/250 125/59/251 124/54/252
f 77/44/253 99/58/254 126/75/255 125/59/256
f 99/58/257 98/57/258 127/74/259 126/75/260
f 98/57/261 66/73/262 128/82/263 127/74/264
f 66/73/265 65/72/266 114/81/267 128/82/268
f 75/87/269 110/86/270 129/92/271 130/93/272
f 110/86/273 109/89/274 131/99/275 129/92/276
f 109/89/277 80/106/278 132/114/279 131/99/280
f 80/106/281 79/105/282 133/121/283 132/114/284
f 79/105/285 107/120/286 134/135/287 133/121/288
f 107/120/289 106/119/290 135/134/291 134/135/292
f 106/119/293 68/129/294 136/142/295 135/134/296
f 68/129/297 67/133/298 137/141/299 136/142/300
f 67/133/301 91/139/302 138/144/303 137/141/304
f 91/139/305 90/138/306 139/143/307 138/144/308
f 90/138/309 71/125/310 140/137/311 139/143/312
f 71/125/313 72/124/314 141/136/315 140/137/316
f 72/124/317 94/109/318 142/123/319 141/136/320
f 94/109/321 93/108/322 143/122/323 142/123/324
f 93/108/325 76/95/326 144/107/327 143/122/328
f 76/95/329 75/87/330 130/93/331 144/107/332
f 114/245/333 113/246/334 145/153/335 146/152/336
f 113/194/337 115/191/338 147/154/339 145/153/340
f 115/191/341 116/192/342 148/155/343 147/154/344
f 116/192/345 117/193/346 149/156/347 148/155/348
f 117/193/349 118/195/350 150/157/351 149/156/352
f 118/195/353 119/196/354 151/158/355 150/157/356
f 119/249/357 120/250/358 152/159/359 151/158/360
f 120/250/361 121/251/362 153/160/363 152/159/364
f 121/251/365 122/252/366 154/161/367 153/160/368
f 122/200/369 123/197/370 155/162/371 154/161/372
f 123/197/373 124/198/374 156/163/375 155/162/376
f 124/198/377 125/199/378 157/164/379 156/163/380
f 125/199/381 126/201/382 158/165/383 157/164/384
f 126/201/385 127/202/386 159/166/387 158/165/388
f 127/248/389 128/247/390 160/167/391 159/166/392
f 128/247/393 114/245/394 146/152/395 160/167/396
f 130/253/397 129/254/398 161/170/399 162/169/400
f 129/206/401 131/203/402 163/171/403 161/170/404
f 131/203/405 132/204/406 164/172/407 163/171/408
f 132/204/409 133/205/410 165/173/411 164/172/412
f 133/205/413 134/207/414 166/174/415 165/173/416
f 134/207/417 135/208/418 167/175/419 166/174/420
f 135/257/421 136/258/422 168/176/423 167/175/424
f 136/258/425 137/259/426 169/177/427 168/176/428
f 137/259/429 138/260/430 170/178/431 169/177/432
f 138/212/433 139/209/434 171/179/435 170/178/436
f 139/209/437 140/210/438 172/180/439 171/179/440
f 140/210/441 141/211/442 173/181/443 172/180/444
f 141/211/445 142/213/446 174/182/447 173/181/448
f 142/213/449 143/214/450 175/183/451 174/182/452
f 143/256/453 144/255/454 176/184/455 175/183/456
f 144/255/457 130/253/458 162/169/459 176/184/460
