# This file uses centimeters as units for non-parametric coordinates.

mtllib e.g.,OrnateRailwayV001.mtl
g default
v -0.034738 0.018504 0.023264
v 0.034738 0.018504 0.023264
v -0.034738 1.117375 0.057445
v 0.034738 1.117375 0.057445
v -0.034738 1.117375 -0.057445
v 0.034738 1.117375 -0.057445
v -0.034738 0.018504 -0.023264
v 0.034738 0.018504 -0.023264
v -0.034738 1.113518 -0.506493
v 0.034738 1.113518 -0.506493
v -0.034738 1.113518 0.506493
v 0.034738 1.113518 0.506493
v -0.034738 1.160045 0.506493
v 0.034738 1.160045 0.506493
v -0.034738 1.160045 -0.506493
v 0.034738 1.160045 -0.506493
v -0.034738 0.614463 0.043031
v -0.034738 0.614463 -0.043031
v 0.034738 0.614463 -0.043031
v 0.034738 0.614463 0.043031
v -0.034738 0.671031 -0.023264
v -0.034738 0.671031 0.023264
v 0.034738 0.671031 0.023264
v 0.034738 0.671031 -0.023264
v -0.034738 0.559204 0.023264
v -0.034738 0.559204 -0.023264
v 0.034738 0.559204 -0.023264
v 0.034738 0.559204 0.023264
v -0.034738 1.070995 -0.023264
v -0.034738 1.070995 0.023264
v 0.034738 1.070995 0.023264
v 0.034738 1.070995 -0.023264
v -0.034738 1.113518 -0.012012
v -0.034738 1.160045 -0.012012
v 0.034738 1.160045 -0.012012
v 0.034738 1.113518 -0.012012
v -0.034738 1.160045 0.006745
v -0.034738 1.113518 0.006745
v 0.034738 1.113518 0.006745
v 0.034738 1.160045 0.006745
v -0.034738 1.146103 0.506493
v -0.034738 1.146103 -0.506493
v 0.034738 1.146103 -0.506493
v 0.034738 1.146103 0.506493
v -0.034738 1.128967 0.506493
v -0.034738 1.128967 -0.506493
v 0.034738 1.128967 -0.506493
v 0.034738 1.128967 0.506493
v -0.034738 1.125105 -0.012012
v 0.034738 1.149589 -0.012012
v -0.034738 1.149589 0.006745
v 0.034738 1.125105 0.006745
v -0.034738 1.149589 -0.012012
v 0.034738 1.149589 0.006745
v -0.034738 1.146103 0.131682
v -0.034738 1.146103 -0.135632
v 0.034738 1.146103 -0.135632
v 0.034738 1.146103 0.131682
v -0.034738 1.125105 0.006745
v 0.034738 1.125105 -0.012012
v -0.034738 1.128967 0.131682
v -0.034738 1.128967 -0.135632
v 0.034738 1.128967 -0.135632
v 0.034738 1.128967 0.131682
v -0.034738 1.140668 0.010504
v -0.034738 1.134402 0.010504
v 0.034738 1.140668 -0.015771
v 0.034738 1.134402 -0.015771
v -0.034738 1.150067 0.000651
v -0.034738 1.150067 -0.005918
v 0.034738 1.150067 -0.005918
v 0.034738 1.150067 0.000651
v -0.034738 1.134402 -0.015771
v -0.034738 1.140668 -0.015771
v 0.034738 1.134402 0.010504
v 0.034738 1.140668 0.010504
v -0.034738 1.125003 0.000651
v -0.034738 1.125003 -0.005918
v 0.034738 1.125003 -0.005918
v 0.034738 1.125003 0.000651
v -0.034738 1.146975 0.003228
v -0.034738 1.148501 0.005578
v -0.034738 1.145368 0.008862
v -0.034738 1.142890 0.037979
v -0.034738 1.145368 -0.014129
v -0.034738 1.148501 -0.010845
v -0.034738 1.146975 -0.008495
v -0.034738 1.142890 -0.042917
v 0.034738 1.146975 -0.008495
v 0.034738 1.148501 -0.010845
v 0.034738 1.145368 -0.014129
v 0.034738 1.142890 -0.042917
v 0.034738 1.145368 0.008862
v 0.034738 1.148501 0.005578
v 0.034738 1.146975 0.003228
v 0.034738 1.142890 0.037979
v -0.034738 1.132180 0.037979
v -0.034738 1.129703 0.008862
v -0.034738 1.126570 0.005578
v -0.034738 1.128002 0.003228
v -0.034738 1.126570 -0.010845
v -0.034738 1.129703 -0.014129
v -0.034738 1.132180 -0.042917
v -0.034738 1.128002 -0.008495
v 0.034738 1.132180 -0.042917
v 0.034738 1.129703 -0.014129
v 0.034738 1.126570 -0.010845
v 0.034738 1.128002 -0.008495
v 0.034738 1.126570 0.005578
v 0.034738 1.129703 0.008862
v 0.034738 1.132180 0.037979
v 0.034738 1.128002 0.003228
v -0.037110 1.142890 0.005573
v -0.037110 1.139677 0.006745
v -0.037110 1.145032 0.003228
v -0.037110 1.146103 -0.000289
v -0.037110 1.146103 -0.004978
v -0.037110 1.145032 -0.008495
v -0.037110 1.142890 -0.010840
v -0.037110 1.139677 -0.012012
v -0.037110 1.135393 -0.012012
v -0.037110 1.132180 -0.010840
v -0.037110 1.130038 -0.008495
v -0.037110 1.128967 -0.004978
v -0.037110 1.128967 -0.000289
v -0.037110 1.130038 0.003228
v -0.037110 1.132180 0.005573
v -0.037110 1.135393 0.006745
v 0.037110 1.132180 0.005573
v 0.037110 1.135393 0.006745
v 0.037110 1.130038 0.003228
v 0.037110 1.128967 -0.000289
v 0.037110 1.128967 -0.004978
v 0.037110 1.130038 -0.008495
v 0.037110 1.132180 -0.010840
v 0.037110 1.135393 -0.012012
v 0.037110 1.139677 -0.012012
v 0.037110 1.142890 -0.010840
v 0.037110 1.145032 -0.008495
v 0.037110 1.146103 -0.004978
v 0.037110 1.146103 -0.000289
v 0.037110 1.145032 0.003228
v 0.037110 1.142890 0.005573
v 0.037110 1.139677 0.006745
v -0.040205 1.142890 0.005573
v -0.040205 1.139677 0.006745
v -0.040205 1.145032 0.003228
v -0.040205 1.146103 -0.000289
v -0.040205 1.146103 -0.004978
v -0.040205 1.145032 -0.008495
v -0.040205 1.142890 -0.010840
v -0.040205 1.139677 -0.012012
v -0.040205 1.135393 -0.012012
v -0.040205 1.132180 -0.010840
v -0.040205 1.130038 -0.008495
v -0.040205 1.128967 -0.004978
v -0.040205 1.128967 -0.000289
v -0.040205 1.130038 0.003228
v -0.040205 1.132180 0.005573
v -0.040205 1.135393 0.006745
v 0.040205 1.132180 0.005573
v 0.040205 1.135393 0.006745
v 0.040205 1.130038 0.003228
v 0.040205 1.128967 -0.000289
v 0.040205 1.128967 -0.004978
v 0.040205 1.130038 -0.008495
v 0.040205 1.132180 -0.010840
v 0.040205 1.135393 -0.012012
v 0.040205 1.139677 -0.012012
v 0.040205 1.142890 -0.010840
v 0.040205 1.145032 -0.008495
v 0.040205 1.146103 -0.004978
v 0.040205 1.146103 -0.000289
v 0.040205 1.145032 0.003228
v 0.040205 1.142890 0.005573
v 0.040205 1.139677 0.006745
vt 0.508623 0.191143
vt 0.550795 0.191143
vt 0.550795 0.681233
vt 0.508623 0.681233
vt 0.568712 0.731320
vt 0.490706 0.731320
vt 0.550795 0.782593
vt 0.508623 0.782593
vt 0.550795 1.145120
vt 0.508623 1.145120
vt 0.581777 1.187159
vt 0.477640 1.187159
vt 0.403477 0.191143
vt 0.445649 0.191143
vt 0.445649 0.681233
vt 0.403477 0.681233
vt 0.463566 0.731320
vt 0.385560 0.731320
vt 0.445649 0.782593
vt 0.403477 0.782593
vt 0.445649 1.145120
vt 0.403477 1.145120
vt 0.476632 1.187159
vt 0.372495 1.187159
vt 0.495600 1.382056
vt 0.469499 1.384209
vt 0.471003 1.379955
vt 0.464387 1.385733
vt 0.466507 1.387022
vt 0.579627 1.385266
vt 0.467565 1.388370
vt 0.466526 1.381953
vt 0.467598 1.379045
vt 0.471023 1.374275
vt 0.495635 1.372349
vt 0.579682 1.369734
vt 0.915827 1.370926
vt 0.915773 1.386458
vt 0.464393 1.383887
vt 0.915723 1.400461
vt 0.467528 1.398872
vt 0.450564 1.388309
vt 0.453761 1.385695
vt 0.456087 1.388421
vt 0.462047 1.388459
vt 0.450527 1.398812
vt 0.467612 1.375161
vt 0.469550 1.370010
vt 0.466582 1.367162
vt 0.464448 1.368536
vt 0.467644 1.366178
vt 0.915872 1.358289
vt 0.467678 1.356700
vt 0.461202 1.384846
vt 0.337335 1.384407
vt 0.422276 1.381796
vt 0.448660 1.384135
vt 0.451627 1.386986
vt 0.456952 1.384831
vt -0.002392 1.383203
vt -0.002442 1.397206
vt 0.466560 1.372246
vt 0.464442 1.370296
vt 0.462123 1.365722
vt 0.456165 1.365694
vt 0.453822 1.368498
vt 0.450643 1.366117
vt 0.450676 1.356640
vt -0.002337 1.367671
vt 0.337390 1.368875
vt 0.422311 1.372089
vt 0.447207 1.374191
vt 0.447187 1.379870
vt 0.451650 1.381900
vt 0.453768 1.383849
vt 0.461257 1.369314
vt 0.457007 1.369299
vt 0.451701 1.367117
vt 0.448711 1.369936
vt -0.002292 1.355034
vt 0.450611 1.375101
vt 0.450597 1.378984
vt 0.453816 1.370259
vt 0.451684 1.372193
vt 0.421933 1.478600
vt 0.448333 1.476448
vt 0.446829 1.480702
vt 0.453445 1.474924
vt 0.451320 1.473618
vt 0.337012 1.475387
vt 0.450267 1.472287
vt 0.451306 1.478704
vt 0.450233 1.481613
vt -0.002714 1.474182
vt 0.446809 1.486382
vt 0.421899 1.488307
vt 0.336957 1.490919
vt -0.002769 1.489714
vt 0.453438 1.476770
vt 0.450304 1.461785
vt -0.002665 1.460179
vt 0.467305 1.461845
vt 0.467268 1.472347
vt 0.464071 1.474962
vt 0.461746 1.472232
vt 0.455791 1.472216
vt 0.450220 1.485496
vt 0.448282 1.490647
vt 0.451244 1.493515
vt 0.453384 1.492121
vt 0.450188 1.494479
vt 0.450154 1.503957
vt -0.002814 1.502351
vt 0.456630 1.475811
vt 0.915500 1.463434
vt 0.915450 1.477437
vt 0.579304 1.476246
vt 0.495257 1.478860
vt 0.469172 1.476522
vt 0.466204 1.473675
vt 0.460880 1.475826
vt 0.451272 1.488412
vt 0.453390 1.490361
vt 0.455716 1.494915
vt 0.461667 1.494963
vt 0.464010 1.492159
vt 0.467189 1.494539
vt 0.467155 1.504017
vt 0.470645 1.480787
vt 0.915395 1.492970
vt 0.579249 1.491778
vt 0.495223 1.488567
vt 0.470625 1.486466
vt 0.466182 1.478757
vt 0.464064 1.476808
vt 0.456574 1.491343
vt 0.460825 1.491358
vt 0.466132 1.493541
vt 0.469121 1.490721
vt 0.915350 1.505606
vt 0.467221 1.485556
vt 0.467235 1.481673
vt 0.464016 1.490399
vt 0.466148 1.488464
vt 0.452631 1.364762
vt 0.452608 1.389279
vt 0.465199 1.495896
vt 0.465229 1.471382
vt 0.465655 1.364800
vt 0.452207 1.495880
vt 0.465539 1.389306
vt -0.065146 1.445660
vt -0.077268 1.443532
vt -0.080418 1.436397
vt -0.081946 1.426517
vt -0.081977 1.413342
vt -0.080496 1.403459
vt -0.075991 1.395752
vt -0.065452 1.394062
vt -0.053415 1.394044
vt -0.042875 1.395675
vt -0.038350 1.403358
vt -0.036840 1.413238
vt -0.036833 1.426413
vt -0.038332 1.436296
vt -0.042586 1.443983
vt -0.053109 1.445643
vt 0.452318 1.471332
vt 0.953461 1.448436
vt 0.941436 1.446242
vt 0.938420 1.439122
vt 0.936906 1.429241
vt 0.936892 1.416065
vt 0.938386 1.406183
vt 0.941388 1.399052
vt 0.953436 1.396849
vt 0.965474 1.396833
vt 0.977506 1.399023
vt 0.980520 1.406164
vt 0.982031 1.416045
vt 0.982041 1.429221
vt 0.980543 1.439103
vt 0.977539 1.446256
vt 0.965498 1.448454
vt 0.445649 0.148971
vt 0.508623 0.148971
vt 0.467901 1.293727
vt 0.916096 1.295316
vt 0.450899 1.293667
vt -0.002069 1.292062
vt -0.089081 1.436483
vt -0.089117 1.426602
vt -0.089165 1.413427
vt -0.089057 1.443071
vt -0.089201 1.403545
vt -0.089225 1.396958
vt -0.029645 1.403358
vt -0.029645 1.413239
vt -0.029645 1.426415
vt -0.029645 1.396770
vt -0.029645 1.436296
vt -0.029645 1.442884
vt 0.929732 1.439134
vt 0.929717 1.429253
vt 0.929697 1.416077
vt 0.929743 1.445722
vt 0.929682 1.406196
vt 0.929672 1.399608
vt 0.989213 1.406157
vt 0.989223 1.416039
vt 0.989234 1.429214
vt 0.989207 1.399570
vt 0.989244 1.439096
vt 0.989250 1.445683
vt 0.508623 0.731320
vt 0.445649 0.731320
vt 0.508623 0.782593
vt 0.445649 0.782593
vt 0.508623 1.145120
vt 0.445649 1.145120
vt 0.508623 1.187159
vt 0.445649 1.187159
vt 0.340504 0.681233
vt 0.340504 0.191143
vt 0.403477 0.731320
vt 0.340504 0.731320
vt 0.403477 0.782593
vt 0.340504 0.782593
vt 0.403477 1.145120
vt 0.340504 1.145120
vt 0.403477 1.187159
vt 0.340504 1.187159
vt -0.044463 1.354886
vt -0.044242 1.291913
vt -0.030239 1.291963
vt -0.030460 1.354935
vt -0.014707 1.292017
vt -0.014928 1.354990
vt 0.944041 1.358389
vt 0.944265 1.295416
vt 0.958268 1.295466
vt 0.958044 1.358439
vt 0.928508 1.358334
vt 0.928733 1.295361
vt -0.064883 1.453809
vt -0.073911 1.453823
vt -0.052846 1.453789
vt -0.043819 1.453774
vt -0.074497 1.385941
vt -0.065470 1.385922
vt -0.053432 1.385898
vt -0.044405 1.385880
vt 0.953431 1.456571
vt 0.944404 1.456540
vt 0.965468 1.456612
vt 0.974495 1.456643
vt 0.944391 1.388727
vt 0.953418 1.388707
vt 0.965455 1.388681
vt 0.974482 1.388662
vn 0.000000 0.000000 1.000000
vn 0.000000 0.000000 1.000000
vn 0.000000 -0.033150 0.999450
vn 0.000000 -0.033150 0.999450
vn 0.000000 -0.033150 -0.999450
vn 0.000000 -0.033150 -0.999450
vn 0.000000 0.000000 -1.000000
vn 0.000000 0.000000 -1.000000
vn 0.000000 -1.000000 0.000000
vn 0.000000 -1.000000 0.000000
vn 0.000000 -1.000000 0.000000
vn 0.000000 -1.000000 0.000000
vn 1.000000 0.000000 0.000000
vn 1.000000 0.000000 0.000000
vn 1.000000 -0.000000 0.000000
vn 1.000000 -0.000000 0.000000
vn -1.000000 0.000000 0.000000
vn -1.000000 0.000000 0.000000
vn -1.000000 -0.000000 0.000000
vn -1.000000 -0.000000 0.000000
vn 0.000000 -1.000000 0.000000
vn 0.000000 -1.000000 0.000000
vn 0.000000 -1.000000 0.000000
vn 0.000000 -1.000000 0.000000
vn 0.000000 0.000000 1.000000
vn 0.000000 0.000000 1.000000
vn 0.000000 0.000000 1.000000
vn 0.000000 0.000000 1.000000
vn 0.000000 1.000000 0.000000
vn 0.000000 1.000000 0.000000
vn 0.000000 1.000000 0.000000
vn 0.000000 1.000000 0.000000
vn 0.000000 0.000000 -1.000000
vn 0.000000 0.000000 -1.000000
vn 0.000000 0.000000 -1.000000
vn 0.000000 0.000000 -1.000000
vn -1.000000 0.000000 0.000000
vn -1.000000 0.000002 0.000001
vn -1.000000 -0.000000 0.000000
vn -1.000000 0.000000 0.000000
vn -1.000000 0.000000 0.000000
vn -1.000000 0.000000 0.000000
vn -1.000000 0.000000 0.000000
vn 0.000000 -0.593277 -0.804998
vn 0.000000 -0.593277 -0.804998
vn 0.000000 -0.076358 -0.997081
vn 0.000000 -0.076358 -0.997081
vn 1.000000 0.000000 0.000000
vn 1.000000 0.000000 0.000000
vn 1.000000 0.000000 0.000000
vn 1.000000 0.000000 0.000000
vn 0.000000 -0.076358 0.997081
vn 0.000000 -0.076358 0.997081
vn 0.000000 -0.593277 0.804998
vn 0.000000 -0.593277 0.804998
vn -1.000000 0.000000 0.000000
vn -1.000000 0.000000 0.000000
vn -1.000000 0.000000 0.000000
vn -1.000000 0.000000 0.000000
vn 0.000000 0.000000 1.000000
vn 0.000000 0.000000 1.000000
vn 0.000000 0.043258 0.999064
vn 0.000000 0.043258 0.999064
vn 1.000000 0.000000 0.000000
vn 1.000000 0.000000 0.000000
vn 1.000000 0.000000 0.000000
vn 1.000000 0.000000 0.000000
vn 0.000000 0.043258 -0.999064
vn 0.000000 0.043258 -0.999064
vn 0.000000 0.000000 -1.000000
vn 0.000000 0.000000 -1.000000
vn 0.000000 1.000000 0.000000
vn 0.000000 1.000000 0.000000
vn 0.000000 1.000000 0.000000
vn 0.000000 1.000000 0.000000
vn 1.000000 0.000000 -0.000000
vn 1.000000 0.000003 -0.000001
vn 1.000000 -0.000000 -0.000000
vn 0.000000 -1.000000 0.000000
vn 0.000000 -1.000000 0.000000
vn 0.000000 -1.000000 0.000000
vn 0.000000 -1.000000 0.000000
vn -1.000000 -0.000000 -0.000000
vn -1.000000 -0.000004 -0.000001
vn -1.000000 0.000000 -0.000000
vn 0.000000 0.000000 -1.000000
vn 0.000000 0.000000 -1.000000
vn 0.000000 0.000000 -1.000000
vn 0.000000 0.000000 -1.000000
vn 1.000000 -0.000000 0.000000
vn 1.000000 -0.000003 0.000001
vn 1.000000 0.000000 0.000000
vn 0.000000 0.000000 1.000000
vn 0.000000 0.000000 1.000000
vn 0.000000 0.000000 1.000000
vn 0.000000 0.000000 1.000000
vn -1.000000 0.000000 0.000000
vn -1.000000 -0.000000 -0.000000
vn -1.000000 0.000000 -0.000000
vn -1.000000 0.000000 -0.000000
vn -1.000000 0.000000 0.000000
vn -1.000000 0.000000 0.000000
vn -1.000000 -0.000000 0.000000
vn -1.000000 -0.000000 0.000000
vn -1.000000 -0.000000 0.000000
vn -1.000000 -0.000000 0.000000
vn 1.000000 -0.000000 0.000000
vn 1.000000 0.000000 0.000000
vn 1.000000 0.000000 0.000000
vn 1.000000 0.000000 0.000000
vn 1.000000 -0.000000 0.000000
vn 1.000000 0.000000 -0.000000
vn 1.000000 0.000000 -0.000000
vn 1.000000 -0.000000 -0.000000
vn 1.000000 0.000000 0.000000
vn 1.000000 0.000000 0.000000
vn -1.000000 0.000000 -0.000000
vn -1.000000 0.000000 -0.000000
vn -1.000000 0.000000 -0.000000
vn -1.000000 0.000000 0.000000
vn -1.000000 0.000000 0.000000
vn -1.000000 0.000000 0.000000
vn -1.000000 -0.000000 0.000000
vn -1.000000 -0.000000 0.000000
vn -1.000000 0.000000 0.000000
vn -1.000000 0.000000 0.000000
vn 1.000000 0.000000 0.000000
vn 1.000000 0.000000 0.000000
vn 1.000000 0.000000 0.000000
vn 1.000000 0.000000 0.000000
vn 1.000000 0.000000 0.000000
vn 1.000000 0.000000 0.000000
vn 1.000000 0.000000 -0.000000
vn 1.000000 -0.000000 -0.000000
vn 1.000000 -0.000000 -0.000000
vn 1.000000 0.000000 0.000000
vn -1.000000 0.000000 -0.000000
vn -1.000000 0.000000 -0.000000
vn -1.000000 0.000003 -0.000001
vn -1.000000 -0.000004 -0.000001
vn -1.000000 -0.000004 -0.000000
vn -1.000000 -0.000003 -0.000000
vn -1.000000 0.000004 -0.000000
vn -1.000000 0.000003 -0.000001
vn -1.000000 0.000003 -0.000000
vn 1.000000 0.000000 0.000000
vn 1.000000 0.000000 0.000000
vn 1.000000 0.000002 0.000001
vn 1.000000 -0.000004 0.000001
vn 1.000000 -0.000004 0.000000
vn 1.000000 -0.000004 0.000000
vn 1.000000 0.000003 0.000000
vn 1.000000 0.000002 0.000001
vn 1.000000 0.000003 0.000000
vn -1.000000 -0.000004 0.000001
vn -1.000000 -0.000003 0.000000
vn -1.000000 -0.000004 0.000000
vn 1.000000 -0.000003 -0.000001
vn 1.000000 -0.000004 -0.000000
vn 1.000000 -0.000004 -0.000000
vn -1.000000 -0.000000 0.000000
vn -1.000000 -0.000000 0.000000
vn -1.000000 -0.000003 0.000001
vn 1.000000 -0.000000 -0.000000
vn 1.000000 -0.000000 -0.000000
vn 1.000000 -0.000003 -0.000001
vn -1.000000 0.000004 0.000000
vn -1.000000 0.000003 0.000000
vn -1.000000 0.000003 0.000001
vn -1.000000 -0.000000 0.000000
vn -1.000000 -0.000000 0.000000
vn -1.000000 -0.000000 0.000000
vn -1.000000 -0.000000 0.000000
vn -1.000000 -0.000000 0.000000
vn -1.000000 -0.000000 0.000000
vn -1.000000 -0.000000 0.000000
vn -1.000000 -0.000000 0.000000
vn -1.000000 -0.000000 0.000000
vn -1.000000 -0.000000 0.000000
vn -1.000000 -0.000000 0.000000
vn -1.000000 -0.000000 0.000000
vn -1.000000 -0.000000 0.000000
vn -1.000000 -0.000000 0.000000
vn -1.000000 -0.000000 0.000000
vn -1.000000 -0.000000 0.000000
vn 1.000000 0.000003 -0.000000
vn 1.000000 0.000003 -0.000000
vn 1.000000 0.000003 -0.000001
vn 1.000000 -0.000000 0.000000
vn 1.000000 -0.000000 0.000000
vn 1.000000 -0.000000 0.000000
vn 1.000000 -0.000000 0.000000
vn 1.000000 -0.000000 0.000000
vn 1.000000 -0.000000 0.000000
vn 1.000000 -0.000000 0.000000
vn 1.000000 -0.000000 0.000000
vn 1.000000 -0.000000 0.000000
vn 1.000000 -0.000000 0.000000
vn 1.000000 -0.000000 0.000000
vn 1.000000 -0.000000 0.000000
vn 1.000000 -0.000000 0.000000
vn 1.000000 -0.000000 0.000000
vn 1.000000 -0.000000 0.000000
vn 1.000000 -0.000000 0.000000
vn -0.854454 0.174108 0.489484
vn -0.854454 0.174108 0.489484
vn -0.854454 0.174108 0.489484
vn -0.854454 0.174108 0.489484
vn -0.865416 0.365603 0.342623
vn -0.865416 0.365603 0.342623
vn -0.865416 0.365603 0.342623
vn -0.865416 0.365603 0.342623
vn -0.862208 0.483523 0.151011
vn -0.862208 0.483523 0.151011
vn -0.862208 0.483523 0.151011
vn -0.862207 0.483522 0.151011
vn -0.858093 0.513495 0.000000
vn -0.858093 0.513495 0.000000
vn -0.858093 0.513495 0.000000
vn -0.858092 0.513495 0.000000
vn -0.862207 0.483523 -0.151010
vn -0.862207 0.483523 -0.151010
vn -0.862207 0.483523 -0.151010
vn -0.862207 0.483523 -0.151010
vn -0.865415 0.365603 -0.342623
vn -0.865415 0.365603 -0.342623
vn -0.865416 0.365603 -0.342623
vn -0.865415 0.365603 -0.342623
vn -0.854454 0.174109 -0.489484
vn -0.854454 0.174109 -0.489484
vn -0.854454 0.174109 -0.489484
vn -0.854454 0.174109 -0.489484
vn -0.845696 0.000000 -0.533664
vn -0.845696 0.000000 -0.533664
vn -0.845696 0.000000 -0.533664
vn -0.845696 0.000000 -0.533664
vn -0.854469 -0.174111 -0.489456
vn -0.854470 -0.174112 -0.489456
vn -0.854469 -0.174112 -0.489456
vn -0.854470 -0.174112 -0.489456
vn -0.865416 -0.365603 -0.342623
vn -0.865415 -0.365603 -0.342623
vn -0.865416 -0.365603 -0.342623
vn -0.865416 -0.365603 -0.342623
vn -0.862206 -0.483522 -0.151022
vn -0.862206 -0.483522 -0.151022
vn -0.862206 -0.483522 -0.151022
vn -0.862206 -0.483522 -0.151022
vn -0.858093 -0.513495 0.000000
vn -0.858093 -0.513495 0.000000
vn -0.858093 -0.513495 0.000000
vn -0.858093 -0.513495 0.000000
vn -0.862206 -0.483522 0.151022
vn -0.862206 -0.483522 0.151022
vn -0.862206 -0.483522 0.151022
vn -0.862206 -0.483522 0.151022
vn -0.865415 -0.365603 0.342624
vn -0.865415 -0.365603 0.342624
vn -0.865415 -0.365603 0.342624
vn -0.865415 -0.365603 0.342624
vn -0.854469 -0.174113 0.489456
vn -0.854469 -0.174113 0.489456
vn -0.854469 -0.174113 0.489456
vn -0.854469 -0.174113 0.489456
vn -0.845696 -0.000001 0.533665
vn -0.845696 -0.000001 0.533665
vn -0.845696 -0.000001 0.533665
vn -0.845696 -0.000001 0.533665
vn 0.854469 -0.174112 0.489456
vn 0.854469 -0.174112 0.489456
vn 0.854469 -0.174112 0.489456
vn 0.854469 -0.174112 0.489456
vn 0.865415 -0.365603 0.342624
vn 0.865415 -0.365603 0.342624
vn 0.865415 -0.365603 0.342624
vn 0.865415 -0.365603 0.342624
vn 0.862206 -0.483523 0.151022
vn 0.862206 -0.483523 0.151022
vn 0.862206 -0.483523 0.151022
vn 0.862206 -0.483523 0.151022
vn 0.858092 -0.513495 0.000000
vn 0.858092 -0.513495 0.000000
vn 0.858092 -0.513495 0.000000
vn 0.858092 -0.513495 0.000000
vn 0.862206 -0.483522 -0.151022
vn 0.862206 -0.483522 -0.151022
vn 0.862206 -0.483522 -0.151022
vn 0.862206 -0.483522 -0.151022
vn 0.865416 -0.365603 -0.342623
vn 0.865416 -0.365603 -0.342623
vn 0.865416 -0.365603 -0.342623
vn 0.865416 -0.365603 -0.342623
vn 0.854469 -0.174111 -0.489456
vn 0.854469 -0.174111 -0.489456
vn 0.854469 -0.174111 -0.489456
vn 0.854469 -0.174111 -0.489456
vn 0.845696 0.000000 -0.533664
vn 0.845696 0.000000 -0.533664
vn 0.845696 0.000000 -0.533664
vn 0.845696 0.000000 -0.533664
vn 0.854454 0.174108 -0.489484
vn 0.854454 0.174108 -0.489484
vn 0.854454 0.174108 -0.489484
vn 0.854454 0.174108 -0.489484
vn 0.865415 0.365603 -0.342623
vn 0.865415 0.365603 -0.342623
vn 0.865415 0.365603 -0.342623
vn 0.865415 0.365603 -0.342623
vn 0.862207 0.483523 -0.151010
vn 0.862207 0.483523 -0.151010
vn 0.862207 0.483523 -0.151010
vn 0.862207 0.483523 -0.151010
vn 0.858093 0.513495 0.000000
vn 0.858093 0.513495 0.000000
vn 0.858093 0.513495 0.000000
vn 0.858093 0.513495 0.000000
vn 0.862208 0.483522 0.151011
vn 0.862208 0.483522 0.151011
vn 0.862208 0.483522 0.151011
vn 0.862208 0.483522 0.151011
vn 0.865416 0.365603 0.342623
vn 0.865416 0.365603 0.342623
vn 0.865416 0.365603 0.342623
vn 0.865416 0.365603 0.342623
vn 0.854454 0.174108 0.489484
vn 0.854454 0.174108 0.489484
vn 0.854454 0.174108 0.489484
vn 0.854454 0.174108 0.489484
vn 0.845696 -0.000001 0.533665
vn 0.845696 -0.000001 0.533665
vn 0.845696 -0.000001 0.533665
vn 0.845696 -0.000001 0.533665
vn 0.000000 0.342773 0.939418
vn 0.000000 0.342773 0.939418
vn 0.000000 0.342773 0.939418
vn 0.000000 0.342773 0.939418
vn 0.000000 0.738282 0.674492
vn 0.000000 0.738282 0.674492
vn 0.000000 0.738282 0.674492
vn 0.000000 0.738282 0.674492
vn 0.000000 0.956633 0.291295
vn 0.000000 0.956633 0.291295
vn 0.000000 0.956633 0.291295
vn 0.000000 0.956633 0.291295
vn 0.000000 1.000000 0.000000
vn 0.000000 1.000000 0.000000
vn 0.000000 1.000000 0.000000
vn 0.000000 1.000000 0.000000
vn 0.000000 0.956633 -0.291295
vn 0.000000 0.956633 -0.291295
vn 0.000000 0.956633 -0.291295
vn 0.000000 0.956633 -0.291295
vn 0.000000 0.738282 -0.674492
vn 0.000000 0.738282 -0.674492
vn 0.000000 0.738282 -0.674492
vn 0.000000 0.738282 -0.674492
vn 0.000000 0.342774 -0.939418
vn 0.000000 0.342774 -0.939418
vn 0.000000 0.342774 -0.939418
vn 0.000000 0.342774 -0.939418
vn 0.000000 0.000000 -1.000000
vn 0.000000 0.000000 -1.000000
vn 0.000000 0.000000 -1.000000
vn 0.000000 0.000000 -1.000000
vn 0.000000 -0.342767 -0.939421
vn 0.000000 -0.342767 -0.939421
vn 0.000000 -0.342767 -0.939421
vn 0.000000 -0.342767 -0.939421
vn 0.000000 -0.738282 -0.674492
vn 0.000000 -0.738282 -0.674492
vn 0.000000 -0.738282 -0.674492
vn 0.000000 -0.738282 -0.674492
vn 0.000000 -0.956639 -0.291277
vn 0.000000 -0.956639 -0.291277
vn 0.000000 -0.956639 -0.291277
vn 0.000000 -0.956639 -0.291277
vn 0.000000 -1.000000 0.000000
vn 0.000000 -1.000000 0.000000
vn 0.000000 -1.000000 0.000000
vn 0.000000 -1.000000 0.000000
vn 0.000000 -0.956639 0.291277
vn 0.000000 -0.956639 0.291277
vn 0.000000 -0.956639 0.291277
vn 0.000000 -0.956639 0.291277
vn 0.000000 -0.738282 0.674493
vn 0.000000 -0.738282 0.674493
vn 0.000000 -0.738282 0.674493
vn 0.000000 -0.738282 0.674493
vn 0.000000 -0.342770 0.939420
vn 0.000000 -0.342770 0.939420
vn 0.000000 -0.342770 0.939420
vn 0.000000 -0.342770 0.939420
vn 0.000000 -0.000001 1.000000
vn 0.000000 -0.000001 1.000000
vn 0.000000 -0.000001 1.000000
vn 0.000000 -0.000001 1.000000
vn 0.000000 -0.342770 0.939420
vn 0.000000 -0.342770 0.939420
vn 0.000000 -0.342770 0.939420
vn 0.000000 -0.342770 0.939420
vn 0.000000 -0.738282 0.674493
vn 0.000000 -0.738282 0.674493
vn 0.000000 -0.738282 0.674493
vn 0.000000 -0.738282 0.674493
vn 0.000000 -0.956639 0.291277
vn 0.000000 -0.956639 0.291277
vn 0.000000 -0.956639 0.291277
vn 0.000000 -0.956639 0.291277
vn 0.000000 -1.000000 0.000000
vn 0.000000 -1.000000 0.000000
vn 0.000000 -1.000000 0.000000
vn 0.000000 -1.000000 0.000000
vn 0.000000 -0.956639 -0.291277
vn 0.000000 -0.956639 -0.291277
vn 0.000000 -0.956639 -0.291277
vn 0.000000 -0.956639 -0.291277
vn 0.000000 -0.738282 -0.674492
vn 0.000000 -0.738282 -0.674492
vn 0.000000 -0.738282 -0.674492
vn 0.000000 -0.738282 -0.674492
vn 0.000000 -0.342767 -0.939421
vn 0.000000 -0.342767 -0.939421
vn 0.000000 -0.342767 -0.939421
vn 0.000000 -0.342767 -0.939421
vn 0.000000 0.000000 -1.000000
vn 0.000000 0.000000 -1.000000
vn 0.000000 0.000000 -1.000000
vn 0.000000 0.000000 -1.000000
vn 0.000000 0.342774 -0.939418
vn 0.000000 0.342774 -0.939418
vn 0.000000 0.342774 -0.939418
vn 0.000000 0.342774 -0.939418
vn 0.000000 0.738282 -0.674492
vn 0.000000 0.738282 -0.674492
vn 0.000000 0.738282 -0.674492
vn 0.000000 0.738282 -0.674492
vn 0.000000 0.956633 -0.291295
vn 0.000000 0.956633 -0.291295
vn 0.000000 0.956633 -0.291295
vn 0.000000 0.956633 -0.291295
vn 0.000000 1.000000 0.000000
vn 0.000000 1.000000 0.000000
vn 0.000000 1.000000 0.000000
vn 0.000000 1.000000 0.000000
vn 0.000000 0.956633 0.291295
vn 0.000000 0.956633 0.291295
vn 0.000000 0.956633 0.291295
vn 0.000000 0.956633 0.291295
vn 0.000000 0.738282 0.674492
vn 0.000000 0.738282 0.674492
vn 0.000000 0.738282 0.674492
vn 0.000000 0.738282 0.674492
vn 0.000000 0.342773 0.939418
vn 0.000000 0.342773 0.939418
vn 0.000000 0.342773 0.939418
vn 0.000000 0.342773 0.939418
vn 0.000000 -0.000001 1.000000
vn 0.000000 -0.000001 1.000000
vn 0.000000 -0.000001 1.000000
vn 0.000000 -0.000001 1.000000
s 1
g pCube4
usemtl openPBRSurface1SG
f 1/14/1 2/1/2 28/4/3 25/15/4
s 2
f 26/16/5 27/223/6 8/224/7 7/13/8
s off
f 7/185/9 8/186/10 2/1/11 1/14/12
s 3
f 2/1/13 8/2/14 27/3/15 28/4/16
s 4
f 7/13/17 1/14/18 25/15/19 26/16/20
s 5
f 9/40/21 10/115/22 36/102/23 33/41/24
s 6
f 11/233/25 12/234/26 48/235/27 45/236/28
s 7
f 34/53/29 35/187/30 16/188/31 15/52/32
s 8
f 46/239/33 47/240/34 10/241/35 9/242/36
s 9
f 103/25/37 102/26/38 73/27/39
s 4
f 29/22/40 30/21/41 3/23/42 5/24/43
s 2
f 5/231/44 6/232/45 32/230/46 29/229/47
s 3
f 31/10/48 32/9/49 6/11/50 4/12/51
s 1
f 30/220/52 31/219/53 4/221/54 3/222/55
s 4
f 18/18/56 17/17/57 22/19/58 21/20/59
s 1
f 17/216/60 20/215/61 23/217/62 22/218/63
s 3
f 20/6/64 19/5/65 24/7/66 23/8/67
s 2
f 21/227/68 24/228/69 19/226/70 18/225/71
s 4
f 26/16/20 25/15/19 17/17/57 18/18/56
s 2
f 18/225/71 19/226/70 27/223/6 26/16/5
s 3
f 28/4/16 27/3/15 19/5/65 20/6/64
s 1
f 25/15/4 28/4/3 20/215/61 17/216/60
s 4
f 21/20/59 22/19/58 30/21/41 29/22/40
s 1
f 22/218/63 23/217/62 31/219/53 30/220/52
s 3
f 23/8/67 24/7/66 32/9/49 31/10/48
s 2
f 29/229/47 32/230/46 24/228/69 21/227/68
s 7
f 13/80/72 14/190/73 40/189/74 37/68/75
s 14
f 111/85/76 110/86/77 75/87/78
s 5
f 38/46/79 39/100/80 12/101/81 11/61/82
f 33/41/24 36/102/23 39/100/80 38/46/79
s 7
f 37/68/75 40/189/74 35/187/30 34/53/29
s 9
f 84/71/83 83/79/84 65/72/85
s 8
f 15/52/86 16/188/87 43/244/88 42/243/89
s 14
f 92/132/90 91/139/91 67/133/92
s 6
f 41/238/93 44/237/94 14/190/95 13/80/96
s 8
f 42/243/89 43/244/88 47/240/34 46/239/33
s 6
f 45/236/28 48/235/27 44/237/94 41/238/93
s 9
f 37/68/97 51/67/98 55/70/99 41/69/100 13/80/101
f 15/52/102 42/37/103 56/36/104 53/51/105 34/53/106
s 14
f 50/127/107 57/131/108 43/130/109 16/140/110 35/128/111
f 44/98/112 58/97/113 54/111/114 40/112/115 14/113/116
s 9
f 45/60/117 61/55/118 59/42/119 38/46/120 11/61/121
f 49/31/122 62/30/123 46/38/124 9/40/125 33/41/126
s 14
f 10/115/127 47/116/128 63/117/129 60/103/130 36/102/131
f 39/100/132 52/91/133 64/90/134 48/94/135 12/101/136
s 9
f 97/56/137 66/73/138 98/57/139
f 82/78/140 81/145/141 69/65/142
f 41/69/100 55/70/99 84/71/83 65/72/85 66/73/138 97/56/137 61/55/118 45/60/117
f 100/146/143 99/58/144 77/44/145
s 14
f 105/118/146 68/129/147 106/119/148
f 90/138/149 89/147/150 71/125/151
f 68/129/147 105/118/146 63/117/129 47/116/128 43/130/109 57/131/108 92/132/90 67/133/92
f 108/148/152 107/120/153 79/105/154
s 9
f 86/49/155 70/64/156 87/149/157
f 55/70/99 51/67/98 81/66/141 82/78/140 83/79/84 84/71/83
f 34/53/106 53/51/105 87/50/157 70/64/156 69/65/142 81/66/141 51/67/98 37/68/97
s 14
f 94/109/158 72/124/159 95/150/160
f 57/131/108 50/127/107 89/126/150 90/138/149 91/139/91 92/132/90
f 54/111/114 95/110/160 72/124/159 71/125/151 89/126/150 50/127/107 35/128/111 40/112/115
s 9
f 88/35/161 74/34/162 85/48/163
f 74/34/162 88/35/161 56/36/104 42/37/103 46/38/124 62/30/123 103/25/37 73/27/39
f 88/35/161 85/48/163 86/49/155 87/50/157 53/51/105 56/36/104
s 14
f 96/96/164 76/95/165 93/108/166
f 48/94/135 64/90/134 111/85/76 75/87/78 76/95/165 96/96/164 58/97/113 44/98/112
f 96/96/164 93/108/166 94/109/158 95/110/160 54/111/114 58/97/113
s 9
f 104/151/167 78/45/168 101/29/169
f 61/55/118 97/56/137 98/57/139 99/58/144 100/43/143 59/42/119
f 59/42/119 100/43/143 77/44/145 78/45/168 104/28/167 49/31/122 33/41/126 38/46/120
s off
f 146/152/170 145/153/171 147/154/172 148/155/173 149/156/174 150/157/175 151/158/176 152/159/177 153/160/178 154/161/179 155/162/180 156/163/181 157/164/182 158/165/183 159/166/184 160/167/185
s 9
f 104/28/167 101/29/169 102/26/38 103/25/37 62/30/123 49/31/122
s 14
f 112/168/186 80/106/187 109/89/188
f 63/117/129 105/118/146 106/119/148 107/120/153 108/104/152 60/103/130
f 36/102/131 60/103/130 108/104/152 79/105/154 80/106/187 112/88/186 52/91/133 39/100/132
s off
f 162/169/189 161/170/190 163/171/191 164/172/192 165/173/193 166/174/194 167/175/195 168/176/196 169/177/197 170/178/198 171/179/199 172/180/200 173/181/201 174/182/202 175/183/203 176/184/204
s 14
f 112/88/186 109/89/188 110/86/77 111/85/76 64/90/134 52/91/133
s off
f 65/72/205 83/79/206 113/84/207 114/81/208
f 83/79/209 82/78/210 115/83/211 113/84/212
f 82/78/213 69/65/214 116/77/215 115/83/216
f 69/65/217 70/64/218 117/76/219 116/77/220
f 70/64/221 86/49/222 118/63/223 117/76/224
f 86/49/225 85/48/226 119/62/227 118/63/228
f 85/48/229 74/34/230 120/47/231 119/62/232
f 74/34/233 73/27/234 121/33/235 120/47/236
f 73/27/237 102/26/238 122/32/239 121/33/240
f 102/26/241 101/29/242 123/39/243 122/32/244
f 101/29/245 78/45/246 124/54/247 123/39/248
f 78/45/249 77/44/250 125/59/251 124/54/252
f 77/44/253 99/58/254 126/75/255 125/59/256
f 99/58/257 98/57/258 127/74/259 126/75/260
f 98/57/261 66/73/262 128/82/263 127/74/264
f 66/73/265 65/72/266 114/81/267 128/82/268
f 75/87/269 110/86/270 129/92/271 130/93/272
f 110/86/273 109/89/274 131/99/275 129/92/276
f 109/89/277 80/106/278 132/114/279 131/99/280
f 80/106/281 79/105/282 133/121/283 132/114/284
f 79/105/285 107/120/286 134/135/287 133/121/288
f 107/120/289 106/119/290 135/134/291 134/135/292
f 106/119/293 68/129/294 136/142/295 135/134/296
f 68/129/297 67/133/298 137/141/299 136/142/300
f 67/133/301 91/139/302 138/144/303 137/141/304
f 91/139/305 90/138/306 139/143/307 138/144/308
f 90/138/309 71/125/310 140/137/311 139/143/312
f 71/125/313 72/124/314 141/136/315 140/137/316
f 72/124/317 94/109/318 142/123/319 141/136/320
f 94/109/321 93/108/322 143/122/323 142/123/324
f 93/108/325 76/95/326 144/107/327 143/122/328
f 76/95/329 75/87/330 130/93/331 144/107/332
f 114/245/333 113/246/334 145/153/335 146/152/336
f 113/194/337 115/191/338 147/154/339 145/153/340
f 115/191/341 116/192/342 148/155/343 147/154/344
f 116/192/345 117/193/346 149/156/347 148/155/348
f 117/193/349 118/195/350 150/157/351 149/156/352
f 118/195/353 119/196/354 151/158/355 150/157/356
f 119/249/357 120/250/358 152/159/359 151/158/360
f 120/250/361 121/251/362 153/160/363 152/159/364
f 121/251/365 122/252/366 154/161/367 153/160/368
f 122/200/369 123/197/370 155/162/371 154/161/372
f 123/197/373 124/198/374 156/163/375 155/162/376
f 124/198/377 125/199/378 157/164/379 156/163/380
f 125/199/381 126/201/382 158/165/383 157/164/384
f 126/201/385 127/202/386 159/166/387 158/165/388
f 127/248/389 128/247/390 160/167/391 159/166/392
f 128/247/393 114/245/394 146/152/395 160/167/396
f 130/253/397 129/254/398 161/170/399 162/169/400
f 129/206/401 131/203/402 163/171/403 161/170/404
f 131/203/405 132/204/406 164/172/407 163/171/408
f 132/204/409 133/205/410 165/173/411 164/172/412
f 133/205/413 134/207/414 166/174/415 165/173/416
f 134/207/417 135/208/418 167/175/419 166/174/420
f 135/257/421 136/258/422 168/176/423 167/175/424
f 136/258/425 137/259/426 169/177/427 168/176/428
f 137/259/429 138/260/430 170/178/431 169/177/432
f 138/212/433 139/209/434 171/179/435 170/178/436
f 139/209/437 140/210/438 172/180/439 171/179/440
f 140/210/441 141/211/442 173/181/443 172/180/444
f 141/211/445 142/213/446 174/182/447 173/181/448
f 142/213/449 143/214/450 175/183/451 174/182/452
f 143/256/453 144/255/454 176/184/455 175/183/456
f 144/255/457 130/253/458 162/169/459 176/184/460
